<mxfile host="app.diagrams.net" modified="2021-03-12T13:15:20.319Z" agent="5.0 (Windows NT 10.0; Win64; x64) AppleWebKit/537.36 (KHTML, like Gecko) Chrome/88.0.4324.190 Safari/537.36" etag="eM7wMb6VuKZ0xJPXKrZK" version="14.4.7" type="github">
  <diagram id="2iY0RAFeYxq7KScqga4M" name="第 1 页">
    <mxGraphModel dx="813" dy="426" grid="1" gridSize="10" guides="1" tooltips="1" connect="1" arrows="1" fold="1" page="1" pageScale="1" pageWidth="827" pageHeight="1169" math="0" shadow="0">
      <root>
        <mxCell id="0" />
        <mxCell id="1" parent="0" />
        <mxCell id="NisTQTtNLf6xnu39tymK-1" value="" style="shape=image;verticalLabelPosition=bottom;labelBackgroundColor=#ffffff;verticalAlign=top;aspect=fixed;imageAspect=0;image=data:image/png,iVBORw0KGgoAAAANSUhEUgAAAEAAAABACAYAAACqaXHeAAAAOXRFWHRTb2Z0d2FyZQBNYXRwbG90bGliIHZlcnNpb24zLjMuMiwgaHR0cHM6Ly9tYXRwbG90bGliLm9yZy8vihELAAAACXBIWXMAAC4jAAAuIwF4pT92AAAbsUlEQVR4nHWbe/BtSXXXP726997n9Xvc3/3duXOHYSbDMEMIyNviES2UsgxCanBMKpZCoXloxECZkkpJNLFKQ2kFq8yjtEKCUdSYRCKSgkikAiZCIjMEAjIBJgzzZGbu3Pfvcc7ZZz+62z96rz7nDHFX/ebcOa/dvfq71vqu71rHfPrR58VFqHiovZkQBTGBG/2UwnjEBJa+YiQdAKtQMLENAHM/AmAiLQDLUCJEAobCeLpo8VGofcGuW3Gl3WG/WHJreZ2JNFgTebQ5x3E/ZmYbduwKj+Fqt0OIBjExf781gS5agG+5h5De10VLFy07dsWpH3HgFnTRsgoFeul3ABTGc9KPcFf8Lgd2ThMKumi53k/ZsSvEBM67Yx71N3G53eFMsWRiG+Z+hI+CNYHCeFahIGCYSMsylPlxFQoOi1OsGfGbv/QXOPuVFdJ6PmcMpvOYCPQBEwLRSVqVCNEaQmU5vmPErT/wDd587gEerC8gJrJjVxz3Yyrp8XH4jAksfcmeqymiz6/r5q0J+b0hGia2ZRUKmuCopMd89OEXx2v9jGM/ZRUdTSiYSMupH2VLV9LlExciI+lYhYKRdHTRpvdGQyU9F1d7TF3DQz90F8RIGBcEJ0gfMI1Pa47p1Ezn8+ajCAgYH4mFhT6AEwiBaIUzP/MUL955eusUl75kYls2Lz0cff2wmHPqR9kQTXAZXSEazIceekU8DSOu97P0BRiaUGxtWjeuX6yLWPqSSvr8nk88+UJueucKf25vvQHSSafDCkQR5NEnMbMZ4XCPaAz2+gnxZI6/61aMDxDIhorGgECoHO54xZ+8Z8LbX3I/y1BSmGRQa8IW1J99qbvUvuBMscyHN5EW88eP3xKvhAn3L+8kRMm+pCe/9BXLUAIwkg4hMvcVlfRcanY5X53wqYt3s/9jBdgE7zBOi4lWEtRDIFSOu3/uQcQExrbLiwfyqfRBeE51xH/6xTdy8+8fgwBhbQh99NOCqz+24s23f4XCeAKGeV9xplhy6kcUxm9BX4106OasohsOr+JaN8X8hz95TQwIjzeHGdJqMYU2gJhIiIaZbTjpR+y6FQduwcf/+msTpGMklo5QWkyEOBhDnrzCKz5xMfscwIFbcLHdY2abbHC99GSeavb50k+9nMmTi/RCSAjCGKJNa4qF5TW/+IV8oqtQ5PXqtedq9mzNKjom0tKEAk96z8j0mH/xx38lignphSjZCD4KYXij3kAt2gTHp568m/M/KcmHRQilRVq/Bf3H37TD99z7GQBqX6yN6BpWodhCweZJKZxrX/CxL7+UF/xCg+l8MrJIjiHRGMLY8cSPBt5y1wP5O3bsKkNf9wZwxi0IUTIKAOTUj1j6KsEilDl66oZ9lBztu2g56Ud88t+9lrPvG+fNEwKy6tKJtz2m7vj6j5S86Z772LErRtLhJDCxLWOb3ChEgzUhp1jdvKbVEA1j2/G9L/sCj7zbpFgASNNh2h7T9kjTIV3guT9v+ehHXsdEWm4tb3DGLagGJI1MQl0XLZe73ezOepkvPn5rfEk54pePb+a6nyYLhYJlKDOcmuAY27TQP3rXy7B1BwFiIcTC4o7qZAyTFvrYvbt87z2/jzUBIXKp3eWW6uj/e+oT2+Q0DCngdtEyko5TP2LRV/z2H7ycu/5LcgdTd/i9Ed3MsTpw2DYSnGF5Xnjr3/1EDuJNKFiFgh27YiLtlrud+hF7bon5p1++J+oC9NJUomg47UfcUh3xyX/05xk9s8zRHCcZmviIiRE/LXndB76Q3Wdro9JmJHXRcuAWXO1mW2mpkj4HsVM/ykg86Ud8/e/cTRg72v2SaA3RAhEwEKwhOENw8D0//jtYIqd+xMQ2meApGjTdF8ZjfuLLb4lqpc1Uoid10o+YuYbPvPs1FPMBriFiukRidOMAoXS8+oNfYulLal8yHnJ0JX1OocoOddNKWnTT19oZ+8WSJjhuKk+42u1Q+7Suse340jtegml8vme3P6KfpFMNRTL6/ILl+9/18Qx3Ge6d0LxGoZiAXCiOOF+cMJE2L6IwnmUoOelHXO+mfOQ/vn578zGRGDPk9+iEMHI8/Ya9bMT9Ysmeq5nYltonKCoRcRLYc3U2zCbVVqOJicyHlFYYz65b0Qfh0XumCXUAfaC8smD81JxikU43OMP0UuCX3/9mJtJubd4Sc2zQ58UjOS1MbENh/FZgeuz0gJvvG3zPR6T1mLoDaxJjc5Iis4/88A9+bAvymjXOFMts4Iltc6ZRf9xE3iaz0+cVLV20vOWN9xHHRTqAEPRGuKMVkycWjC81uKVn/5GOn/v4m2hCgSXmGKNZIAxrkxAl/4/eRPOpk8D4nQVGaWwIRGOIlSWKpH8XljApaA7HfG1xy0Cg+swllr7kRjchYAgYfBTmfbVlJC14JtLmrNMH4cAtMly7aDOPOHrBlOhSAI5OsiGk6XDzlupqjVt4zn8u8PDyXGaNMqDbDkF2R1aI+smpH9GEIldXM9tw/0/8WcLuOPl7jAMC0iJiIYSxS8HIGW79qYfYL5YAmZ3p4meuYSJtTnFj2zGziUiNpGPHrpjZVUbgxDbsulUyYCgzfxATWfiK17/7PvCJEzCkR3wEY1J6XPUURytG13q++Z67eOHo6bSm4aCTMTsudXuIDNFWjRAwPFEfcK2bUt5IC46VTadtDGFSgiSKK/W6DnjR7OIWiwQImHxqq1BwtZtR+8QxtOjas3V2wRCFiW0YmZ4du6KSjsPilAO3yK7hjE/GOF1gQsjxwHR9ckmfqkulzvW5gp/8z2/LAXHT9UbSIfOhUgoYQkwQPazmPPyWc9hlB8NNNkmOqbt1ICIZ4vqgIXTRZja39OUa5rZBTMRJ4uinfsT1fsoylFhiRkfy+ZDRoymsMJ4Dt+Cm8pTbqut89ccv0J0Z46cloSqI4xL6QByt44k7aphcbDh8oOdCcbRV5yhSZelLlr7ER8mn1QchHO6ljTc+p53oUu6PhU0GaTpM43n03hl9kMwUl35NorpoaYLjuJ/kiK4+GTDZEDf66RB7hBv9NBlHGerwuAoFZ9yCq/2Mv/edv4uvBD8t6M6M6PZH+N2KMC6IpUuldUxB2809v/Cv7wVIBV4omfsRp36EU26ui3YSePAtF+DQrOvy4TJ9gBhTyepsYn6V5d43fpaJtJz0o8HXzEZF2dOR/j33FTPb0ATHyHbZ9Q7cIkNUH5WOKxmCRJVv9FOEmMSONuBLIYpBfCSUgukjJkSefe1/o+HW8jqPN4f59CvpEN18gl5SXbrbDgemZVJhM+T5WNgh9Q0xwQmmSdCc+wonASdrg41tl6u7K+1O9mPNEvp36kcIMa9DKbP+rTZosj5e66YsbyqRLiI+Jn7SDxs3a9ElisEE8KXwz37vrxIw3FZeo4uWuR8hkHJvJT0hGn71N96ANH0qckglJ5DSYJ+YX06FTrDHi7yoPgh9EMRExraj9kWO6ufK0yyf6bUpaFgTmA16o25UJS3VIY77cX7ubLHg0nc3CeZdwHZrw0djiGLwlWBXPdEZTITn/0rKRFf7nXTgRESDVRNSiXj7zz6A8THpdUPupw+Z9ECqy6Xukkv4pMMBOAmIiYhJstnYdkP036GLlj5IrjNO/WhLB9BNazBUsqTPKw9QRAC87SWfwygt7yO28ZgQEZ+M4VY+leldgBDp9opcjyx9ScAgfUj0tAmOm6tj4t235RSST37YdBIz1/5l+sC1P/cc6o2gp5vXSwOeNck9umgzEVKZCthKxXrVvsjGBfI6lR8cujnuuEl6o0/xSVqf4kAXCFZQwLnaQ4Cf+dQbCRj2XJ0QICZyZiAwv/7oK5PyohXeEANMjJn3A8TSpT8nXHkVTF2T6aqekPrxRNoM4Ym07NgVTkJG3Mw1WWgtjM/Pq97YBJcLKDXwRFJ9canbxdRtOhifgp80fTIGJGN0ARMioRCkC9z54TYbP2CSAa60O/TRIh85m9jdQDHTbof0t3nyXYoHoXI890XPpI3YJqdChfB8Q09UKqxG2QyESpkzgYqGJjiutjN23SrpCoOB+yDMfZXjh1nUSU43rLlJiNi6+1OzgTtuOHTzdUUIcK485aBYsPdIw/LCiPmdM/qdCj+rUk4dTp3eZ2VGg+N3nHmGwni+Nr+ZmWu2BA8NrKd+lP1WH9UtNjV6a5JqpJs9KNbNDX1PF+1WcRRPThMxi2lNWrAhkuJDSEHbLjukj7QH4yz5+Si4O6orXO13kkTcB2w7WHpiAYurBdMlodN1PqFjUGuBrPTcPrn+LdK0kqBdt9p6TpUiIcJwupsqrqZO/bwa86ibZOMtQgV0cOvN6TBCwATW3CUEpE0otYP72mWHnxY8tjrLmWKZXNOTqq89u6Q5LImWtMEheARr6PYKfGVpb5oSJgXRpiZGt1vmhT5bjRVi1uE3T1uD4DKUOSVqjMhaxOAOighNj2PbUg3ZQQbF6vQFZ4iVTQcyuIJmK0Wv8SFpGD5g657/9cTdGY0SBl7uEaSNGA/Sx3zCoRQIJNpZCs1BiZ8W9LsVrvb4oYZIrpf+rSnsbJF0hGvdNJMcZZvAVmmspTKQNzwbVKplKLMh9LOV9FTSU58VopWkT+qhFcNzBhB9MqGBEImf32Ppy4REDVJXux18JUQL0gSiM0gfkTZgm4D4SBSDbRL97EeWUAoj0+fF7Lk6++dIOq5100Hl6aikZ9FX7Ll6K+LvutW3GELV6eVGsFOZvg/Coq9yidwcmEzPpfXpsQs5JkBq0EBihYjh8IFU89zoJjj1s5FLUVP6NacOzkA0SBcGa5Jha0JkdXYd0HSRqsmf+lH2/fPFCVf7GdONfsBqCGbWBJahzL2CJrhv6fcpr1BEOGmyPhBsWovxkVAOAkkfUoNmeD4RuSEoNh5pUxo+WyxwhfHMbMPldif5fVj7v7QBxBCqtWKkr0VrmFxsWEWXuzKqwEJSgAMmyeLdbiq5o6FjnerExK2uDqwlMRVmNhnh5XY3ZwtVreoLniiGMErwBtYp3BhCaaEc6HznCZN1oF6GMiEgCxeaNiNEZ4jBpBgAqdDYiHPGR1aHqZZvBmZ24BYch3HuMG1yeUWKpiCdCbjY7m2V4fOQiqo+CGeKJcf9mD1XJ52imOdAqgYub1j8yBFliF2bhzT8xygCXHrBNoFdt0pjAGfcgqUvedHkKXyZ5C1M2nB0ZsirIW9a2pANhElQ9zHpd8d+TVtVavdDo2U1KEB6ddFy7Mc54BXG4yRktxnbdPLaP9wcktDP+yiEMsnydrXReo9kEhTFpKbts6rFJrjUk7jRT6mkZyINJoIvDaE0+JEywfQQSjMML0h2FeNTH25TV4R1dbcM5RYCtC7QdtkmzPVPY4xyBXUjPfmAyekSoLphkibg1j1D0yfxdtMIURKafWU5ujMF3JltcHqzP5w/D7cMYNIHJISUDWz6sLRx6wtNiARrmEiiwDoRoo0HPa3N6k1dQ0ygGpqWlXS5HacI2Qyqm9+lfq8FlzUBuwLpUoYKkjKXsYMbRBAf8IVWsSTK7FOs6aJFfBSEyJ6rU8UUE9SJiQNEZ4YSM91Ei47kErAMFWObFqPtNYWnLhrIs0WQdD7tRocozOwqnfQGzDeNIMTcr1B6DcOEyKUw1PtpjdJq9RqzLmBCig+aFa6/NK57Dgq5LlrsosuWi9ZkQ0RrCEVyjVAlowD4Kj2qr+uCVfjQEz9wC0amZ2KboRcYtkZZdChLmxerUGyVxUB2BZXZtFos5x4GNEKS69XXt0r3OKR1MbzyVQ9lI4uezkRarr94loKGSRb0Y0kw6pMhZOjCqhsEZ/ja4gLX+2nejPrybIMPHPsxx37M3I+4rbqeJPFnDUfo48yucgwJmBwXFBFzX2WK3EVLMe+J1uQ14lPpq8qVoiEMZCgUhrtnlwnRMPcVkkZekjLLX7uWTn1AgZv77OtrbhCzkdwq8NDxua2his1LjaEbFWIOmJaYKzJY5/25H+U22mb8UEo8G5onuck6CDaqA4bSpi5xabfT9kDy3CIx0KNuwjfrM4i2pEbS8X3f9oX8IV8JoZR1HFAfCutUSISL91/IYocSFIWzpkhdsCLCD7NIm8qRuo/K5tq9UeNo5A+YzBjPFgtk1acguHHa4teyWDQJqdJ63GlDeWVB7UsK8bxw9szgAkPb6nK7S3VlRSgS5wfyxtXvgZQiB+Jx4bN9nifSqk+/c3NY6dmTILrJTeRsDkhA6geoO+jndHgiD1dOy6RYhTi0y0wOgCZE7KqnvLHCLlMP49orD1j4krG0XGp3ER2OTFS25bF7ZlRX2ySJR0CSv7ulz8NPmnakCRSL1Mba7P930eKHfL25MWtCDpgK8T23zFxBA+CmUfQxd4qGgihNqnX0Y0soEgeIhSA+IE1q3UvdJ4ms8UN3q+fM334CN2SspEkMC9Prnfd+nPp8tdYEQkJBP7I5AGIYig+h3S0QHUHbmP7QGcM/zQUUzl20HPeTLHKqK6r+p8RHeweaEse2Y2JbvnR6Wwp4mvK0URoibt5ij2vkpF630a3wZ/afppDUKQ4YRBenzOxrywtMnmkSe7JpSBGz/jN+oJTKKkPkD4++jev9NLO0mV3lE1PWZ03IPq0oURSoy2hKvqk83YL89X4KpKCqrvP0ap9PfvXbE8yH7nVx2uKu1dijJWaxVqG0g6wCyeYlemLKt3fcioP3PYFt1zFAAx5hoJVuoMuVEJzh8V+6O6WUjUiuG1X9v4uWq93OFt3d5PabbLGLlj233HIbfU0zy66ruf1DkrSKxmPnLfbqSeoa9z79tV3afIyE0nHHBx5JgszQKs+NEYWjlqYv3/0m5VFHHPwfQ2o/QZ7elDbilqkUHd1I5EQ3prDfHIrQQYhqY97w0M3zKW+2r4/7cR7K1gCrMWLpS+Z9xVE3YfL4Me64wd5YIid16lWWBbFw6a8sUhuvsMjD30SIW627JjgkxKTAbAadUz/Cvfdy2jzkajAjwqxFCNsEfGVSD1/WmrvCFtajNxobtOl57MdZ6dlsgFbSswoFtS+yMTdZYBctr9v7BhiDLJvUvdI02PVbEj4+TbQ971OJip/2aewujf61qS+giz7pR1mFfeHuM+x+KWn+4hMZki5g25DK4k65d8DVgV/5t9+VaO5GkyMBJuZ0pgZW1OWMMSBEBnK0lszWE10n/Ygr7Q7XuzTL+LMPvgG6YUDDbDIekzrXziYUjArk4W/mwApkiU4BTR/Ww0x6MzGRV/3mN3Cr1AuQLqlD/cjm2sCXkkTHCLuP9dw5upwZ32beV1/f2QiO+nwT3Hq8fSifNWbsF0vmvsr/ry5W+4Jb/mXaJFbScISzhN0JcTJK80vDHCPAPfc9nLXKcR7TSTxFal/gJMlVKkymGZ6GG92ER39wEEaGdCg+UUoT1xlB54Te9/nvyhuodHh5yAybzZHNcTwxkXlf5U7ytXaWhqqi4Xo3pQmORV/Ra80QLHdPL2HnDVEkD0SE6XrwynR93vyDf3/GlxfPpZKe/WKZJXWdi5AQU0s79eFSvd0H4VK7S2E8r77jMYJN5aaJcci5a8RFAVunhuQdHzSZqWnE18ywGRTnvsrcHtZd5donfUAN4zYGGrtgccbTR+H997+eMK3yvILOMoSRI5QpABIjcuOUv/Syr6ZobwJH3YRK+tQGNJEb3SQNSQFD66nLUFEkHFZzvuOfP0D51DG27nM2UJdIGvwgl4+ED973nYykY9FXucGhzRPtDdR+/WMHNfi2WxRcb6db43u7rqaPlrHteOE/eWJohyWV1wwDEoSYRnjGBebpq3z7f3+KQvy6pjAhTbBKS+3LZAi1tvbkVGyY2obaF+lNRF7xoa9jH76I6QJu0eeiSA0SBYhw+0dhz9aMbUsTHLVP02E6JLn0JWfLed7Y5kC2CioBkyL08OMKRacQ+Z9feRHx5rOpXd/2ieVpexxyk/Q5v7WkDiU7w7hdupfkIepKOpzxiJM0mbHZs1dDdNEyHnL3UTfheR8/obgyzyNyMhijmPfYlcetPNJF/tt7/zJiIpX0WxF3PjQ01Oc1UOYiyARClOGefW6mLAbev18secHPLNddYGMwqy5TXW2OjH/+CmPbMpaW035EGFKpImFstZ0niQdo1Fdf1SEEXVwdysE9Ai/6tYcpHruM6dJvBLZybkyuUZ56fuOBV2y5k6bXwvg8eq8uoX45tt1w8kmiU3S4YVb4i999G6beaJrEmDKBuuVJzZ0feJibx6fDeF1kaps8f6wkSH+LUEmX0qC+oHN8IUr203pYZDOMsNW+5MW/9TTt2VFiWHWPXbTYukslZxewdeDWDzs+e/mOPAWic0M65aH30wXdUh1tTZmswvALEwxniwWf/aFXEvZ3iJMqn34sbB7XtTcWvO7DX00nPKBWkaxCqq5DTMwHIZuL6UNSWaauGUbWC3ZdzY5bMXVN9s8QDS//6S/yyL3Tte42kEVpfarBj3vcvzrgf/z662hCwWKgr5eanYyw2hec9OOc52e2yaLnST9iYlu+euNmPvMPXpMivf4YS9adH5zw9F/c4/b/+gyX250h9hR5P3rAeuqKOD0I8wOf+1txv1gOUxnpBmfLeZ7535za1C9LzcmQffsrb9gl3HlrHq+JlcX0AT8tU3uqEN70b36Pi+0eIRqOukmy/vAdYiKLvsqB86gbs1/UfOOtt+PPTNJvCc3Q5u4T7TWdx1w/5uW//RQj6Xim2aMJjkI84yHrqMvputUgGp+a4DA/+kffF58dJTcvNYr25ZXTh4HDj6XlqJvw6Ueez13vXa5LzpiGl3XCrN+rKG7UPPiuKf/wtb/DE80BR92E89VJ/nntSydP8J5ffTu3/m6q/uyyS9FdZOu3h+bpq5z/2AofDTPXZr6QUpswHTKI0ul1Gly7nO7ZvP3+7486iqIpceErxtLy1Gqfg3KZy0c1RDNocoVs0NqQhiQ+8+idPP8dj8Et5wcDpPfEwg2ipctNSuOTcUwzoGZjIk0hbtqeWDpM2zO/a58X/OOv0EdJrbNgGdt2QE+KL/qaXkp9nYSBaKWT1/2YH/nC34ibp1lv/KpKb6CW1DSlRkhWL6hsn98P0EfhsJzzBz/9as58+jHC+YP8O2GGcTYGtgak59zGzGDXE8sC03bEccm59z/FzLXM+5LdIRbpzFDAUPuCHbeikp6n6nRoz76mrsmuu7kf847PvzWuSUva/K6r0zo2BItdt6L2xbe4AaS8Wg/DlhpxC/F0wdJHwUfD3dPL/Pv//Xqe/2srzP/5v8hohJw/lxBiDP7KVey5Q77+rtv4m2/8NE/WZ3IzpLI9XUiDkrUv8glrcZRI2/rgal/kIK7G0nWObcflZicjyPzw598W531JJX4gHyl96IeUCWZIDZvVAKbuctKPGdt2i75uoqrxLgcfPTVn1tE5TYvUWwgEBv5vtxqllXRb79Pv3nV14vu2X6s+JgXtNQIi+8WSo25CIZ7/BwXugQefKHWmAAAAAElFTkSuQmCC;" vertex="1" parent="1">
          <mxGeometry x="80" y="200" width="64" height="64" as="geometry" />
        </mxCell>
        <mxCell id="NisTQTtNLf6xnu39tymK-2" value="" style="shape=image;verticalLabelPosition=bottom;labelBackgroundColor=#ffffff;verticalAlign=top;aspect=fixed;imageAspect=0;image=data:image/png,iVBORw0KGgoAAAANSUhEUgAAAEAAAABACAYAAACqaXHeAAAAOXRFWHRTb2Z0d2FyZQBNYXRwbG90bGliIHZlcnNpb24zLjMuMiwgaHR0cHM6Ly9tYXRwbG90bGliLm9yZy8vihELAAAACXBIWXMAAC4jAAAuIwF4pT92AAAWb0lEQVR4nJWbSZMcx3XHf7lVV6+zAZghdmIhQZCyTEuUKNvhkCWHZPukgy8++ODP46/hkxwO2xdZoYvDcmgN01poUiQIggBhADOD2XurrqrM9KH2XgAqIyamu7oqM9/Lt/zfUuIbf/MPntqQ1qMnDpk4vBR4JXBK5D+Cl4JVwysQNvssnF95HzTnUTNXfha2ek44j5diYa7i+rJ1ROrBeYR1COsW5sS5xv1axYsbdUrglAIyhsh8AkdzM9IuPlss1mDckiFcNq+wHuH8SoYJ5zOi5odecu+S+8T8HqVsTtNYOGfOMsJedH3ZYsJ6VI0Z5RL55/m5VklWc38+n9uBk1A8U7/e+O+zE58jur4fTU0iik0tcG3uoVXDBrIxx/ypeiUahJfS8gK1AvCByCWBkligFPX6WCB+yajTp+eJXiaKXgqE9UuZUBf5ukjX56rrcvF/gTkvYEKpBq5YSy6/b5nOwyIjColwDi2T5VxaZmReJBnLflu6yRrxhc56LRauLYw5MV+Yd8X1lSNnil554i8wSquuv4gIHzRPuH6iIq1vbM6qL7HmBdOXScIXOgjnEGnOgFIk65teYmHLBZa4pPJzMYfzpYHyuiK8Iea6ItxrUWO6aDDnZWPpyeenWxDptWx8rw9dEO+1KAlYOME5hjREN3+2MeaI91KUmGLZvC7fYGkngupQvFR4JRHW4VWT8DrxLzr5ZYRXDCiAwxI8UBCzUi/nxgIjqIivb1I4j4xdecqSptotk4B5cfdKIuOUhbHC8jf3KSsVEIktfyg46pWsFqyJ8/yYZ0xxki+zEyJ2yDitdDpe7V2y/YgGAyqJkL+/8SvmyJmg60SvHMsIeonvbtiGmhsrRLcOUhoMn59nCYHz4r/w+wtEfv53Pc9ZAG9UwyYsG3X9LghUuUiqaZLdVDdGtQ37lsaFBtsNiTYN0aYkbQucAZ9vRziQCeipr/4mDjNJEXHGADlN8Fpm+y3cMRKvQcyWqIeS2T6cA6PxWq6w9wXqeskQqUdQGUSncyslRXna3ijSribtSGYDxWxdEK9BvOawaxbdndHvTWmbnHmiYnpsFdPYcDQM4TigdWwITg1m5GmdOMKjFJm6kiHCOlygEFbgjSqlbP4AMLo8mNUO7yViPy8dInYEx1OQEts2xJsB0YYi2pRE5zyz7ZTehVOubRzzxmCXO+1n7JgTuiLmxHWInCGUSWPOyBnGrsXn8RafTzf55OQ8e0cD0rOA1r6ivduifegIj1P0MCnVwgU5gdYhYzKJyOf0rYp4qDm4ukFZahdW6XxhJKXAdlvE6wGTbc3okmB6JaW3fcbdred8ae0pb4RPuR3ssSljNvNo06BIGDPzjth7khpfk3zbT4N9dsM17vY2+WzrPJ+PN/js/Cana32SpxJnNB1AD6u9ei0gBq9cqRYLw7rMBjTRVkV8YWkbhM6P/JoNFUlfMbyoGd5wdG+d8BeX7/PV3me8FuxxWU/pS0VHBCQ+IMEydBawBKKa1wgaTADoy4jQJGyqEVfMEYfdHh90L/Hb7kWehFt4aYCcCeNMlVbarzwOKKRCzxNejHk345VcyQSvBTbIdDy6APrqmO9c/Yi/2/wZ17QviR75hJmPGDtPguDItjlzIUe2V4q/ESldES+sEYqEgYwYyIgdfcolc8yr7ef8QL3FQy4gU4NMNG3rUZFFJPYLeQq9jPhlnqG8xy6qhpcizxaBDTxb/QnXwwNuaYkRisRb7qeO3XSdI9tjN11jPx7wPO7zeLzO/qgHQMukrLUiNlsTzrVGbJgJG3rMphoxUBHrckJfRnRkQl9m3/e3BpxOQ86GG+ipRM8UMnXIqOZ1lEAgM+tfB0q2hgMWGJBb8oL4Jux0Dd/tpSANJdGWINlKeKV7Rl9O2bMxe7bNe9FNfnJ8i/sn5zg+7ZIODfpUY04FKs4Y5yVEGg7bnntdj++ndNamXFw/4/bgOa91drkeHBCKBCMc/VxirocH3Nla5xc7HaJRm9aJxAwligrQZXt3Gfokjw1yd9gwDQsxf82dFb8XHC2ZpSuMLxzIieLTo3N8373Df4Rv8MHhDgfPB6j9ABWBdgJjAQdmkuUQnan8vhkJ3LEg7QZMtxQPZyYTVWHLU++QEHlF4hV9OeVS+4ReL2Lca5G2MnU0tYP05Ewo6IDMPdolblDY3H8jF06+DkkLsFTgfGk9ZuTpPJXMhuvc0+t8LEFHgs4UzDgjWlpfEitTj9OCpCNQSQZ2vBRYA2omkDNFMmxzf7zD4XaH9BVFdzDjYm7uJxi29IhLrWP64Yxhy5cewAUaHxRRYC4NrYpcgcbLmhcoCCwDlhckHgqDKNI8XWU9MvEEZzkRe6JEdFBLoqYF8fn/fC0VS2Ti0ZHHBgKlBdKCmmUMBM2x6vP5YIPDbo+hM2zKGCMsW3LMUJ+yHk55Yny1bt1Yz6fOpKRIgC5IQMYE98LYoGQYEhk7XCBRkSNwlKlzr7IEaB3aQi4BReo8d1Wtmc2yz4lDhArXEoBEuAxmJx1BOlWMk4CJC0i8IkHkdiDhzI3o6BhEFW1mQZ6q7dkjpnEOgQvGvAAJrsyvUU+DuZIJxcLFcCajfFlqvMgdAg0oW4xUKox1yFSgZoJ4IBCxIEo1idNE3gARJpeuQFi0cCBzRjtKGL50yDxeQGcMWHB1Na4tZ46HejrZFvG5K4MkNbN4KSjQbSPer8X9dX9dga7sHp0nUWWSXQ91SkfN2FQTDL5EigCR1ZmNSSrVyuITma0nBSqPPm3blM81JKDOiC+c5LRNRuAq1RGwoIvLRulS83tV7MoMsg1lpk5tx0ZrwqYaEQqLEWDwHDnN2AcMkxA5UchcrYp4oLF2jgJlnOJCgwtWRYMLG3x5TUDGtoy8ihxcCTuXJDSARVtTZIryzy5UOCNIQ5C9hK3WhC09IvKKdWnpCcOehYfxefaHPfRYZAbWVhImcWUCJpvX1dbQqxMiX4To+VGEnaVUFHNq2cAQdSA1v75IbPnZGUnck8QbngtbZ7zaPmBLjgGIvQcBQxfy8WSH4UmH7qlAz2xli/JUX5mfqO8xsSjrl3mB5fbghYTncbfXsgo7a3m3bDOZ/tXBVj2ntyANUmQ5hHVJei7mrc1d7rafsK2mDL0uA6bPk03unV1AHhhaJ1nSpND50v0V8FdKfKBrafGaF6gHP03w8wXzbrm4u7aqwFL+rIxt/r2JM1bm/aTAhorZQDHZ8WycG/Lu4FPuBntsKkVis/kSLB9NL/Jgf4vwuaR1kq8jBT4QyMiyHMgpZGwRcToPhRe9gLC2GUDMFRrr3MU5fGBI+wE2kCBBRS4LTqZpzuS6PahcrQsN8bpB5UHMbF0z2Rb4WyO+ffke77Qf0sn9/LqE2MPQWX528Cr6gx6Dhw4zcqQdCUjkzBPkUWFJT/7ZBRqvHKxMif2+IydepNlpqyj7KxYtuA25auRqUEqAc6hhRHsY4ULDbCtkdEkxupny9sVn3Gk/oy9SAiEwKDoy4L0Z/PvwD3j05BxrxxCMLGaSYm1e1k+WJE6lLCGyQ0OgmxmhklN2Tnehad2L67k0iHp+3jlklFT5uFnakBIB+KBpC1AKOU0QZ2PslXNEW4rhq47rN/f49rmPeLP1BCOgJbL1Jj7mvyZv8Y/vf43wkxadPYsZpchpzaYUCREpGwZdxinElIzI8wEVsFkFgUviC8LzUy9PtWBQbuhEze2sGgUTXJgBE0mXycWQs2uSzvUTvnHuM74SPiyzSTPv2HOOT5ItfvDsLVoft+k98ZiRW6xqucrrLCuqRNstZgNVIMFasvMFEHglIfPWvhh2rjlByYV7BBKRWNJBi/hKl6M7itkbU757+QFf6z1gW03ZlAEdGXAvGfPz6TW+v/sOj+7tcP6Rp3WWxREukJQrzdcfyN2uUbhAkoaKk5ua6fYSN1hxKdfR2kkDi0ZwGSPmagDlc7mdqDMsUwdHtGk4fk2RvDnhu7c/4jvr/8vdYA+Tn83ExXwYb/Ov+2/z4W+usfaJJDxOEanHKZGlwrUojW0jJa4z3XeBJF7TROuK4e2US9cP0MuSHF94zDNn3uiUbk0u3qMkXktcoEj7AaNLiunrM7598xO+t/Ee180J6xLGjjyd1uf7++/wq/vX2PxQ0Huaoie27EUqijMFIoWqOFJA8nhNM7yomVz07Fw75K8vflDHAct0psig1GFsXV18Di5kmWGpE1/YhIbFVxkYcYHCtTXjnRZn1yXj12PevvE57w4+ZSdPeOxaxW7a5yfj1/jpwQ3u39+h+8DQOnGomUNFFhdIhBXIODe+hbcJdFkJcu3MxU7OK85uO155Y58/277PjdY+urG5FWP+nlXgyLd0wxgWzKwAVp5CbxtsRzNb14wuS9KvDHnn4lP+eONTtvSIiTMc+Q676RoPZhf40dM77N07z+ChpLOXFz9MU2JFkvt86zImKwGBxiuB7QXM1hSTCwK5PeUbFz6jp2bspmuVCtShaiPUnWNEHeXVgUwl5g55OsYHBiElrtfK0OBohohmECfY/g6jSwFHdyF8/YRvXX7Au/37vBbssa2mdKXgcWr56ew2P3j6Js8/OM/mx4LO8xQ9ycCOz9GiTLPgpoj/C4/ilSxjgKSnmZ6TTK+kvHlxj28Ofochwyn6ZfX0+da3eXc5z0AA322XJyESmxm+JMUHBrpthtdCTm9B584J37n6EV/pPuS6OWBbTTEiE/2fT2/y44NbPHm0Rf+ZpPM8xQwtsmZAC72vo70yCeJ8eWBJRxL3waxHvNI+K4kPhEXXDdR8783y0nSB5avwF6hEL9DYtindkBzNMogcBkSXB5y+aji541m7ecS7rzziS53H3G1lSC9B8JvZNr8c3eDHexnx3QeG8LBKo2UJkizgqQOfcrimqnqjsC2Ba3larZS2iklQZfFFz1v/lcTPYf6ScfVoq/asjC1iGiOiGb7bZvLqGgdvGWZfnvD1a4/4y633GaiIK/qIHWU5cYJPki3+7fBtfvnkKvGnAwbPBJ09h5lkQMfn1r7oLpGxxQWqYZPqUaVXEhsqnBY4DVJ4NsyE2+awJKuGBIsTnovclqnIPLjJGeLaBmE96nSaET6J8JtrTK6tsf+HBvflIX9/55d8tfOA6+aEIxuSeMWudfw6uswPD7/ELz67jnkQsvYYwiOLnhSMB2xzGwXxBbH1SLasCRShdwqTSYvncZ+hMwxdyNgHTSNY76qqu7460Q2JySu8oo6n8vKT77ZJL25y8nqHk9egffeYP7n0GXfbTwiEZehMWRd8nGzyo7273H+wQ/uhof/YY8YOFfuM8DyVLhNX5h29lIha+k2O0tIWCOux3Qz1OSNQsSc8kIzDNj9M7/LfW1eYJZrUFtHgvC7Xcf+KUVaPc6MjUoc6OAOlcL2QybUBJ7c0Z3cSbt3a5c/P3+NycIgRKWMfMLYBBsvjZJN/evRHHDzcpPdQ0X3mCI9rRi1PphbEl80buvl7McQsxbeD2oGAmTj8EQgnSZ+HjMIQkWYZZF2crtc5lF1VD2i4yWzmBn6wDuIEd77L8PYaR3cVyRsT3rn6mHfWH3I3fILBMvEtDtMeR7bLfjzgZ/uvcvS7LXrPMh/fOnWoyDUQnopzV1dYewsiyfTdBToXddnwBsVQsUPFhQTRaLWDmhFc2URQcDZ1jd+FY9EDbAwY3xhw8GWJevOUv7p2jxvt51wPDgCY+BYAn0YX+J/jK3zy9AL6Ycj6IwjOHHqWZ4NVZunVbLG5CiijTRHFiF5YuT4pawFXLcHK6s61Wj6gVkKGZsSW1rC1qln/4tl2QLIRcnKjxenr0L9zxJ9efMB319/HYElQDG2b3XSNJ7MN/vPZLQ4ebLL2O8XgcYoZ5fC11kgtp2kD1y8EYbnEiTTAhaYyguXLHaIhEdJ51FyjtpeiZgTniAYalZWFtlPr8C2N7baItlsc39a0v/mc771ynw09YducYrDs6CGJlxymPX58eJtffXyd7n3DKw8snf0p+nhaJU2WhM4FrHaBKguytqWADsKuYQOJawmEJbcVBU7xKOdR41kmvbmqZHT6MiFbCXU9c1oDRDK2VZdVkeFRmajZbovZuRZnVzWjmyl/e+W3fKv3IZE3xF6RoPh1dJlPZ9v84vA69/5vm/CJITzKC6EtRXKpT9LLrLXTWS3RtjKs7wykIbhW1nhh2x4feHxQHJRAtCxKO+xhi3BXM3jkCA8twTDJiCyCNUBGSRmbFBKzGAw5B6oJLryWlWco4vpZig8ymBmd83TOZ/n6Q9cl8Zozm7m447TL87gPQH8wZXTLE11VHAIysCht82k9xlik8Cjp6AYJvWBGR8dstSa0VVx2jPRlBGQ1gU01IvGaf9l7mw/MFTq7ChU79NEY3w5Kyamfej1ZoufBTqnvia18v1GltS0mKmJtr8CGMAhj1vQEg8UIWxZmjbD0VMS6nnDS75A4hZGWdT1hw4wxwpLUTLPJMW9fRhiREghLX03piji/5giFpSN82Vy1axU/b9/kA+VRSVZwLdN1ZR+DbBBevi9AbZTEl/pOpZdSZLG383ibqUDWCA3OeNbCiL6csqXGJF4ReEtHzNjhlAQFISS5GzEixWAz4vLTNMKR5LX0xKuSESavq4fF91q/QVYai3mQnOP+2TnkKGOklwLfDXFBgVE8wlXE15O4Sx1fI/tLUfnxVQu7ymBv2lEkXYFrW/omIhC23DBA7BWBsAxEhKn9Vic0O+2kJHLoTCkV2X9J4hUTqopu5A1jH5B4za8m13jv+CoPH5+nsy+RqcMZSbIRVlmiepZ6rmt0dU6wQHj5g2qa4GNRqoLtBSQdSdoRoHxJ8MSZcoND2yb2quzwyohMSiM58S0iZ8pnh66dNUC4bFuzXGImNmDmNKlXJE4xTgOeRz32hz2GJx3kgclC5j1H6zQvfhiZocckLUPyxsHmXmYxH2AdzJWWizoaWiJUlmC0rSzMBBB5Y9T7vSskXjN0Icdpl+OkwzANGacBqZNM0gDrJdPEEFvFLNHM4mytJNb4VOKdgDhLcxV5GZHmbi7NusqEE8gZ6AjWZmAmnvAkyxcUBRkXSGRkKy9WHOpc+L9UAsQ0RuSxPdAod3ujcDoPMmYec+Zp70om03X++dHXQXu88hkBadYgIVKBcKBikUFYl3eFpRAAToNxWU9Q0eEx/15hdT3vKskDpOpljPzG3EjnpiUzdkVyZi7v6VWtNLbQ0l4Tl0IditBTpg6iXCgiT+tMkLYltpV1jTkjqo6wNNt0RnB+EvOBZlIQ6RFzAtm4L+8vEmkWJTqTQeYs4Ekr9EgtuWNUA9C5QONCVTJOLxCf99I3uF8vY+XRmCQrenop0JPqHeOsb7D+7HJi5oOSZfcW9yz0GeWNWPXhtMR3Da6tG33CRctO/ZqoGXS98GKBrNLZK0fxjpEU2dtfzkOauf76O0Ll+8P5VEX3mEzm3kdoZuHLa8LlKTB8gwnVSxqLqlLfI4CIqxa54j2jwihmrbJJWv64bLysYFLnrCsaE+uRV/78fBpbWo+a2YVaXvMmUTZjzp94UXKHZq+BiNO8A2TFGx9xAtbi4xgfJ2jyFFjZ2aGyQme90aG4Xt9Yeb326kwaVm+cz9ca6q/VqygrasgoQU6TRl5xoWUnf7VlmUTW03ZiGiPipFJlu1z3/HSKj2a4OAFn+X/tswwRQ2UAxQAAAABJRU5ErkJggg==;" vertex="1" parent="1">
          <mxGeometry x="80" y="280" width="64" height="64" as="geometry" />
        </mxCell>
        <mxCell id="NisTQTtNLf6xnu39tymK-3" value="" style="shape=image;verticalLabelPosition=bottom;labelBackgroundColor=#ffffff;verticalAlign=top;aspect=fixed;imageAspect=0;image=data:image/png,iVBORw0KGgoAAAANSUhEUgAAAEAAAABACAYAAACqaXHeAAAAOXRFWHRTb2Z0d2FyZQBNYXRwbG90bGliIHZlcnNpb24zLjMuMiwgaHR0cHM6Ly9tYXRwbG90bGliLm9yZy8vihELAAAACXBIWXMAAC4jAAAuIwF4pT92AAAdK0lEQVR4nH2b6a4l13Xff3uo4cx36r49k+xmcxZFUdQQyTQCwRmQKIbgxM6XBAjgBMjwCnkB20AeIN/yCAECBHAQJFYkx5IlWxRJkWqKzWYPt+98z7lnqmEP+bCr6tS53Up9uefWsGuvea3/WiXe//6feDzhEIAPf70U4ZQLF+v/60NYX11fnfOyWqM5cWFdwCsR1vSt36xfr9/b7MH6Zt2L57wUzb3Nff7CPvgt5wDdbBIQFoRxYROqTS3PbLQm/hmiLxztey4yEcDGstm0cB7hWu+q965EWGN9ZbxcF8D6Q6wxqH2ufU0LB3gfXqLAK1lt5uKCvtnMipgLC7cOp0W1xooYYf3aui5qbbb+KXlmMS9XhNQMEsaDCHuumdfiDV62GLTOz7VDN884AgNqlVIX7vSBoKBmIjDkolq2OC3NykS8bPGqXre+5znrXDyk8RUxviKs0tDnmQArhjTMbsmq+b9mgE0E0jxnAy0t8PXLVHj6IsFr3K9+CkujNSAaRrQlaRPxjKa1bb+t4rV9r19f/a01p37mohnVhK80s2JA2NjzOX/Rdmvn1WzGPt++Vxq0OudVeLksV5KpteSidFaMXT/f/Gwxo2bAM84Yscas1d5Wa3glggkI53FarG+qpZb1NeFa11sbW/PMF87VG3I6SEeWQZ1dJJ5514qY5zCmfV9bpdeefT4T6nUvOk3hPFqWHlk6hBZ4/dttsH5gbaO2Cme1asvV/TVTvRTNJoVb3/xFzQpa1fIdap0hF4kQ9vkSbgt0/T3PhlRtOhKRiOZFsmxJ5aJ3vXC4qK01YTMuEtgLHttpgWxFgLb02xrWMIlAvHB+pVWNANpmJda0LhC40oQ6WgjqKLeKYDVdWhWueqh1Ezyrhv+fWF9rgywc8diizzPkeAZ5AVrj0xiSGBdrXKopR3FgVLxydtLW77qQCzwnQrSF4qJ1+68Z0miLoHHGjQ9rPa/reNq+4RmCq99tD9rOxGTh0HODyi0ukszuDDl5YxPz5pwrW+ccTvr4z/rs/tQy+GAf/ckEsbWJ2RkAYLsRiJAU2VQGjTGBMTYO79RZeLGNZUOczjzRzCILh9cCp4JmtTXKJgIQVSgVazTK0qNNT61zTokmRl9Mg9dCmQSVOdLjBcI4sis9jt/ucv6KY/vuCT+49mt+d/BrNuSCfTvip3dv86P37vCrB7sM7t2gc+QZPMyJH5+hxhI3SElOptgn+/iyQHa7iG4HoTXee8jzsIdeD99J8L0Ul2hsN8LFgWleCcqBpOwJhIX01BAvLDYJqtA2p0a27//jP/E14TYOnGpz65nwVnE/mlmi0wzbizh8r8vimwt+/9Vf8vdGHzOQS6auw4ntA5CKksxHTG0KQOYjUlGycAkP8y0UjkQaHiy2+XK6SWFCfiaEpzSKRRZjjUJpS6+Ts9ldspksuJJO2Y5nXI3GpLJkbLucmR572QY/fHCH+K/7bHxu0QsbHHzLhdS+QqcHC/KdDgDR3DdxvU1sWwOk8ailIz5e4BLN0btdzPsT/uD2x7zdfcSDYofMRzgvmdoUh2CklkjhWNiEiQ3v2o3O6cqcb/c/Z+4SlHC83X2E3ZFkLmLqUhY2ofSKkV6QihKLROGwSB7m28xNQiIMB+WI3GkSaUiEwXlBsYjozTx6YVGFwwoVUn4dnK4kmIp2sUYaT9FVa2FoTU0qU1C5JzovwMPi1oCn31Vsf/WAf3TlM17p7FN6RSRs2KgokcKRuwgpHJGwKOEwLrjog3IIwJaek7mIhYsBME42hCZVivq02GieS6QhkpbTosekTJnbmJ4qGOolA5VxUA751dkuycOE/lODyh02VVX4rKMdTTWqpy926D/KSI8d5UCvQpRfVWF1/FS5pRzGnL4WEf/eMf/q1ge80XkSnI2XTF1K6RWlD8zMXYT1EuclJRAJy1BnjPQCCNfrI5UlEk++Kk9YuJi5SXBe4AiV21AvyZ0mkpaeLuipgpvpKbvRhL1ik58cvcjxh5fZvO/Rc7tWSdb1RH3ouUUvdiU6S4imBgRNHuBVUBW9dCQnGSIvyS/3OHgvYuf9p/z7F/83AHMX1LT+GwmL85JZJdXMRSjh2FELlHB0ZU4kLJmP2IiCau+bEU+LDbqyYKSXZBVjLBI0FE5TOkVP5/R1TuYiYgy5DcwaqQVj2+XP919n/6+ucvkjj146yqGuUu+Lzjz8H01L9PmrBtBsfWJRmcOmqzCjqvAWQtsGh+/BO9+6x/cv/ZKBWvKo2CaVJQOZBaKqjSvpyHxEIsuG2xPbpfQK6yUT2+Hz2Q4LE/POxmN2ohldWZDKkkSWWC+D7aslaRTWyFraMoqWTG1KVxbcSQ/ZUAv+2+lX+fLzy+ze83SOCkxHQbTuw7wSqNwRnRu8FuTbCZrUYjqV163s3+mQMYnMoWYFxXbKyVcEb33jPv/u2v9iQy55UO5wavoo4ZirlfRzF5G5KJhBpdptRqSyZEsHgiNh2Y0mDYGRsGyoBQOZMXUprtLd0itmNuHcdHAEB9bTOVt6Tk/m/HR+m//z+cuMfqVJz8rGzlXuGsDFV5libdqL3ZjJSxKNFciSJhmqM6WaWwDTWzG9r5zyg92/5YqaMa7UvbZT26pCVJUp5U43G+7Igr7Om3vqcJh7zcNim5FaclL2ODcdejqncJrcahJlGOiMtGLgpXjavHNLz0lkMJ8fHdxGfZHSPQpZrYskLgom7HSgTeUOlXtMVzJ5KWLyuqV/4wxNKal80lrRIo0DAYtbPc7e9PzLFz7kH3Tvc1X3WbiCV6PHTNJHTF1E5jVj1238gEU26g6wUdl/LeXaZ9QMS0XJq+keCk/mI+YuYWpTJrZL5iJcKy0d6QU7IjDi/vIS/+PRq2SfbLD1qSeaO2zSKsA8qMKjMkt8luMSzfkLKeOvFXzvrU95s7+HTvc1gychjW1Xbu10sfdI8l9+8W1+eP1lBlHOtEyQwgfnls652zvkvd593kn26AqwQO4hEZAKgUIw945jGzH3wZYzHzF1nYZJv86u8Tfnt5iVCTe6Y64l40abSqfoq5xr8Rk3oxOOzJAfnr/K/7z/CvLjPlufOzonNmAOkWzUXRWuokngYsXiSsz5HXj5pQNudM4ovUK8/R/+k9+8l+O1bOCqurgRDoRxjQNpaob6nJbgPS6WmI7Exqzl214J3AVorQFDrA95xTyc0EuLTRSHX4sY/u4BP7jxS3ajCXOXMKtMpq8ychfx54evc+/Dm4zuSfp7Fr10oW5IVgBreFdI5qQJVaXpSIq+pOwHOlTu0aMHJXphMF2Ni1RV8PhVwlCdaxyJB1mGAsgmAqeDBKUJxNQpZrusrfP0+vn1EheSowVmmHD8VoT85ph/cv0jbsSnAPRkTk+G0PdFfomfHL3Ik19c5fIvPfHU4KXAdFY+aK0arOqapn7x0Dm1dI8DfSYVaGE95TCuwIeW2jQb9E1lRlUqu0jgItVw2kWBOBurVcEkqhK3tbEGIFWr9aNJjhkkHH8lhe+O+eNX/pK7yT5j22siy5EZ8OH0Bj/68jb8psfWryGZOGwsGmdd71mWvuk3tNP52qyDMKvy3YBWucP0VAgXgNPrsFeD6rBSrRWYASBQhcfXDrSGEWqAogJG1hAaAdHckRwsQEue/N0e8bdP+bd3f8w76ZdNsaRwnNg+Px2/xF/95iW6v0rpPfV0Tgwydzit0Zlt7YVWsbPCAIRtm8QKyBHOo4uRXiOq/YBXK7SnzYBa6r/tULlbqX2dilYmBDTZpVzknHzrEvZrU37/xQ/ZUAvGrkvmYn6T7/J/T2/zwec3GX4Y88InJeneafA/QuC1RM/jxjeZnqYYSISriPPiWSi8KfNX/kHL0q9hAe3ceQ0gaXHXy4DuBkCkPteCqKoXede6roINRueG5CjE3b2/fxn7vTH//PYHvJ7usW9GZC7i2Az4i+O73NvbJX4aoZae2VXN9MYmsoRkGrI5lYdETZ2eE2U53V4XH2lcP6HcSLHJKh+oy/yQJ4gVYvT+9//E10jPOja3Dk21sfq6WGqY1jCspSF6HU9QuUMvLXpWUg5jnn47YfP9ff7w5t9wN9nnUbHNqek3SU/pVZNB1tllXVpPbIe9bIOljcis5ul8yN6X2yT7Ef3Hnv6eIT4tkIXBK4nXEpcobKJWQKv1uEiga6LrDbfVo91saBPYdixBg1ba0TBRBObIsqrJl8Fjz2512f87gle+/oA/vv4jjsyAIzNkYrvkXnOS99DSVXV/D4VjpJdNBQmQCMOleMpIL+mrDLbh8OqQiekwNwn3p9t89sUunQe9wJAnBXphcErgVUCPqLLEVe3ZknyTDrc9KDXCG/pctTrJ0uEi2WRgIWoE9QdITnLULCe7NuDg6xHqvTH/5uW/5r3ufVJRMnUpWSXhmamyQ8LDT5YbOC+42T1jpJZNPTC3MWd5Fy0tgyino0pyqxtQ5NXRIb1XCr7Y2eL46oBilLB5TxJNCpxVKzRo4VcMaHt+r551cA0Y6kICE+4Dq2SrM1M5UuPRhUVmFmkcyxsDDt+NuPy7e/zhjZ/zYnzEkRmyV2426j7SC15Ijpm7hIf5NsZJ7vSOmvfnXmORaGnZknO2ojlaOnKnAzKkDIkySDxaWnbTKf3LObOtU+5dvsTBYMDOR4LktEQoh48lLpahNbaSepXE1CGkjuN1p6fdL2z1+dqHNJ74LEdmJWaYcvxmn9N3HK+9+YA/uvozLulzprbDvhkxsR0knp1oSukVP5u+xNJGSOGJpEU71wAlqSxJhGFGgkWSO01uIrS0OC/IrW5qhrJUZFYjhed2/5jddMqP5UscxkOu/MSTHmUUo3jVGltJfh1/X3n4mlDRxNG2c3RaoAqHLEFlFjUvyK/02f9mAu9N+Nd3f8a73Qec2D4fLW/yKNvi58c36EYlu50pR/GAns5JZMnrvb0m87PIJg2OKmn0VY4SjonpcFAOSQho0bRMmBQderrgWncCpBROMTcJl+Ip7157zF/Ob3N2lrI7LognBflWgvid3/9Tf7Ef8Lxm6fPuaUtf5mGwQi8s5UBz+G5E+s0TvnP1AQCPFxuM8w6pLhnGGa5KCjbjJQDOC6TwDfxVOkVRFRIDnTOIMoxTzG3MVjRnqLOgBU6zdDGxNBinWNqIqUnIbMSj8QaLLKbXyRmmOYsy4viLLXZ/LBh9OsX24xAFpFnHyi72AJ93tPt5AC6R6IVFWMfsusa8OeefvfgLvtr9kv1yo8HyLBJTEXZadCvJG6YmbSCuniq41JkyUFnzvtIrDosBp0WXpYrBrDDFWBoUjrlLcAjiKgff6i3QyhFrw0ay5O7oiM+ikr3ZVXTWJz3K0XWlVEv2Ymfoeb3BOm+ou75NgePBJYrljuCFy6e8mj7ltj7ltj7lzeQJFkHpNSe2z9SlRMLSkzmX1DmZj3hUbvNFfonHy00+PL/GrEwonSJRhq1kQUeVJCpggTWzNqIQHrV09HQetIAI5wW7nSm7nSnGy4Yp3aig3LCUPUnvYRkywTClIZ6dCvktRx0xZOGRFc7ulcD0FMJ4Nj53HJ/f5D9u/wtc4tEzQTSnGWdBgEnDiIyLPabvcaOSze0Zb+wccLd3yKCfrUk+dxFDvSSSlpkJ4XCol1gkhdMMZEZSa4KNWZi4MaG4QpCHeonrCH4zysm2ehSbaXCCTUO0NSRVd1KfN1/TZIXxCnQMfX+B7Umk8Yy+KNn6NIQMF8mmRJalw4uAJQjjAjOrvqBXQ77obfDRlTdYXPfwwoK3bzzhhe4piSw5yIcsbRTgcJ03fsA41ZhQ7nRDeG41mdEo4SmcQgvHIMoYDZYser3gs9ozO/VRl8Quak8crEzFxbLVRQ4PrwgMv20aGp3P0R+cqmoDF7o10oJeuJCjK8HgiWX0wJN/2OHjO6/wi1eXvHVjj1eHBxgnOciHTMqUT4tdrnbP6aiS8zJEi/MybXKBSFqi2LKTzhlGGRLPtEzJTUiJ9dy0wqCoKrxI4Z7r8WnMpC6dn50hfJ66sFYTAGEmya6cqBdgOnKtbhfOk44t+mNP9jTlkxdu88ndXb7zwhfc6R0xMR1mZcJZ3mUqLVJ4dpI5kbR0VMgdTqVlYULHqe4rSKdJtMXaqhxuQ1jtqY6m4PErj18Tv0qPqyqrrNPEVZ0QAIcVg1bM4gLTKpSoyjMuDkDqpWPwyNE5lozHfX4W32R0a8mmXvDK8JAHs20mReg3zsqEs6yDsQqtAlO6UYlDkNmqdygNizwiPfWoeYG+OEvTqHUL7WkXSDVCVBPjdGiVt1PlurK8OJHVPtr4Q31vox3VewOqEv5XmWPjPhx3N/ivZ+9w7dopr20ccqM7JndBkZc2YitZEElLboMvMK7KCvE4BOOiw+KoRy8Dl2i0yoPNhiEDWRHjVwBCVfdf3Hgbc7so2Yst9vqotetiaK27zu00u9GSCtMzHUk0d2x9AsdxhLsqmJqEjioxXiLxnJcphQ1w/KyIMVax0VnS0wWFU4yLDjOTIEqBi8Jghm64LdbtGla1fu3c6hq6Pbkh/AoIkcaHKY94hcR6JZ5Bj9YHmX47slQPadT1u8otMZAeKybzDq9tHvJ4scG0TOhFRagZlCFWBiUc0yIhN5rSKpR0HCwHPD7ZIDlSJJOQF1SDkqvStw12BK9fhbqqTih7krIjiJa+GmQCvCc5t8QnGbIwTV7hYo3tRZTDqIkaTouKeWJtCqV5T6uBWf/vVTAzV4Rr8bln+rTHz9RN7mydAHCep1zuTrnZOSN3EVo4+lFOXDlFgE/Hlyn3u2wcelThsYlEDz7Yx2vVjJwAVY8gYP6ysNhuRL4ZBRhcrZgTn1ui8xJhHS5WzG73md5UlH2QJaQnnt6BJT4rGm0w/QjTkQ2BFzWgPeLanvqszULPSlQe2u/9NOdSOmNaJjw63GQ/HnC+kyKF5yzrkCjL5e6UqUn4zekOZ49HDB9Ihg8DQ2wq0efvXiU9zCsVdoi8DKrejVle6TC9rlheFnjtiWaC9NiTnjk6+xl6smR5c8jBN2LKNxa8uLvHO8NDhnrJwsU8mG3z8ZOrqM+6DB54+nsleh660aZTNS3r7LCl8u3SfG1GwYOPqucix/X+hJc6x0TSspmElDiWlnERiN9IloyijLOiw3TWofNE038cRmZsqojPDeI/f/o7/qAcsZdvcFp0Oc27WC85nvWYLwJCY0qFPIrpPZb0H1viqSPfUBx9TXD1nX020iWpKhlFGVvxPAw1sKrRD5YD7u3tEv26w8Znjv7jHH2eUex0sYlsGhvtEVpZ+maUTvgQBfTSUgw1Z3c1s9cKvnL3McZJtHTspiHnfzjbJDOa7c6C3XTK0kb89aNb6F/02f6VCUQbj1oU2G6Mflhss6nn3O4ccTNVLFzMzCQ8SjZ5oLc4Ph40xA8fWuKJYX4l4vQtwc7bh9zoj5HCk0jDWdHB+ICynBUdFiYmlpatZMH3X/sQ84ri4WKTj768Rv+DTbY+Lek8niEnc7xWuEEXl+pKMyQ2kQgXECdZOIQJ7a3ssmewM6evcwqnKJxmaSMSaXixf8puck4kLZ9Mr/DzB7dIP+6wec+SnJbgPeUw4uy1lMnLoD+bXWZh4gZBqfPnwmimiwR1kLD1EQweZQjjOXs15eQbhtt3DvidS583QKTzgoWJm4zscjpranSHoHAhFr813OO7X/ucwzcHfHJ+hS9PN1k+vcrgc8XwgaX3cIY6GOPLksgYsBaUAq1hY4jaicELlPAh4xMe4xQdVfJS57jpQv98fIsPP7nF6GPN6IEhHgdfVQ4izl6NWHxjwfWdMXphYsZ5h25UsNuZUjrFwXLA2axLftqhfyiIZ0H1zm9pzt/L+Prth2zGSz6bXQ4mUkm9H+X0dBFgLTxLG1E6hfOiKUlzp3mw2KZwiq1kwe1bJ1x6eYp7X5C5iNxppmXKpEw5Xg55ejakOE3R5wpZgul7ei+OeWHjDCk8b/SfkntNVxZYL/nx6R0+vH+d5FHMxr6ge+yQhaskH+abyu+e8wd3PmJuEvSldEY/ysms5izvcrTssX88Qj1O2bkHg4c55VBz+K4m/uoZ//D6F8TSMCkD/JRIw9zGzE1MZkMdPojCMIQWjk5UNsMOsvJ2vTRnbhJ6Ouc47/N4sUHhFP0oZxRldFRJR5Xc6I65O0qY3wil7aTo4Lzg9uCEa+mYkVrSlTmZj7i3uMLfHl/n4PMdRvcUnSOHzh0qdwjrKTZjxnc0069lfOfaYxQuDF691Dkm95q/OLjL46NN/FFCeiAZPHL0npaYruL4LUX09pjXdg7Jrea8TEmkaTbxMN/icjLlMB9QOkVZpZ+1Vwaa0RaABEEkLQrXELu0UVPR7STzxnwSaYhiy9JGpCrk8sZLHi83KRPFR+ev8OH960QHMd09wZVDh656EKpw6IXFdBXjO5rz1wz9YcbTRRjRG0YZuvSKD8Y3ePh0C72X0P8SBk8M0cwwux5z9HV48937vDXc46gYcFZ0KJwmloapuQIEzK6bhLK0pwrmNkisJn5WJsEhqmqIMQ/+oKsLZNVNzawOs4Aq5PTjosNp3m0QoY14ydV0wnY0J5Ul95eX+O8P32D5wSYbB4Jo5pHWNXWIXjqi8xKXKMa3I87fKnjh1jGpLpv3QYr+0fEd7j/dofNpyugLRzIO7SvTj5jelAxvn3Kre8bCxcHLO9VIMrMRxsmmDK2xuVradQZWDzwOooDy1E4zUYbDrM/xsk+kQv1+lnc5yXoNNL7bCeMwM5Pw2ewyvzQRe+Mh2cMBm78SXD60TUvcdKrkzYRulI8kk9sxk7dKXr+zx9XOeQOYFFbjpEU//uFNukvo7TmSMxMytkhiuhLT8wzjkp7OeSk54rXOUya2y2Ex4Gk2YlYmTPKU3F5m3OmwES/pyIKBzoilblDapY1C0eJUaGzEc4yT9HXObnyOG4aeX+lDGE6EIfdhNtAi+fX5Lp88uYJ/mpIeSnr7no2lR9gw+FRniSoPGhCGNyTjOzHjr5a8/PI+17sT5iZmbz5iskxZZDHdtFg1R9e6QT4sZjqSfBRGSrIdT36j5OUXDvjG1pfcSk6wSI7LAZ/NL5NZTSwthVOkyrARLauuTQAkZAuW6ukC42VQb2mQwjPUS5Yubiq2x5MRZ8cDosOI9EgQTzyqCCPysqyrzVX1WfcmnBbE56EPePCNhPjbp3zvxj1ud47IXcRx2WdsuhznPQqrEd/9wZ/6NvFerHJwnTlkvj4jtNxWnL8oWd4q2bk+4Vu7X3IpDhB25iL28g0g2PFR3qewilgFX5CqkoHOmZqEoqrXS6cYLzsYK7FekC1jynFCcqRIjwXpiSNaBIKbL1TK1TxjU8DV+5fB/oVxzK7HTO5CsW0hcajE0umGafONdMluOkV8+4/+zEu7QnDaDdHVN4SimfioOe+0wHQE+UhyfteR3pzy+uUDfm/7kwbPr0flpi7labHBcd5vpG2RTMoOD2ebPD7ZoDhNSZ9q0pNqeCnzxFOHysLHECaVa2V3Q3A1ItOG6ZqPvCq4XuXVd1HO45TAxZKyJ5ldV4jv/NM/8+3hpbUvQqCBp2pu1ws7FWaA6vmcutpb7CiKkaDsQzn0mIFF9AxKO2wZFlBR+C3OYuIzSXIG0dTTOQ3jui6WFSK0jjvWleLFdv3zPo8Lz9CANnXXum3mANqLZ8dGnvdNripcS+3CXFD7npC3e3oHhs7pSlXDqJ0AVGCWEthEV5LJm689TE+Fa5Wk1wYw6uk0s/pktj3n08YQ2p/41Yh1G4Cptajeu9aZW4Op6k/RbCzXavMa37vYEZJlhRvadTsNmwpTmggo+5pyqMMGKyg8V4Coxm0aaG01iSJqULYFzDaSbUNwFWxnE9mofP1xRI03tKfI2jikXtnOasF6xKwt4fZXnqoapGrCT6M5q5c1vYFKM+pn25/ltUdwal/TtOZb2tdoZ92sae+p1uoqcgWtAWHF6vPdZnJstXCYJPX8PylR1frKyB3TAAAAAElFTkSuQmCC;" vertex="1" parent="1">
          <mxGeometry x="80" y="360" width="64" height="64" as="geometry" />
        </mxCell>
        <mxCell id="NisTQTtNLf6xnu39tymK-4" value="" style="shape=image;verticalLabelPosition=bottom;labelBackgroundColor=#ffffff;verticalAlign=top;aspect=fixed;imageAspect=0;image=data:image/png,iVBORw0KGgoAAAANSUhEUgAAADoAAAA6CAYAAADhu0ooAAAAOXRFWHRTb2Z0d2FyZQBNYXRwbG90bGliIHZlcnNpb24zLjMuMiwgaHR0cHM6Ly9tYXRwbG90bGliLm9yZy8vihELAAAACXBIWXMAAC4jAAAuIwF4pT92AAAUTUlEQVR4nJWaWa8sR3Lff5GZtXT32RfejXdI3hmuojQcjw2MNLINPwzkJ9mAXmTAT/4wfvMXEmDAtqCxbGmk4Rjk0Bya2+Vdz366u7q2zPBDVndX9+lzh0qg0X1OZVXFPyLyH0um/Og//xcNFtSycYiCK4T8BAangdHziuRkCmeXMCtR75HhEL1zSPHmDuOHlslDaO/XDHdKtgclO2mFiFK2CQDWBIwosyZhWqWMJwPCeUr+0pKMIZkobqbYBuay+VSo9oR2BO1QCQ7Uak/Q7gOodIIL0E1xKpsBAtga3ETIz5WtJ57B8wL7/AK9HhNmJZI4zPEh9ZtHXP4w5+pt4M2C9+6/4Gf7X3EnuWLbzhiZCoBLPwIgkRaAsR9w5Yd8Wx3w5eSIL06OuD4Zkp5b0ktDMlFMA6YF8eAKRVRQERgq3kZwajpgrxiOHtD5XBVwM0gvhcGpMnrekD++gpdn+OtJnJtnyL3XGL9/yPl7juL9in/+o6/5d8e/5qPsO+5b5TwEnvgtvq6PuPIjTtstAEyn5iKkzHzCZTMgqLAzLGn3LLVNaYcWOxPcTLAlmLrzOonAg4/yrliPzoJ943WWdH2T90FmZ8LoeWD0tCJ5dom+OCVMi2jFvV043OPqwwNOPhIGH1zwnx79I3++82v+IEmZqfBNC79r7vLp7AGfTe9wWQ85nw3p690HQ1DBB6H1lqa1BBUIAhqBtSOlGQEGCNHLUIFAnDe3ztxNV0AuDej65l2APBe2ngVGj2ckT88JJ2eEssLkGeb4kPbOHlfvjDj9CB7++Cn/4fW/499v/Y7X7IhJKPm0sfyyeJt/uP4Bn1+8xsn5NmHqMIVd1fr8W+J6UxctI61gasH4bnoCPg+oU3wQpBZsLUjo7tXuYfNnagQjuvx7sUZFo3ukl50lH89IHp8STs8IdYPdGsGdI8qH+4wfply8D3c/fMF/fP1/8YvRF7xmtyhCzcd1yl+N/5Bfnj7i29N96qsMM7WYnob72p4LIkGQJgonjeAKwbSd5+WKWsG7qAy1iibdfC9rD948lhYN4KbdmnxWkTw9x5+conWN3d2BB3cp3thhct9x/UMYvHfJL+59xk/zb7hnBzTq+W0DfzX+Q/7rs3d5drKLXqeYejPb9bmjr2xCB1bBTeN3286fYQiJRjdWwICica3Cyjpd4SYBt6DfQsjPlNHTmuTJJeHFSQS5t4f+4C7Tt7YZP3CUx+Bfn/Hh8XM+HHzH667FkPBtW/DXxYf88vRRBHmZIs0S5II4euDWiVIFRBQVITgwHtxUcTMQLzRB8Hnn4n1FGTq31+X69UulATgB7EzIz2DrqSd/co0+e0koS+zODvrgDtO3trl+6Ji9ptSvtTw4vuInu9/yQfqcXZMz0YqP67v87eUjvjnZJ4wTzNwK89g2/93T+o3Q1q1ZtRASpR0IySSCJcQHSBB8vmqtIPG6DAOqQGtQA9KwAO6ChbSC/CKQv5zByTmhKDB5DnePmb2xzfi+ozxW2i3Fbje8uXPOB/kT7loIBL5phb+fvsXnZ8c0VxmmNtwYphcK+ibtfYuCKgiKughIBVyp2EpBDGqFkIC6ngIVpHtOkrf4xhIqiwbTrWFwyVjIT6LLuqfn+MsrEIM5OqR6sMvknqM6jDSPQJ433MuvODRTAF74iv9TvcGvL1/n8nwLM+ulWLL8vhHv5izZ+47kuTS5z4lgx2ArJZ0o9Y6gBoJbKgcBAqg3pKnH5A2lS2lIUI2k5ZIpDM4D6Ysx4eISbVvs3i7+7j7TeynlodCMohAhDewOZ9xLrxiahqkGnrYDfju7z+PLPZi6VTadg10wv6z5bPe7n8nNDW4gJFDvCMnEID4gPqaGEuYW1eiq88d5oW0N28MGO6wYB4NvDbSCy0+V4bMZvDwjTKeIc8jBPuWdAbMjQ7Olyzx44Lk3uuZ+ckEunkKFb9sDvpgeM74aYErZvO5WMC8JYh3kypBoNT8QfMoiI3IzsKXQbCvMc10BNfF321qc9WxlMe28DhA0wWXXAXtRoNMCjMUcHlA/2Gdy31EdgB8sJUnyltfyCXu2wKJchpTv6kOeTnbRmVsFeUsO3Q/ir0pPY/4KPlNCrAWwdcDNhGQq1PvgE11ZHiiE1uCDIbMtB6OCNhgmtcVkFw0yKVDVmBQc7VPcjS7bDnvpFZDlDXuuIJGWUi1nfsS31QGn4xGmMEtW3QSyDzD0AAdZftbmzNNAn8V1KR6SIpCMFVNJJKC1d2hrmJYpALvpjKOtKcmwwSXnBTruEvXtLeqjIbPDzmXNUuWikLqWoa1JxOMRCs0YNzl1ldwIHTdN2ZOnH0PXA2xP6Dk3+QG0meAKkDau02RsaEeC2OWz52RWlSlNsAxdgzMTyj2Hk6JCVTGDHN3bpngtpToQ2mFYiQQYGCQtQ1OT4gkqXPuccZvhS4uRpbwLscMGsP3ocptSemABfAZqBNMqtvJgoN4Wml3prkWFiYle4UvLtE4JA2HbVeznM4yUdZRhMKDdyal2De1Qb6yfkAV2spItW2IkUKrjyo+4qIZIaXvhQ5cGuo2YVgrk5X0bXV+UkHaEGBRTeVzhSceKLSQWAE0sBKQRaAVqw+VkwKTNcMZzkBUY2hZJE3R7RHWYUR1IJCBlVdt5vGHPTsnnrhtSJnWK1Gt+uWm8yrVfVf1D7CZ07i5twFSeZNalhqErCLwgvivSa0M1ybiuctpgGdgGgwiS54TtnHrb0A7oiKGXu0lk3IN0yo4pySXWT41aWm/nio8v7BHJjfFKN5Vb58xbJqYNSNliiwZXBNyMm15DJC0qQxMMRpS9pMCRpeggoz4cUB4amp1wU8ECg0HNYTJl28xIUDyGwqdUrX01CdET5raKqr9O1kNUr3iWVpG6gUawZY4tXSTMlWqhc57a0HhLYjy7bobTQYbfzql3LPUO+EFA2v4iAoyylVfsuoJcWgJQhIzrdkA5S78fyE1/a4+UWJV3zrjzFE9NJCREOuC6CD/i9cZ7xEPVOCrvMChOrSWkljaLJZCowCJd1U4AZZg0i7AyDgkv221eVls0syQW1XPt//4a+IaFdb0GkJjcQ7wmGtdpSA2axGw+OIPa7t4NKaQo1I2jUUNiWpxmFp9b2jxSNfP2xDyGdiSSGI8l0KilJOHcb3FVDaDcUKn0Zd5Qc75SGZtCqkBIBJ8aNLMQIDhZKmidC7vnN7WjaFOqkOAwhpAY1MUaULygRhFkJWEwncSNOjxCFRJmbbJ0876gvTDyfQy8DnJTjI2lmaDWIF2AnkelGw2xTgZfWcZ1TuFTHCEgQTuaJlrUSmxR9MC2wVBqQqkJHqHRrmOnspoorCP7p1iwn3GuVT8hiVZVZ5buGeJaDI5lTdt/biPUwdKoxRFuute8WaW9xLvyjsJnlBoz7EYtfl4s35bMz0Hekjjc6PWsXe8/R03XtTcdGXlFfEwUSMPixmUFGPNnVSERv9ruXBF0TmQ+Wqz2liKklF0p0QQb24ybgPwepl38vC1P6BPbWpYViwHFzIH6m3LPJ0oQggpGFIczBCuLsmiRlvXfq7HZXAVHqQmmI6X+9VvH9wS9MjZ4WB8kXpEwB3s7R6go1gRy07x672Xxkt4crwbPvMNuNq/JTY/pW2QD+JWKpv/M3npc1rEauaRbYhtHV4g4E6LrLpir7yqbXgiRfADPHOw6ms3vRBZcsVairSphHexKwtSCaRXTBlYIdF7TLibOSUPBKpltyUwTWXcRnfvzNgwjipUQn0HAzAHcgq8P5pVTvkcMigm7Qht7R4SuwuqYd1E0dMIrgmSeoasZmjom9be+eK7pLjAHlYXregw+yMY1vTJ63rIIYbp27XuM+dZhTP3mGRtgVt26P1zasu0qRqbCqTOomW/IdCbfEC58MDQaY9J8jS6ur4eRNUXdqoA+2N9DUtIREKELJaZre1pdyrDmwWnqGdgGS8D53MWm8JxEbxFuVieM25xxyLEo7Zx1XyXg+prvCdEnp01p4bo7x2Rm+U8VUCubd+o75RkTlVKrxfUnS2AJeG2UZcJZNeIiG5GZlqabqEZvZ77upevN+XUgm3ihP3c1IRHUGNQZVo4k9Fx3vp1oRTESCBhMcHGf0bTxM3+x9G9U8IXjusq5bIdUwRFUcDagST9vewXeNYbtK+KfNERiitoZaF69zAt+08b2SkiVYVaz40pyaTAhNYtWoi3lJgPOAdeGsnULS2a2JbUe1na2FvJ8nwwIvhcrL4aZ+3uPBCUmDdIBFB934TQNbKcVB27K0FSxlDSNxh5MweZMg5hT1q2l1dieGJiarbTC5O1SIb2hfYK4pfTapIAbrq1gmrgpbJoYQ2McpQsty16RaWO8JYDknr1sxq4t2DElrh0Y3CzGJltG829e4MKsSpm2KY1ajChDV+NST3ubBTZlQRsAL1H2yLi3Rt1McLOAnbXIrAYRTO174Fbpth0pu3sF72694IfpSw5sgWlzIbjosrZWbCmrmUZv1JVj0mRUwXVAG7KsudkhWAfbgZh/VtLBTXPn17qQ56aQTgJ2XCGTAqnq2CgLEeSyLo3Vix8FHuxe8VZ2wrGdkhAw1a7QjCJYApiqyzTW0kBRCKWlaFLaYEkkxqg8aZebPT0hN2Y7G4L6rXN7E2wJduaRokTrGlofQ40sqxc1sffb7ChbdyZ8tPcdH2RPOLaBgODaEYRrwVaBpAB/LfgBeOnze2eF2nA2HfJ8sA1AFaILq9PV3m7fKmvYbgPV3xNeKkUWB6lc0UJZQdPCQNDExtaPRJDBETebt1ve2L/g/cFT7toKg3AWBhifxz1In3buW+qSfddcSRpDMcm4qIZMfez+5a5F8rhN0HfNVxHNK4zXSxmjDK4QsuuAva7QMm6fkCbUOwn1jhASJaSgDpo9z/GdK3528BX/LHvMHZsRgOftLsZnSrNF3IrIBSQew5GWG9JKgFA6rsucmU+wogyTmnRYLw9QvMJiS0utfVZ21GTRCAdwBSSTgJQVaEDyHL87otqP7dnYYlHabc/weMqPj57yx6Pf8dAZDIYTb/iivItRE7fP22HMikwTDx3aSlbXagdUasPVJOeyGtAES24bhnkHdI2UbpCOrl3cYPaVMs1HWZJJi1QNiEGGOe1eRrlvaLYDIY1ua7YaHu5f8tPtr3k7uWIgKVeh5JP6Lr8ZP8CpVUIGbYj7jel1rPNsCT6FIBK3BOZytUJTpJwVI3LbxoVuA6QBrcz6/tCG/FdWruta/Ok3rd1EyC8D7rpEZ7N4PUtpthzNFjErC4KOWg73p/x4/wkf5d9yx2YAfNc6Ppm9zjfX+5h548lnSjuI23FIBGqauVV7wgWgila9qnOCCqn1uLyNWdJtoeOGyW7/l0p8TzKF7NJjrgu0qsEadJhRbxv8ICpDh57RwYw/OnrKz7c+5/20JpOEZ77gV+Ub/OriB5yc73StFBtV2A4VNUJIZHF8NHgQ2xWy3daeNNGqp9kItiCxnnxQMxknSGOjMr7HWMl/19DamSG7VNLzEp0UMRvKc+q9nGq3kzULDPZnvHf8gj/Z/YKPspfsmi0moeT/Nrt8PH3I48s9/NQtu4AqIKZrYutyK914QUNHNNKRFRBmlqnLY+KQ1TgTkCygjekI5RXI+rFkQ9XipvGA1+hZg3txSRiPwVp0NKDaj2zb7jYM9mf86PiUP9n/kp8NvuKeHVCEmk8by/+YvMevTh9yfTbCTGyv3SlKsF0D2GjMF+cZUj9fDSAqSA2hcExtPMblrCcZNNSVgRBjzQLsojDvVTrd7/Wsys6E/FwYPfMMvhsTTs/jocuDEX53QL1tqPaVweGMd45P+FeHv+Nfjz7jLWcJBL5qPX83e4ePL1/n5HILmdnYJFsCjS9XA97O42jUeHC6MIT4mJBKK0hl8MYxlQznPBqWvnijZdJ7z8aGd4g5bXYmbD0JbH09gacvCdMpZjiEw32K14dcvynYR2M+uveEn+9/wc8HX/CjRAHDl03D384e8T8vf8iXFwc042x5cmzNuToX1ijbPLOxoAMPrWBq0zWO45nagMUreOvAx1go3YHDhXZeNbqkwE2E7EIZvfCMvp5gHj/HX10jzmH295i8fcDZB5bwBxP+7NFn/OnO5/w0e8I9mxJQvmo9f128zX+7eJdPXt5lcjrCTJfVidskx41DF3PQA48OPaE2SGXiedkA1GZpZS8k40hmIe0+lpieWV02tLozubaE/FzjWcTThuzFBF6cEi6vECOYNx8yffeIk584+PE1f/7oE/7t7m94N7ni2GaU2vJVY/ib2dv89/N3+PTlXaZnwxWQS4v2K4x163aVu3qBxmC3GsygIXhDWzho4sFCaZanpm0NyTVI0K7xFslMjUE0HlO1tZIUATdT8vMadzHDXE3R6wlaVdg7r9E+POL0vREX78HhH73kL37wj/xi9Cmvu5ZcHFeh5rNmxN8Xj/jlxSN++/IOxdkwnvReSU42uO6if9NvWHVrUwFfW9zIk2cVbdYAUFcJ7XUKGKSM2pKgJEUsll2l2Krb6vOAKrYO2GmDKZsIcDKFPIe7R/j9IZdvDLh+y1C8XfH+m8/4y3v/m385+JptIyRieNwGvmwP+ZvxO/zm6gFfnh4yOxusHmfvYdq4RpczemTZxvWnJVSkuF1PlrRsZTVswdUwp2kt3humk5TqNGHwQhicgL30pFc1pglI1SBeUWfQ1NHu5LA7QN0x1X5CcWQoj4TiYcvRw3P+zZ1v+NOdz/kX+WMSgaugnPiUX5Vv8sn0AR+f3efkYjsen52fXttQ17r+GYJXjQWLVgZVmEpONmwYpg07WcnANWSuJTUtRZvy/Hibq/tDipcZ2WlCdukwLV0XQwku7rD7TFAXD01V+0p73LB3OOEnx8/5473/x9vpcw7tlKk6HrdDvm6O+KK8wz9cPOTJ1S7XZyOktPFI+1pft2/Z/w8P0B+qpiwygQAAAABJRU5ErkJggg==;" vertex="1" parent="1">
          <mxGeometry x="441" y="200" width="58" height="58" as="geometry" />
        </mxCell>
        <mxCell id="NisTQTtNLf6xnu39tymK-5" value="" style="shape=image;verticalLabelPosition=bottom;labelBackgroundColor=#ffffff;verticalAlign=top;aspect=fixed;imageAspect=0;image=data:image/png,iVBORw0KGgoAAAANSUhEUgAAAEAAAABACAYAAACqaXHeAAAAOXRFWHRTb2Z0d2FyZQBNYXRwbG90bGliIHZlcnNpb24zLjMuMiwgaHR0cHM6Ly9tYXRwbG90bGliLm9yZy8vihELAAAACXBIWXMAAC4jAAAuIwF4pT92AAAXXklEQVR4nJ2b2ZMbR5rYf19m1oGjG33wEiXqmp2RNOPY2LAdDju8nvA/6gj/Gbbf/OAXb/jBu5qdlUYjidJQvJpsNM46MvPzQxaAAogmOc6IJguFQtZ33yk3Tz7STCy/+Jr/2zwAwBABiBjetaqY8Ut7zvP2lD8v7vBidcK8Kliuc3zj0NaAAlHSD6yCkO4p6VpAjIJRXBbIC09mA2fDNSd5zf1yzv1ixv1sxsQuKU2LRbESCfpuGAOCRbef/8uTv+ePP35A9jTHjU3JIlY89qf8r/mvySRgJD0cVfY2MqLbe61antcnXFVjntxMWC5Lwk2GXRmMF6SFPAqhUMIookVEykBWeKyNqAqqIALGRNrW4htHWznaVQZRuMlGiI38S3aPovDcGS+5P5xz4mpO3ZrC+D2Y3rY2OAF8//KS7GnO6IngrsOKP/mM/zH7V/y3x1/hTMSYBODhkm6T5bqgWeXINMPNheJamCwVtwLjFVGlGQntGOoLIZyA5JG8bBkULcZEYjREFayJiCjWRiqgXebI0uJWBgkgIb27MfBzecrj4gE6CmTDhjwP5M4johiBuMMRI/sw9wkQvh9z9h2MnzS4b9qC/7n8kv/+ly9p/2lCY0EtO/Hc/E+6diuhnMLZdWRwFcinNfZ6hTQtxIgWOf5yzOphSSgtiKJWMS5iTAJCVQgqicjRJC5GAyqgIF5wcyFbglsptgbbKtEKaoWYGZqTHD+AZamogz1NkLRVutbtvc2687Vy9oc55i8vcAHZ6tEe0w8EwNSCraCYKsMXkcFVg3u1xizX0LTgLPFsTPXBmPkjx/wTaD6suXtvxm/OX3KWrRm5mtK0ACx8seWMEWUdMpa+4Hl1wovlmFevx1SvC/IbIZsLbimYoIhPUmGrrVgSRBMBNoj3uH2Ix/a2pmdcKT4ZFaO7DXT/YbsWsjkU18rwKlA+X2Ovl8iqgyJzhDunzD8bMfvMsvjc8/DTK/793R/59eA5d92ceSx53k542kxY+oJ5R4DNaoKliY5lm6Mq5KWnOjU01hFKgz3pmNCAadkiLAEk0jOoeivSW7wUUAWNSQLeJM/uYVsL+Q0MriKDl57ixRp7PYe6AWvR0YBwPuTmV0OmXwjhb1b8h08e8/vzb/k8f0GlyUv8VF/y0/qCJ8sJyyZnWeV7r4wxSWEIgkZDDJI8R4dcdKBWCcOEvEQwTacyURCUjqlbSZYDRm6+FFUICiHiohpatUeNnq2EfAbDF5Hh85b85RJzs0zIFzlxMqK9HDL7uGD6FZRfTvn9h9/z96ffctfNWMaC75t7/GHxId/N7vBseko1LZHaYFdmx42erVFJiGKSh5AAxu+MYcwgZknvGSimFUxLItQxj7jluuzMQexUQCMOIJOANXFnSDRRN5tDeaUJ+edLzHQO3sOgJFyeUN0bsHzgmP0Ksl/P+M8ffce/Hf/AXTej0oxv6g/4h+mn/OnVXW6mQ5hnuD7ibwDZSXDcMcP4pIIbAkhMEqBWUQvBJmJISM/oMR3uM/fgK7e5kL68KLh1p/MvfeL8BvnhgPb+hPWDktVdw+IRhM/W/JsHv/DrwQseuBuCGv5UP+Afpp/yzy8esLwaYpYW077bX/dhENiqgFul2zEACF5BXWf8tMPx0BPQcwLau98Dw0GKlLQTEZXk6vKpMnwZKJ6vMNcL8B4dD/H3JywfFqzuW6oLaB60PLq84dPhKx5m11iJ/Nxe8k/zj/jm6h7LqyF2bhH/VyDfPaoKYkgcjuDWilYk26BCKHYuu+ep0z2j2whUQrIPfclSEURMMoJRU1CCgquS0Ru+jJSdwdOmQYYD/N1Tlh+WLB8Y6guoLwOjyxW/mlzxaXnFiVkzjwO+q+7zzfQe8+kQs7JIkH3L3IstVG4xVhtuGYhOCYXgVkkyJaYNJAoh33d5QiJWLLr7ISFrfPeuuP8+Z9GdDbBgGihulPJ1i52uoKqRPCdcnrD+oGR1z1Cfgx8qOgzcGS/5ePCaS7sgYnjSnvPt4h4vpmNYOGQj9n2kDXsBih4jwEYiDeAgFOlZ2yi2Scg0RohOktHsSU66VqSIKRcRQdUkd7n9OhlBE5CtCrilUFwrg5ee7OUKmS/Tj09HVPcGrO4Y6gn4gaICtgycFWsmdg3AC3/C9+u7/DC9pJ2WmHVPKXsc334+vN77U7QXm8QcQiGopHDbrUE8qNHkInvRoESS6LuIG7UwCMQ8bm2GSpIKANeq26qAW0M5VYpXFWa+RGNERkPaO0PWdxzNmRCGHVCZUpYN58WKwrRUmnHlT/l5fc50NsSszU7UegZoY2cOrfHRtaGWgZgrfiT4lWACmKDYOqmBWt0avG0MEAUNgs1TrtCG9FlC52k2kSBAUMN8VTK+VsqrFnu9RFcVkmeEyYj1nZzqXPDDzsAAsYycjdbcyReU0lLFjKfNhF8WE/w8w9UHet8jRMJf9iHmLbaAxF1fpjggSQHYSlMwNOw8wnaj7jfeYIyS5w0AbRQ02L28wQUEK5G2cWRLJZs3SNUk6zAeUt8bsL5jaCYQyh6EReAkrxnbGoBVLHjdjLhZp0BnXx9vw6oLTg4l5fA3nVrEXIkukc94xVWQrYT2BDTbbrnbKwgxCpkNyKAhRpMiTbOjgLMo81ASFo58FjCrJlmlsiCcD6kuHfWZEAa6B58tAuOsJpNAq5bXfsTLesxqUWDX5nakO+Ckd733eXP7iDSo7STAJE/ganBLxbQQiwOidS6wbRxaNgyLBgXmjSFkFrXJDRqAp9UEO3PkNw2yThzVQUFzVlCdGfzwzc2tjeQmkBkPQB0da58Ra7sLaW8jwpH7h/j27WG/ehRKCLkkPx7A1iluEZ/yBtn8BUFaIVaWEA2FDZyWNYOTmlACnRQ4gJu2xK3BrD3ECHmGnwyoLuxO9PuRlIEsCxTWY1FaddTRsWozaM1eLq4dttJDYq/GwO7eQenhKM1ilj4Yr5g2WXU/NfgRxFy26bAaEBW0MTStI6pQOM+gaGgHgmYWAUyjlut6iK0EaUNye2VOGDqasSRq6T4UmilF1jKwLUYirVpmfsCiKjCV2ZjZLRHeug5cYd8k9NfmXsyV2EV/pom4dcStUuK2qSBJkFSW84JpDPUqo/IOJ5GTosGPIBQWjGBehzHTdYmtQUJAnSWOCuozRzNJNT05gCKWaaMTV5FJICDU0dL6Lt7fSz4O5P2QzQdJUT88OLai2z0gUbF1xNWparRNppSdOrSCrhzrJsOrIbOBUCh+5MA5zEt/yrrOU7YlAnlGGDraoSGU+wzaXhSBcV4zNA2lpAqPj5YYDxDvrPyeEPwVKcHR1SU/xiumCZg64KqYKkRH3K4oSGMIweAkMnINYaC0JxbJc9xNGOBbS6aguSPmluY0oz4T2vGbwqgCrvMAQ1tju/iyiRbv7Y477xPowM4mvOfaamNMBEAEUyu20b29tpcxVZBiFESUoWuIpdIODToocFVMDlQtxNwSRhnN2NCOU0IhYR9ANVAULSPbUEryAKtQsGgLQm2xb0P+kEN98doURPSWZ9n/Lhm7fQOrJiH8xmuDELwlaCrAqlVCDjoscNtqkIA6Q8gNIRdi3tv0AOjcBZxJuj8PA679kHlTQGUPIL6FEMcI8oau3b5S7J+qw+mzpBjfKHLM5igEb/DRYCRCFgmFIwwz3KapkEpRhpgZQgGh6Lm+TRGnczHORqworVpaYOkLVnWOqXfV5Vul4Jivk4Przde3qFNCXtDMQEzSq6bb5BYCamOovMPHxKSNxG8JgNDV3CVtaOny+C4C7Cd2285RqifW0eKjodOI3oNHkDwG4Dsk5ZCg0W24noqhsElvZc/pSD/uaA1166iCY1NBUiO4gElbdBmSRN2KjQk7yiogJkHjg6EOjipmRAQfOzXqQ9oj7FGCHFsHxNnkSnIgHRsCRCuYjdGLKQZQt3vBNggDxAs+GuKmB2IhZtJJwCYp2fjODQ6bf1S2hFEBHw11TNEfgFfzhgs8FN8tIrdkiNvrI0Q4XGo7+nbM2fQGJO5CcNkC3z0bU83DSASrxAxCaXCmc9SHtmNPenWHlAAhGJpoabvceKNGB9nt7uWHCPSJ8w6puNWebPdIUrspn4fyOBKbapAzEeNiIkBhcNtusEnGJRmU7ne9sGwDiAqoCk1wWwJsVeA2jN9CjD4yxwixV1R5I9vT/QQopqbHnhT0vIuIkpuA6UrpIadnBN+xjnFh89tIanUfGuF3bX3MYL0hiYcqwi7cTZKp3R97BHzDcwhYUYxExESiTc3WZAT1IAs58tLtxiQJiF01efvYEf971OBvObKvL/uN2QNdOsgkU4NU01/c/M+uFniIvQAuue9MYoqfOglxsWtT79pFR6DeYt5dimJI1HwTw1t+fyslbv/uthxCQvJQEpRdAqSdsQZEDrZX1MWUDtsWYzQFjMrtRnCLzCFjjb4hAbGb9tgC+hYivE+O0Dcnx1TABDqvpNvipoq8kQv095IiMshaCtMmCdG0h5u4Nc4F1EG0u1LWUTw2gGlCOpIGHfaCKXmvaPYWzNmK5tG1Aarz+X0Xm/qFvGG4Nxcmi2QmGXxVwQTBtoq74xYMipYqT24h2ndgoIJvU/lr4XMyifTD6S0ib0PgbQR413NCL1jruG+T94pWt0Tcc7UK2lGrVUsIgmvBtIq562aUeUvMOle4sWuR44QQJVSWeZ0ywGXId5Na5kD+bkOw//nAet9aEjpKjFQbVCM7Cej2SF1mtsMTm0kUAI2pS2SbiDmxa8Z5k1TAdQWMLqg4CrwK1IZ1k7HyOb4bbDBGdwC87zr0629bh4TZcNnIjnG99v42PgigmZLlnqFryLo+uwlg6ogZScPdckEoNSVCkn5oajnKIVEwjcF3+TWAlYhzEc30/Qshh4T4/zQc2zbXRuQ7xE1gO08UC6XMW0auoeg4KwFsGzGZeC7y1TaJML4rNVe9SOowOPFplCWqYETJbaDIWjQ/4hYPkTxE9K9EvO8CJXZ/ql0MsJNe8cnQSRQ0iwwyz4mrGJpm5wW8prL4yNXoIOALh6t113cL/cBlHxDfuC6/NhiU3AUkewsBjiVCb2B3cH1Emmwl2EqxVcTUHoxBfJcLtLI/MEXqYmenDQ/HNzzIZ0zcCjFd4NSGpDVD0+CGPlWCbBJ906a+222DRlpbqtbh1WIkUtiAzcP7NT5vk4bbVs+2ujVk64hde8y6ReoW0+pW3/diM4EwjExO1jwoZ1y4BZkEYjDYWjFViwkYStNSlC3tieDL5FKSlTzYsI9YK7TBdmUmJbMBl4W9fPw2RLbX7+MSN5h3y9apKWrXLbQe8TElQKYHq4BapR0p5rLms7NXfD54yYVbEFXwtSVbgFlUuzpP7jx+wA75ivRQ0xOrDrA0omZYLUtu6nLrDaQrOL4Vqdvc3rE8pPeMAMQO+SogjUd8qgrHzGw7RqmalQgSxoHz0xWPBtdc2AUAN2GIrBz5IsK6wmzCWWuUmEM7FkKW0krTKOYWKRAPYeVYVAVrnyrL1kY0301tvlPEb+HyHlE2yGs3u7RQ3NKn6VQg5g4/NLRj6SpFqdjRTiLF5ZovLl7wxfAZ99wcgNd+hF0a3CqA6k4CrImEQmlHJFUoEkSmJTUaD7gkUZDaUDeONliMKGXmkYFPUvBXiLiwi9j65mGX8nYwVmlQyjQeiYpmjjDOqU9tKuNnCXk/VOS84ZPLa74cP+OBm2KIvPZjnqzPcAtJBBBJIzKQMjw1qfnoyyRKxqfxtI0UHCRYSCs0q5xVkxGiwdmAK3yyA8cM3UGofNvXhwTapMBuBW4VkDqk6G+Q0544mlNJM0vdNKkOA5PTFZ+evOLj/IqRqZnGIT/Ud/lxdkE+A7tKQxOu/87NKEpQoVUhWyQ/axtBszSUzEa86YKMyrKqcnIXUlxgFM0UbTRVlY8hdBuyt3kQAbcWilkkW3ikTsBrJ/6+mxBBIQ6UYlLx6dlrvhg+556bE9Tw0p/yeHXB68WQwXr3kr22h3ZGJORKKKAdpQjL1ruoqi+SWzVYJilQFZyLUMRdZvY+61gS1ZOgNCMI+SJil83W+IXC0g5NklhJyJuzhg8vbvjt6TM+L16QiedlOOWPy4f8+foO62lJttykkYqxByRXIdXLSsUPkz2IbhOByTbR2MTbpgVqy2pVUHuLMRFbJjU4zA5viamOIr2FhxT8ZDMlv/HIOk2waJHTnmQ0J0IoFS0UOW24ezHjd2dP+U35lDOzYhkLfqjv8v3ikulsiGy6V5si6W2AqO0IoSC26xFsTnD01AAvmLUhmIw1kOXpGEvIFG17rar3CI60d71Zbi3kUxheBbLX6zSibw1xmNGcWvwI/GlEThsuLxb89vw5vx3+wgN3w1Jzvm/u8fX8IY9fn+OnOW5ptsCodqGwkbh3pERJSMZMEZNEPfb0dC/XjikE1crgjUNEU6hZBrQVtKvWphfu9j+q7gd9SFOznVodPK8w0wW0LVqO8OOcdijUZ4pMGu5ezvnq4jl/d/Izj/JXRAw/N5f8cfkBP95csJqVmMrs9TpFJBEgvtEB3dkDsR3km0JDP+XcuK4IpjZEA62AuJhmczebHXqQ/urpxW7GL9mdfCoMXkRGT2vs1Rztplbj2Yj13Yzlh4L/sOKje1O+On/G347/wqPsFQA/tZd8vfyIb6b3uZqOkZXbN8odHtsDE2+Ux3vlr1RT7/C1SiwV8WkIqZ9+UglRLWpNelmUXQzRE/Gj3O8IZqs0Hp/fwPAqMnxakz2fIYsVOIeejlh8POTmV4bqb2p++8lTvjp9xpeDpzzIpgRNnP/H5SP+8dVDnr0+JV4XmNWbTIbeoOSWq7dwaG9sTdOYDGVKO6WRLhMTTAPoDnG36LJK1x106BovG2OnZjP0mH5bTJV8FimvA/l1g3u1SCO71hIenLP8ZMzrLy31l2v+9uNf+HfnP/JJccWlXVBpxs/NJV8vH/L16w94djVBb3LMyuz3GTvVVVXc3sHDPmsO09fuO4nd4QUBHQYolRgFXds0GK0pf9jm5C1kS7oS24EYdP+bVnFrxdZKcRPI5i12XiGrGmk9ejGhvj/m5rOc+edgfjPn949+5F+f/MTD7JpMPLNY8kN9j2+X9/mX6b2E/DTfG9ndRpvK/qhs4rDs4u5DYTiI06U7tKCNgaHH5YGYp1JTbCy6sLA22NBRsZv1Nz5Ne6ezhaS6PhsCpHkfu6iTq8szwsWY9jRn+UHO4iNh9Ynn4sMp/+nh9/zd6CeGJo3oPPNnPGnO+cPsAx7fXPD6eoRO8zSw2YN7b6XSdmcED0zUOz1WEFBFGkFx6EmLdYE8D8hIqcqcGIQQhXrlyK4t5VWaRM8XSj7zSOhmfBQwQswNfpzRnmSoEZqJpToT6nOhuh9xHyz56t4Vv5s85XfDJ2QSmIcBN2HIN6v7PF5c8PP1GatZiSxcOpN0aGyOZJxucz5YuuNmb5vR6W8kIelsVCGIIw4kDU9mnmwc0hSJiTTeMj8vmd8tWL9yFFNLNrOYsMs0U/SZBh2jS/lIM1Hai0A2qXl0ecMXZ895VF4zsWuWsWARSp7UZzyrTvnz9SWz+RB/k2Mqk0b1DuE/CMa2BPivz/8jf3x5n+WfJ1z8M3sVID1mA/a+ly6BcsQ8ox2XLMa6jSRjEcEo0hpsd+ZPuq7OrqOb9u5Pkm6NZATfWF7MxiybnP8dPmFdZ6kgu8ywM9udcRBO1kq26mA+VNkDzk++WyJPXhBv5rj/8/hj9GnJ6XfC2ber4xw/ahh6y6TafCgMYWBpxobmRPBDRyj3/buEdPAhxlSDQBPCMZfuSFznGVpwMwsLS0vBTUhnGLMFDNaQz5ViFrDrSDZvbwFsH+aN4bM/v8C/nkIMOH1aMnhmGD0PZM9v9v2dHAjM0bMtu+fUGjCGYZkRRjnNJKcdG6KTNODcucA0nSE0A9md4NicBO1iCncj2DoZSPHgaiVfBPKpx1Yes2gwm5Orb1tHYI7zVB2SouD/AZBOPA7HZm3iAAAAAElFTkSuQmCC;" vertex="1" parent="1">
          <mxGeometry x="200" y="200" width="64" height="64" as="geometry" />
        </mxCell>
        <mxCell id="NisTQTtNLf6xnu39tymK-6" value="" style="shape=image;verticalLabelPosition=bottom;labelBackgroundColor=#ffffff;verticalAlign=top;aspect=fixed;imageAspect=0;image=data:image/png,iVBORw0KGgoAAAANSUhEUgAAADoAAAA6CAYAAADhu0ooAAAAOXRFWHRTb2Z0d2FyZQBNYXRwbG90bGliIHZlcnNpb24zLjMuMiwgaHR0cHM6Ly9tYXRwbG90bGliLm9yZy8vihELAAAACXBIWXMAAC4jAAAuIwF4pT92AAAUgElEQVR4nJWaaXMkyXnff3lUVd8XgMHucJa73B1xOWtyL1EkJZGfz6/0VRwKyRGmGFKYEu2wLUVYYgTJ1ZyLOQEMMLga3V1X5uMXdXR1oWcoV0QB3V1Zmfl/7iPVJ//5rwQFKBAADaIFAEQBoMqvxW9sXgKq/VhtDlHSek+1xqrW8z82p2xMs35Xbc5Z4wDsBsjqTWntdGPXrclbe6znK8cpARFQqjW+Ati+KpDSeL5trDTwbSGcqE0ctk2FjT1XM7W52N5UexG9fiACCoW0ONqkZXOdLXjWn1U5tjVIGhzdRjwloN+G4Y+CbDxugxRNfbdBrQkhLZ1oLdcWw4pwTS5vbPgde1Rgtw3asv72CZviqAAtxf+W3t3Q0Yo1otbP2qrQBNjc0Da1anO4Jsba1ljeRqF6xc0Jb0yy7RmAL5nmFMqv55LyVblB3S1zVWu07EItwv/RS0mpo1so0F77BmUrjtUy1dprCa7mmAIx4ANBrCBGQFNzU4lac7act8lt5bcB4CYz3nLZGsAGgaWJd3Pixu+qGltuqjmXtxW4EpQVVOSwoSMIc6zxaCV4UXhRiCi8V+S5xjuDzxU+15BpVK6QUjKUl2rJkrVvkewWy221sQ0r+EeooxpUr37wloJTgUDoMVEBqBNm9KKUYZgwCmOGNqFrMqx2AOTekIkm94bEW5Z5wCKLuEojlklInARkiUUSg2QKlSuUU6UUlAx5q0XdAPput7n1qibWJcDQQ+QJuhn9XsKsv2Sns2A3WjALFuwGcyZmyVDHdHSKQXAoMrHEPiCWgFQsiQ+4dF0u8y5naZ/ztMt50uNi2WUZh2SrAIkNZIXuS0MtNpiw5bL/3yBhrW+hh66jM0jZGS64Pbjkw94Z343O2A8u2DHXDHVMX+UEyjcAahZiWfqIhQoJvCOWAIPHNXZttSM0jlA7zm2XuRYSQgRTbMPd3Hxl7GCTgXYrBbY45fqRAnQBUg1yxuMl35u+4bPRET/svuCD4A17ZkVPVduBWGAphjMfcuF7XLjinvsOSxeReEsmhkwMqbckzpJ4ixdF7jWBcXRsThLkZKHBpboVDjV4sIXLAPZdUc/WqzQwhJ5uP+GDyQU/njzjp/1HfBpcMtQGL4q5CKcu4MiNeJlNeZHOeJWMOV6NuEi6LNKQJDd4rzdCRKUEpQSjBGs8Rhd35gzOa8Qr8AqcQjmKzzVCGmwsHFjlirYGDDVIaU1SclOsoDuOSX/FR/03fNZ9yUf2klApjp3n39M9frf6gN/Nb/N0PuXkYkB2GWHmBrtU6EShHXVw4QPwVpDyvw9KvQ89KvAYW/gWl2tkZdCxRselFZYyClOq5d9UAbLcu+UtmDYEvCSLVOGbEWzgGAQpIxuj8Ry5Hr9PB/zz4hP+58nHPDuaoV5HhBea3iWEV0KwFEzi0LkgSuEDhQsVLlLkHXAdRd5VuAhcV+EijURCXgLFKcxKY2KFiQuOigKxlX/eFETVwPFOq9v2jfWtC/FKveEwHvPPfMLKBXxz9R4PXu2jn3YYvVR0Tz3hPMMuHTpx6NzXqYwPND40uEjjOhqTaLLSmioBtEI0eE3xR0BnCrNS2KXCrkDlxX5cVBDJKUFMS0JL5JZtVxWVNEizGcMqXG64WHZ56Pd4eLnH2aLH4rhP/6ll+NTTP0wILmJU5sD7QpS0RgIDVpXfVa2cqox+ioBAldLTkDRf+E+dKUwCdiGYpNhP3i1E1VuFMrKVcRtAK4u1odcN/awn8OBSw5wOi2VEnhq4COkfagbPPYNXCcHpEpIUjEECi0QGH1l8aPBW4SNdcDNQ+ABcoHCl+LoIfCT4yCNhY/2sJEoONoZg4YsULC9AuqDQ93dydCPaadgeaXKzetEpJNG4VOO8Qi810bkmOhfChUflgg8thBbftbiOxXUKYD6oNqRwIXirCh2z4ENwIeQ9wQ080nMo68EX60leSIES0JlgVx6dC8pr8kgVeu0oDGZry7YN8q1ZQamm4ssxrjDzOi30xcSgXMGZdBLAKEBMYVzyji5ABSBGFcGGLb/rIvgoAhDBheAGDj3M6HZTjPFkmSXRAd6V4o5C54KJPSbOgQA70KS5qisaG+Ua/TYdbYlqkVatwaLKWNMpdF7ojxjIewoxmmSki0VMwTlvSzBlIk6pf96sQYopQPquR/VzRsMVs/4SqzxXacS59EhiA7rQZZ1TWPBVjgk0OrdlxrROaaq8VoyUQFvRfyWyzaymXXFQXhU5py/G+gCyPuRd1dLxm/8roGI2qxE+FKTj6A8S3h9d8Z3eJVp5jlcjksySmKggcC6YxKPjDJ1k+NSinHAjSmpA2xoZ3cg9tw1oGi0thcXTm8TYWLGibuWLK5GF8rMgocf2cnYHCz4anHEnOq/DwiM7BEoXkwh25dDLFLIcnUd1ZWYjV28wZ1N024l1Bbr1eCOZVqA0iCq40x57o8bTdBtlaVU0RXrXcQz6Mbf7l3yve8K+veTS9Xmlx3hRkGl0CsFSsNcZapUUCimyNppbaCyitujoFoDtS0r3J8INC1cMeHuovCHKpc8TW3Az7GXsD+d8Ojjm0+iQjsrIpNhilhtUogkWEM4d+jqGOIEgQLRCTCME3JK62Q1Uar3DrTjbQYRmXVFo6rKUOrztXbXmYs3dQNC9nNlowfdHr/lh9wUfBWfEYjjI9ljkEYtVSDBXRBdCeJ6i5kskz1G9buHCwtLolUF8lYzXqfPmZlTjZsutNl1QKa51dcGuQzDR69hYaqJsUhkAIxB5+sOYD0fn/LD/kk+CE2Y6x4vm0nU5WQ3IriKic0X3TY59c41cX4PzSCck61lcVOj8Bpzadckm0A2F3gC9VoC3tRfWhGoQpTVxNY3yaq3jgScaJNwZX/L58CWfR8+5bXMALnyPp6tdXlyMCU4t3ddC53gFZxf4VQxG4/sReV/jIlUSeb1ObdlNOzJq8Fq19roxpgWyJoxns7ypKOPZKimQUn/LgD30mEHOrfE1/2l8yBe9p3xoVwRojrzhYfIe31zuszzuM3mlGLxKMEfnuMt5sW63SzYMSQeavFNKViU5DZBYaYsu268tNdxqvPIUAPPC9Ou8iJA2yp2td8UIEgmqnzMdL7g3PeJP+wf8IDhlrEMW4nmY3uJfrj7k4GiH3nPL8HlO9OISf/oGyVJ0v4ufDkgnlqyv8GFDdCsB1CChRzquSrwFQa19T+0Kmu6mHNPceBmFKL9OgpvcrGlXRSsN40M/ZzxZcm/niJ8Mv+WL6CXvm5AMx9O8x/++/oR/PbqDfdphdODpH8zh+AQfx6ggRE0nJLt94rEm71Xl1fXmxEjtsjqDtMXRBrfaUUwlejd6IK34uNYN3VBVtQlSuo7BZMmnu6/5i/Fjftb9lg+txSjFixz+x+JTfnP0CasnI0aPYfR4gXpxjLu8Am3Qswn5/ph4NyAbFslB0xDVLitydIcJd2YXZUui7dwb3GwC21ZdaxKoFpcmuKbPDATVdQwnS36w+5pfTB/yi94jvh+EaBQH+ZJfL+/xy6PPeP14h8kjxfhJgn32mvzsHAAzHSP7M+K9DvFEkXcpKguNaMuHgnQ90SjhO9NLPp+8bAQMTRStTdYyWMl2y6Jui2Wb1EUXIHU/Yzxecnd2yl9MH/Nn3SfcseDxPMsT/mH5ff768EsOHu4zfmCYPEyIDk5xb85BBDOdwv4u8e0hy11DOlJlRtQAGQi+47H9jFvja+6Nj/hR/0WrOCa09LLFsfon2c7qJkhfftZF1GMGObvTOfdmx/x4dMDPuo+5Gzg6yvKiBPlfDr/i0YP3GX9jmd1P6Ryc4U/eIM5hRiN4rwS5Z0nHZYJepXqNxED1ciajJZ9OXvNF/zk/CA/fkaZtcLH1WyUBDc5Kk1ilURJT6KQZ5OzNrvh85xV/PnrM151nfGwhUiGHbsVvVh/zN8dfcP/hbUb/bpk+SOk8eYMcnyJ5jhkN4NYuye0Ry/2AZKoKAxSyzoBUWSCLPN1+yvvDK+71D/mT6IiZideV+m3WtKm/N/otjZfaUQ+UYtTxmFHG/s4lX+285OejB3zdecEdE5SGZ8U/rj7mr4+/4vcP7zC8HzB9mNH99hxOz8A59HAAO1PSEmQ802T9BkjTMD5B0cjqd1Le715yJ3zDRMe4rUF9A4iqxI+KS6rB0cLx1z3z5u8lZcNxwp2dC76ePecXw/t8Hb3mfdMjkZxHWc6vl/f426PPuf/odgHyQU7v2wt4c444jx4N8btT0v1+DTIvQfoy3KzF1hRgTeDphymTYMVIxxiEM9+5CbS2SRuKSx3eNeL+muN1AK+lEJ+eoz9dcXfnlD+fPeGnvcf8MJyzawYsfcrvMsWv5l/xy1ef8erRHuP7hsnjjN7TKzi7BC8FyL0J8Xt9lnuWZKLIBi1xrY4P1EmCoJVgdFEHTsXwxnd5nu00ei9tsWyibjK8AthyRaIpKnbDjOl0wWe7x/x88pCfdZ9wNxC6qsulX/HbtMvfXnzF3z//lPnDCdMHisnjhOjFJVxcgXOoQR+/MypA3rLEM7UhrjWRm0JYqZEoktxylvZ5lLwHwP3l/jt6L02uVRDbZ2hKwN5ShFnDjP3ZFV+W+vhnned813YJlOG1W/AvyQ5/c/YV/3hwF3kwYOcBjB+vCF6dI1dl/Dro42Yjkv0eyz1LPC1Aum5Rid9Yu8GPKgLzTrFIQp4vJizykKusw8HZDLuhk9viUlV/rOtJ9UJa8FEhqt1RzAfTC76cveAvBw/4MnrN+6YLwOPsmt+sPua/nnzOvx58QPSgy/iRZ/TtEvvyDLlegNGo0ZB8d0iy22G1U7iQtXXdHqhsqBLgM8NiFfLSjzlUI5bLCHeyRUc3rhLQtvKRlCArUb07O+XL0Yu6q7ZnIpaS8k0a8vfXP+ZXh/d4/niP4SPL+FtH/9k15vgCWSzBWpiOyPaGrG5FxBNNNihAVlysDOMG4dvuzwOZIluG5HGAOIWeWzonejMyunFSpFoA6phWFGAE3xHUOGVvNudHO4f8bPSYLzvP+NjmRCrkzCX833SX/3b+Bb9+fpfkwYidRzB+khC9LPRR0gzCACYjsltDVrdC4qkmGxZNJ7GNGNazUSa44Q2pvIJCXLFRnSqCuSJYNM4wVGC3GqXyu+iypdd1RJOY78wu+Xr2nL8cPuSL8IjbNgICXuRJEQS8/oJ/e/JdOg8jbj30DJ9cYw7P8Fdz8B7V622CnGnSYdGaqEK7uuRiijpw+whYbXkrYohC+6LTprMCbFEFbMaostbBG2eBKtfR9fRmS/5k95SfTA/4af8RPwqv2NE9VpJyP9P83fxP+eXhZzx/vMfooWX8JKf/9Bp9eonEMbrfQ4Z93M6A1X6H5a4hmSqyYWF0XCRQHdExUnTvjKCsRymKin2uIVdlQ7hM+v26OVzlxGLAdd9Rqd9ganUoI/IEw4QPZ+f8ZHrAzwf3+UGwYKxDzv2KP2R9fnX1I/7h8PscfbvD4MDSO/IEc4cEBrc/wUe7pOOQeGaIdzTxDqRThwwcQTej08noBDmhzenYnEA7rPaEOic0jtxr5mmH02WP+XWX7DqE8qRKO9kXXYSFoAr30oj0amBt8cAWKdZ4EHN3eMIXvad8bK/pKcuJS/hDOuXX83v80/Fdjl5NiU4NdlFQNN6xrPYC8q4imSiSmZDOPHq6YjRc8kF/yThcMQ5i+jZhYIq7ZxI6KkMrIVQ5Gs/cdzmId/m9fp9VEpK5ooOucrXp3/Xa53sllXtZ9/s3Cs4lBapDUUHgmHWXfNA54z1zRagUZz7nD+kO/31+j//1+nscnozRVxaVF7q2shqxRbsinXhkJ2Fn55oPRufc6V2wEywY2yUdldHRGT2d0NcFwEA5DOsjYw7Nq2zKM7XDKg9IVgFmbggWhR76QOpspracZY58oz+6kTxXgDVghCDMGYYxY7MiUJ4LDwfZlH+af8r/OfmIl68nyFWIyRQ+FNKyHeh6gkwyJrNrPp6+4ZPBKXfCc2b2mkDlGASjPBqPqY7piCYTSyqmOI8kAWf5gMfxHr89+w5PX+1gDyOiU4VJq3ajWhuwDWBv7Xiz6Z9Kl2KNp2NyDJ65DznyEb+Nv8u/Xdzh5ekEuQjRSdGtdp0i6PZdjx5kTEZLbo+uuNW5JlCOueswdx08CicajyLzBocm95rEByTesshDlnnIZdrhctXh4qKPPo4YHCm6J0KwdHirSMYKsQofrQ1pXb+S1hE5JWsPo/zabIsWlJb67N7SR5y4EUfZmAeL93h5OSa/CgkWGpVXJl8V7+UKHxsu6bFKQp5dTADwXuOcxuW6OILjQVx5vCYvbpUX7qHowSrsEmYXQu+No3OSYuYxaE066+JtQDZQpYvZ9B4FRxsVgm0xfXUuXQScKK7ziIN4h+NsxLPVlG/evMfV0ZDotSG8LM27aoIF0aaWDFcSUTkI26VRL/UznYPOBZ2ByTwm9tiVw14l6MslzBfgBTXsowchSFBnUkqkOBNS1Za50U1riG5blL0ijgOOroes8gAviuOrIYvjPt0Xlt5rIbwqWu0bczUpK6BEUDkoJwUwJ62kvxzjBZULynlU7lGZQ6V50UGLk6LvEob4Xoe8X/Re6iiqAlgGGmh5d6y7URzLFXkccO41F/MuLjPIeUj32NB/JfROHOE8Q2WllayPsEm9+fryJbiy5VePLw9BQUkY78sDzqVUGQO9DnQj0BrXDUhnHeKZJRs0CmWVQdVSVwjfHdRTLaoKHYoNeWzAg1lpogtN50yIrjzBIkevcpSrjtoo0Ap8A6BWiFJg1DqvLUFWrb+ihdHgTGNc4RGKMd4qXEeRDoqwMRsU542q+lFdXy7fbQT1rCOHdmItrMOs6qxPXBzQ0FkxoYvWFeTmpm/Ug8u7OtJW67IBXx7kkNb69dh6PPX5CBcVAJtJeSENBaji3JIurO6NuuyalWvKVm2HXNWHIryFrK9AafKuRuem3Ixa13PU5lTrzTdA6wZIzaYf5217awCvTotVXsOXU7tCGvHw/wD6CWsOxgPvlQAAAABJRU5ErkJggg==;" vertex="1" parent="1">
          <mxGeometry x="441" y="280" width="58" height="58" as="geometry" />
        </mxCell>
        <mxCell id="NisTQTtNLf6xnu39tymK-7" value="" style="shape=image;verticalLabelPosition=bottom;labelBackgroundColor=#ffffff;verticalAlign=top;aspect=fixed;imageAspect=0;image=data:image/png,iVBORw0KGgoAAAANSUhEUgAAAEAAAABACAYAAACqaXHeAAAAOXRFWHRTb2Z0d2FyZQBNYXRwbG90bGliIHZlcnNpb24zLjMuMiwgaHR0cHM6Ly9tYXRwbG90bGliLm9yZy8vihELAAAACXBIWXMAAC4jAAAuIwF4pT92AAAVIklEQVR4nJWb2ZPjyHGHv6wqHDy6e+5jZ+fQ7K4s68X+4+0XR/jZcui2ZGlleeXVsdP3RTYvAFXphwJAEETPrBCBIEEUCvXLO7OSsv7wA03Ecu2X/LFKCGpoDiMBizJ0eGTw9/uO7jzNs827muuhMfH7dk39oz+Hr69D/Ywh7D3zLzf/zE/P33B+dYhLxFKq54MXfrV+21lwfNBK2JkkfGQxXofvWQl7Y4ZA2d5imzFB7yf2dswuIXbn3WXiH26fc3Z5iF5muLuw5oP3/GT1Bf928WMAjChG4kOG7fePLSa0XN3e7z63M1a3Y7tjhsZ3xw6N6d/vS3AfD8A3J08x3+Vk14L7c6X8ZvM5/371j/zy29dxhIAIILpHz0FIHdDaGSADtGrvN5/SG9sstJ5Tey/86Jy9o8HQeQ0A9tuc8XdCdhtwEMXIiPIptb7nPfElPckYerkCgsQFy/647330xrdz9t9/36EgqoiC6+vMHic6i99eyHbMAPe7LxdAOlxVUYTO8+wSqDv/3wNq8N4AYfu/7FiiQfHqP9Tl9ADXuwRswdendFWqA14GxLS/nj5jdsZ+QoKGaKMiqIALKniVXeN234R9A3jPuB3g9eIbbu5wub6vDccH3tEnaP89f6fyxDk6E+2pwPebZfvaQcnrq48CNZE1SGMMou4OALvvPfvzfkwnPkEaiadrrk2XYwPjtTNp9758jIsqOxzXjpsXoxgTsDZ+NpxW7cyl0rumYx/ukcaPEYX9Ia57o5W2AUrv62fX30Uu7hChns+0+g+mBR3InCdzFYn1pMYjoqgKgSgpPhiqYPAqVN5S+fraG0IQQpCIpAdYPyGd/aMjAWEXWMfC9wnSPzRsbakAUnPWOU9iPVlSkVlP7kpyWzF2BRNXMLIFmanaICWoUKolqFCpZeMdK5+wrFJWVRLPMqGoIkEaYnSJ0HqUPVsyjMEB2NZY6a7uDPj3PfAdIhkbcC6QuopxWjJNNxyma46SNYduxaFbM7YbDsya3JQk4rEEPJHTpTpKte3nMqQsfcqdz1hUGfMqY1bk3BUZq9JRVI6qsoQw5DI/vXYA18TJdohC32MCEUVM5HaelhxkBY/yBY+zJU/TOU+SO47skgO7IpeSXEpsnWR5IuiiBr1WxWrAqGJ0Ny8wojjjcRJwJuBMxrxlQJSE+yLC4YXXBGiufcdw/T1HA36clTwaLfl8csOb0RUv0xueuRkHJgJvjgbwXDPWIWERMpYhYxnSmvuWMlg8UedLtVRqa1dtcMaT25LSWjbOUnqL9/cnaLuL3ZcK55EWvPZ0/j49UpVWXYxRnA1Msw3PxzO+GJ/zZX7CC3fLRAo8wloT5iFn7kdc+inX1YSLcsptOWJeZiyrNBq9XjbZTcisiZw3KJXGsdFL1J4iyEfd4p5K1NLiBgd2vncn3ScIWBsYpSVH6ZqX+YzP0mue2Tkpnpsw4rvyIX8rHvO3zUNOVgecLQ+YrTNWywxfWLQ0tFmwAawiNiA2Etc6j3OBxHqS2qgClN6yLh1F4fCVJfgt88Swy+0eeNNRlV032PUAsBvnN2N6440JpNYzdgW5KTEEbsKYmc/5ZvOc389f8O3tI25mY8pFgqwsdmUwBbhKIngBNaBOCQ5ComiiVIlSpYEy8RRJJIS1kVohCGXhqMqGiLUUtwTsRJF1DrIDpj5dvzozdPTBN+Ivsv2tUsN1OeYbnlMGy19Wj/jfmyecXx6gVxnJnTBaC6YEqaCtkTTgLQQrmARCBaESfFAUCDVXvWyDo+BNBL+xSLGVIk0UTQCJUrTD0B5TYSAO+FREtQO+HlsGw6zIqYLhgxxxvRlzcnvA8mJMculIZ4JdRdDt9GYLnMaVDwR32rno2qCgglYGSkE2gikjN4JXAqBGURM91H3goeMGhw7thrJDhCAusKgst+TMi4yicswWOcVNRnIVwbsFmEpRI6itue3ip5r6u9PtPdtwUsEFTBJwtS2IhyH4eh1BMEUtWRqv1Qjq6kC/SbqGGCoDRrAba98Pfksg76M1Lr0lBEOxcZTLBLO02I0gIYLyVghJA7YH2kCov2MUtQpWIVFs5kmzkjwtcTbgg1AaGyPAWkQkgC0E8ZEjxgk+NWgS6jB9GyNss8v4sU+AewjS1aM4WUxGQzBtJOYriy8slAbxEVSVC5LWnE20x+1YhVKr0QMYrU8QF7AukOUl46xgkhakxrPxjkWR4r2hNK6WgmhXTBXXFzLBh2btXa8WcaihVjvZDYW3AD+d93ezNGp/3EZjooQsvkjyWlUafbdRN+nqvNQcl0gEsYpxgSStGGcFD/MVR9kKJ4G7KiOosKlsWxAQLxgfCaAGCCCDIq9t6U+/jwQI7OTrMuQea1XREHN9kZrDEtBkgJB94PW1mNq4mmjxrQ1kScVBtuHp6I4n2R2WwFU5ofCW+Trbgq/AlPEMtvYwGpkk2nlfpwjTHDsEGIqk7kuRu+B3DIzU4izQil/30W6FR7ZEELO9NqIkScwtHmZLnmczHicLAsImJKR1MKTeYEuJ4l+CeEWagkvX+DfXsk3tozPT/UDo+6aRQ4eIokjtegbcz06m2Zm/IQDbVDp1FUfZmmf5HS+yWw7MmrUmZGYc0+UQXaApwW7AlB2fOeBSG0JIYxaaQGh3wEfAfySYiGNrIg9mlQO/tQSgo5t1buE806zgSb7gs+yG5+6WVDyXforHUHpLWcYAyK4FW0Qj2MQU9xGAGnfDH+kTYH/dMqj3zb0tmDppaYKjbhn8I+60oUOTUosozsXc4kG+4tXohs/TK565OYVazqtDiuBYlCnFKsEuDHYFdqNIgJCydbWmk7j1V1CLP9QE8EMWcwjop4DUtb1txEYMUQfm6BNFla3o52tejm55k13ywt0yNhsKP2YZUm6KEbN1hi4dbim4JZgiLiA4ad3sbtJCuy6p3WAsi2vcF9hzgwPnEIAd29atKnVA3UfA1jDTSBqt6D8fzXmbX/EqueaBWWIJzMOIi3LK6eqAxTzH3VrSObiVxihTIvd9poQkutUt6EbKQu1taM/exkhfVPazwU8dTY4evCGETs7eeUd7slUB5zzjtOTJ6I43oyveZhc8tTMS8czDiNPyiL+uHnJye4Bep6S3QnKnuE2cOYKHkMUwOsYV22RIavtibYi1VNMJhLqLv+/4lCI07qXh+m5sUJtfE2PyvrS4JFaUnowXvJlc80V+xit3zURKFppwUh3xp9VTvr19xPJyTH5lSWeR+xLAZ4LPBT9SfKbgdDfGgLpyFesKRaKola0ENDZgTwIGLPp921gNEdozbDdB7lUDo1gXGGUFj8cL3k2u+Gp0yuvkkgdmhUc494f8z+oFv799ztnFYcwuryG5U0wVA59qBOUkfmoWWvFvxE5E68Cq5Gi0JuRKSKIUDBYB+sttLfWAnu8RoUesxrrv7TvWi8rTkkfjFW+nV/zD+ISv0hNeuDlGlHN/wB/WL/nt7DP+ev4Qc5qRXwjpLIq+ClS5UE2EaqqEPIDr5NyyJXKWVBzmG15MZujIbwlw39ZYL2lqF02HCN17O0axAW4V05wmxNPGM0k8o6zgyXTBu+kV/zg55qssgk8IXPkxX29e8vPbN/zx7Cn+dER+KaQ3iltH8D4TyqlQTqEa1emzqcPquhZgTCBNKg7yDc/Hc96PL3B5RUjiUgdrgm1xtPPbffsFQ+Trb4x2f2+s/SiNVeTXkxt+ODnhfXrGUzsH4NRP+c36NT+5ec9/n75gczxmdGbIrpVkFff1q1woDoTyAMqpEkaR+42Vl9rgpalnmm94Mrrj9eiaN9klaVYSiOHzYCA0FBI3YHY7QIbHdcfD9pnW1eUbno4XvBlf8+X4NHLezkgkcv6/N6/4j5v3/Pb0JasPU/JTS3atuCWgUDWc74JPQmv5G9WzdVD1MF/x+fiGd/kFL5JbjFG0gmRVd4gMNT4Ngfu7Nh464zUYxMRdo0lW8Hx8xxfTc74anfIuvWjBX4YRX29e8p+3P+A3Zy9ZfpiSn1jyKyVZgATFp0I5EYoDKA8VPwlbw2e22aQxgSSpmKQFj7IFr/MrXrhbDswK7w1uDcncRwIMtZLto+mkkrqtwXezzW5VuSstYrai+GIy56uDM340OuZdes5js6wN3iSCn73n16evuDueMjq1ZNe0nPeZUI2E4jCCr8Y1eBcLoE1JPFp9JXOeabrhUbrkkV0wMRu8GorCMbpT0uvNVgXsQAzfAGx9d79c1lz3DGKX+9YqSVLxYLTms+ktX07O+WF+zBfpGQ/MhlINJ9UBv9u84me37/ivs5fMjw/IT10EX+u8T6GaCOWkBt9w3nU434n4rA04G3eRpnbDxGwwBJaa4VeO5E6xt6uBrbEuiO5nPyqsy9NdI9etEIlEHczTkkeTJW+m1/xocsKX2Smv3DVHZsNGLX+pHvLb1Wt+dvOG35++YHMyZnRmSW/ALWvwGZTjrc77SUDTAMkA+DriE1GsbNvjCrXMQ9yZkpUlXQTkbtkzgvc1H/SOTowxfL/R9zwGOO8PLvnh+IQfZcc8tXNy8SzV8W35hJ8v3vHzqzf86fQJ4SRndG5IZ2DXMb/3KVTj6OrKg63OSxIYCtTaNUjcU6iC4c5nnFZHAJxsjnAzQzIr0PkdLqghYAj1XtsOlzuAm0lbAkmn26seb0RbHz/NN7yczPjB5JIfjz/wRXrGU7vAoNyGjG/KZ/zi7i0/vXjL304eYk8yxpdCMlPsJs4Zkg74hvO5R5LOpkfXCHWOplK9rFLO1gesfMLKJ3y3eEB2JSTXa/zdokmHzUfbUVvwojv2QDt2wYji6jLW0WjNy/GM95MLfpgf8y694HEd2p74KX/cvODn83f8+uIzzk+OSM4S8gshmSu2oA5yos5XYygnih/XYm+3It9wRwdooSpU3nBXZHg1XK4n3JUpl7MJk5lilht88L1kaJiYnQEDd2sD6BLfivzryQ0/GF3wZX7CK3fNgSlYq+W76kGr7384f8bydEJ27shu6ti+jOFplQvVNMb3fqT4UdhmeDU4dCC87i5Vo/gvi4RV6QjBsFynFPOUoxUQAhjblMVDQ8wtrg5Rmpd2Y4Pm94bzh+M1zyZ3vJ9e1P79nKd2TkpgHlK+LZ/yq8UbfnH1mj+fPobjjPGl2cnqggWf16HtRKkmSsgVddHat9u6Tdz9EQI0qbiX+FlVhmqdIGsbq0GJw04nuG5DMfQLGrvNUV0b0eh7mm5d3PvxBT8afeBNcsUjuwSo/ftn/GL2ll+df8bVyRHpmSO7jEmNLSKYkGzBl1PFjyPnaYobZkuAxvLvNVd3kq42LVcTaxNe0CriqTKhOhqRrB8NbI93JhU6Pr/zW9MPlKUVT6YL3kyv+Wp8xpf5CW/cFQemoFTDd/6IXy/ftiK/OpmSn0cXlywU8eCTWMsrJ7XYTwN+EiD32MxjbWjPpuvbmEDSbJPXut50kLUFmTod76boGNAkUE4tm8cZyFH0Ap86dlSjjrPTNGZYL8czvhqf8Q/5Ma/cNWNTslDHX8vH/Hb1Ob+8ec0fL56wPJ+Q3BrMJup5OY31O5834u7hoCIdFxzmBeO0ZJSUJCa20aW2IjUeI4FEAs54qmBZ+YSbYsTtJudunVGUDu9lryArRsEGFIMfQXFgEJ/uV4SkFqUdqeiJWdPn9yBf8TK/5W12wQt3Qy4V85C24H83e8Gfbx6ymufIJlYfqolSTWuRHweYVuTTDY/Gax6Nlhymaw7chpEtGNmS3JRkUpGYqu4q0/qfLIG1JlyUB3wrj1lVSewvrGIpji6Obj1CQl0+E3xu9t3gjt73UlpV2rpa5ioOkzVPkjse2AUWZaYZfy0f8/vVZ3w9f87f5g9YrFLUCySBykrcCM0Cybjg8XTN08kdL0czHqULjtyKzJTkUpFIBBzb6SosuvfPk0s/BaAIlkWRsl6lVBsbXbUNGNdjYL0HoSYa3OD6GyPsG9ZumRskdnuKkljPyJaMTYFFWWjKeXXI/6xf8PX8OX+ZPeRulRGCQVxoe3+S1DMdr3k6WfBqfMvL/JZHbsHUrkmlat9rCFhRLIEYrMEipAQMhTqWIeW4eMD/LR7zfzePubqZEOYJUkncm0xBrR+oRNFu1KqR/VbZwUZnZKeaa00gNZ7MVhiJonjjx/y5eMI3i6ccLw6ZL3Oq0gJgk7ATIT7IVzwbzXmQLLESWIeEdUgISOdPT9JKZtM+V4TYObqoUmZFzuVyws1sTHWb4mYWVxDVbKwEo2gisUuExiPsE+Lj/QGdFLi7S9StD25CBD/3I46LI85XU2arnGLjUF/vE5pYIQ5BWBWxFrWuEo7tUdv25oOhDPEz9goLoe4V9nVbbNMNFgoLhcEuDMmdIV/E/UE1dWHUxh4B6jZaFe2B17YlZ7hdvhPixo7vrRFpPr0a7qqU0/KQuc85Lw74091jPswOWdyO0JVFfPxTQhDFGyiBlSizZkMgsjrqrJf6e31dBzsSaO8ZD9aDqXeE3TomTaagzRpDKm2UFmMBdnIWaVTARMLcLwH3ZFqqMcpalQlXmwlFiFOcr6axMepqjJ1Z7LpuWWE3gm6n7YGkSe4GXts2V9VEaD5NqW3HWexAkRhXOLb1bq1tW20AjTStOB0b4DHt394+dmy5L6xKhzLiZj2i8JbZImdzm2NvHMlcsBuQoULT0NaDdr43BOuVnPvEURMBk9Bui1UjYnm8UyLrbr0bGxBR6jAB+D49Qux6gm5jVFG5tmGxXCaYhcWt6m6NhjN9MF1c0rm/ldy2he7ji9odGxIlZODzgObbCnHTyygm7Dwag17FeYZT4X5Ft3s0jVHeR0MVOo1RKlEcfdoB2naMDADobkDUBNHGcA481y7HNMTTrVtrKsNu2x/YeDENpp3KVCBVDMX3Q+HObmqzsn6CFO1AnFSbxigTG6MgiqPUQYX2FruLevvOhggq9fimaUrYbXPtEGvvaBKmrudCWyIEjQtypWAqxXhw/3r7T/xh/pyvj5/BX0b7/0LpS0C9LhRMiKcEaVvVJGyNlnbEdLvyriHs/N6TiEGpue9oIjjZSmDX1e3YGBXGJxr/NbpW3E8v3nJ8fYg/HjM9lZ1FtIanG032jVZjyVW3buu+Ul07duDWgCp0jz2iDZXBmmfrre99QxoXkN1oXW1W3PH1IcV1Tn5jSGY6QLHegvvg2wVuixV7ALU3V2eraAd4nxD9932EANolXNe49tYBYLyiDrwz/D8Lpro2E8PdOQAAAABJRU5ErkJggg==;" vertex="1" parent="1">
          <mxGeometry x="200" y="280" width="64" height="64" as="geometry" />
        </mxCell>
        <mxCell id="NisTQTtNLf6xnu39tymK-8" value="" style="shape=image;verticalLabelPosition=bottom;labelBackgroundColor=#ffffff;verticalAlign=top;aspect=fixed;imageAspect=0;image=data:image/png,iVBORw0KGgoAAAANSUhEUgAAADoAAAA6CAYAAADhu0ooAAAAOXRFWHRTb2Z0d2FyZQBNYXRwbG90bGliIHZlcnNpb24zLjMuMiwgaHR0cHM6Ly9tYXRwbG90bGliLm9yZy8vihELAAAACXBIWXMAAC4jAAAuIwF4pT92AAAWQElEQVR4nI2aW48cyXXnfyci8lJZt66+8CqSMxxzRgPBlqD1CGvAWsMGdp/2i+3Dfh2/GgK88hqyDUHyaD0XDWdIDpvsbnbXvfIWEfsQmVXZ1c2REyhUVWRmRPzP/Zw48tH/+t8ez+6S5rs75vfu3XZ1n5Fbxm95Xjr3vFz/f+sr7bztGt01f+hdAbM/cOvv9z1zG4Gk2ZBvhm7bhN/7/oHlfnD9/+xLHsxti/6nJ9jnvtwUhBtTdd7x6oe56P8UsW+ROvF7nG8uc+2Fdme3cWCfk43oiQVxAo6tSHnldxvdjrEjhIA06/i99d630Rv72QN6K8E6Y+ZWSrxvUgEciNuNewU29rjE4yOPVx6pBZ0rVAmqku27Xnu83ltnT6ffC7JD3O7/G8/J7VhM++B7JajVNx9AbjcdgU08LrPoYcWonzNMC5R4FkXMfJFRzmPUWqELQVUN5z2ollhut/EbRN6XhC0B/O63au7vE4Dm/zXR/VMWy4dNiQuLuRhs38GoYjjacG+44Ef9KffTGUOdU3nNm2LMi9GEN+Mhy01CXWlqp3ZTOnCVBivhs7feNbDGgfYo4xAFSjmkUQ0Rj7eKujD4jUZtFKqSRp12BBTftbrvsWbiQGx42iVQj2t6RxseH17x8eiMp71z7pkZmSoAWLgeiapwCArPKo0B0OKItcWIxXlF6TSVCwSwHSIAOC8o8WjlMMpde1eJR3UUcl6mvF0MmdHHVwJlANrF4aVrdfdB+p14ee2xqcce1hyezPmLk1N+OnzJs+QNR2qFEkfuI6Y2I3cRS5uysREOIVKWVFeM45yhyRnoQJDCGQoXnrGNLEYtGwAlDiWeqNm1Eo/G7X6LI3cRL2XC2XKArxRmozC5IDV4A075rQrcFN1Wxl2QfxeDHViig4IP71zy2eF3/GLwDU+jC/pSs/KGc9vnZXXEq/KQ18UBr9djLjZ9NpUh0o5hUhBry9Dk200CGOW2HAxA7XYb7XNqjxPtu5XXLOqU16sx08sB0YUhngq6DPuuU65FCdf8qLSWzIPXjbE5qDk4WvLJ8Rn/9eAbfpa+4JGZkwhc2Igvqzv8dvWEf58/4NVszHzZwy4jJFfgBZ84LoYVl6Me036Pw2RNomusF/SeTzB7HG3vtxx3Poh47RXvij4vpwdMT0f0Xhl6Z55o7fBKqPpgY9lJqO/40dYnAjgDdd8jhwWP7kz52dEr/nLwnL9IvudYVzjgVd3jt/ljfj37iN+fPWD6boAsDDoX4no3l1caN9Vc9RIue2MktZjIoo1Da4dW7cdjtN2Ca3UUoLJ6y4/KatZFzOqyR/I64ugFDL6viKclCJQHMV4ZytE1GjZAG/+IF7zx1H2POsn56O4Fvzz5mr/MnvM0uiQTz8xpvqpO+JfVh/zm3RO+eXuMvUiIFwqppQHnt24Bx9a9+JXZLmkFbLN2G1j4VqfoBBsNI9rfqhKiuXD0xjN+XpJ+c4F7ew7OoU6O8eoYdai3rizsB4zYnS9CPDbxMCn58O47/u7OF/zt4A880MWWi/+af8C/zD/g83f3uLgYIlcx0VJCYNDdbANAhEZcdmLU9cnipOMbO+LW9Z0AjWHWGyGZQnZhic9X+Ksp3lrUaIQ9HpPfSSjGiroHLgKXeFziMLqQAI5ww44sD+5M+duTL/mfw9/xk7iH9ZrPq5LfbJ7yq8tn/Mf5XVYXGWqp0blsDZdXfufEO+Feu2kvYcPbcQ/iuylM52cnfGzv6QLiOfTOHb03Oep8issLVC+Fkwn5/YzNkaIagot9+Aws6UGO0UUA6HXQTUksk3TDcbRA4XlVL/lDOeHvZ7/g/779gLOzMcwiTCE7o6UD166JbAvENn6YThDvOt+uw32/IwYt4SCElEXgZP/UMXixwbx6h5vNQWvkcEJ+f8jqnqGYCDZtuJk5epMNT4/fYVQB0hO8bgLxWnG2GvBPs4/4anOXi3LAv775EavnY7LvFYdTj6rB6eCrurGpV2oHlB1QZf02stpGWaqRoFSoU7ApeHPdCosNum1WQjL1ZGeO/ss15vUl7moKIqjDCeWDA5YPYvLjYHG96ei6FzZ1hFFb69joUqWYzjN+Wz+ksprVRUb2POLeHx3Z2w2qsDijcLHGGwHnO5wQvBJ8J9AJwHx4zgVR9SLUfU1+oHGmBe3xhl3wboMRi+aQXnqys5re6xXqzTvcfBHUdnKAvTdhfT8hPxLqLIBsiS9WKAvD+bKPaRcK6ZIgpVDNY6aLGLXWZG8VB19bht8sUbN1WCBN8JEGLeA9Yj14DyJ43bEgDsQ5sB6xFmoLIrh+ioszbAzVAKqRx2ZN1FMKqhDMJoDMzh3Z24r47Qp1cYVbLBFjkNEwgHzQC3rZb4jVtdQW3NqwqDKMTXYiIz6Yb19rVC1ECyF954kXDqksKAVaBYAQADiH1C4ABUT2gnTnoKqRqgalcP0e5VHK4qFh9UjI79TIoEaUx20MFDqI6hVk55b+9znRmxn+aoZdr5E4RiZj6rsHbO73WN/RlGPBxTsJChQLWJzXyFpjXNwYiYYDOAm2oAwf8VBnivKkj1h/TTSV9UjtEeu24onaARXroXaI1pDE2GHC5m7K4pFh8cQjD9ccj4KUzJYpfhPTO1MMXjr6pyXx6RzenlPPl+AskiSogzHVw0PWD1LWx2prfLb63XFLYgVtQWowNvHXClPSsN2rYCA2x0I10KhKX090HejSoypQtUdZbqR7ynpUFQbrVLE5Vqx+5HGPN/z44Rt+Mj4lEsuXyzv8bv0As1Kk557B64Lo+ylcXGJn8zBXvx908u4B+Z2E/EBR9wXfWPwbBbxt9SNw1vhueaxb+9FgtcemUA074x2f3roHcY37aO81gYA04G3qqSaO/oMpv7z/gv8++Zyfp68YiueLasTGRvy/6C5Fs27VN3BvjDocgBLqfkQxMeQTRXEglCOPi8KGZbsHdj5qr0rhjMdsmXRLBtNu+tr4Xq7acn87cZsUSIhKbOqxk5rju3P+6t5z/mb0BX+enJKK55s641fLH/Prsw9Zng7IZsG4FQeafKKxsVBnQjGB4tDhDirifkmSVHgvFIWhLg0+10ihULlCtXF2l2kC5gbIWxL+bVbT/r6lniNOdlm9CiDrocMc5nx05x2fHX3HXw++5Fn0DgV8U434x9XH/MPbj3nz6pDkQqOLxq/2g6uoBp5qZJHDkoPxipP+ikFUYJSjtJpVlbCsYpZ5wmYTU60i3FqjNwHw1lWxn3jvA2hxyPVb18S34WxLDG88deaxBzUHJ0s+PX7LXx18w0973/FILwH4rh7x69UzfnX+jBenh5h3IetxEdgEbM9TDT1uXNMb5RwPV9zJFoyjfOv4a63JTMUwNizjhEWaMEt6rKMEqyJYK6TeRVvmhsi+B+w1kB2DtNVRH+LLeuDhuODRyZSfH7/ks8FzfhK/Zqgqcq/4pj7kn5bP+D/nT/nu9Ah1HmM20omUAqH8sCYZFPTTEiWeZZWQ22hbRlF4HELtFN4LsbZkSYm1itwqrAPdAWvei6gFfgsnu/fFCV6aDY4t6fGGT+6c8YvJt/w0+46HegbAH6sJXxQP+LfFY353fp/LsxH6MkLngXA2CZGRi5r0plQUi4RiFXPBLgsS5bdFsm5Oa3TgtDEWnVhsqfAFUAdmmG5QvQ/wvVX0NlH34LTH9jx2bBmeLPnx8Rn/ZfyCT9PvOVIrpq7Ht9Uxv1095vdXD3h5PqF+lxLNVch8GtFSCA6PdiGAD+voXSrX2VAb+FsFtQ5W1cc++FLtg6TVweqrWsB16rphos7PvTrpDZFugnSbsrWqPzv5ns9Gz/lx8ppUKqY244viAf88+5DPz+8xPR+gp4Z4pVBVM32TqbimuN3mnbhbvAE7D0ItqG3pp83Km3lM2K8qBFWyK6Vc07v9q5vxtwl6m7lrsH3L8GjFz++85H8cfM7PktdkAq9tzLfVCb+ZP+H3Z/eZnw3QM4MuaRL81oAFrioreNdJ3P2eRIlvct52eb81gGJl6+qUFbwPQZCqQg4r9W06ur/AHuAbx3UKtHicV7yuJqxczGk14Z+vPuAPb+5Rvs1ILjSDFai6yXujJgfuVuG7FXh2RLh1b+8zmvv79iGMNRu/B/QWgD90otUeEK3zmK9mJ5xuRsyLlNfvxqgXPfqvhMk7R7ysG9cDNhJsLLhIQoqmwSaCTQUbNzmu8jcW3taVGle3FeFbVMyrRr0bEdZF415ujYwaqkl3Ia5PhgSlL9cRr90YaxV+GpO90oy+dWRvCswqKKOLNS5SOCN4o8JGVIhVbSTUPUWVQZ0F0DuO+614e3bZye5btn7cSyCSN8FA4cEZQdV7HN0PBLoVuu7ZZzcTk1pgbahXBrVR9C6EwStH/7TATHPwHh/pUC3wPhTRsA3IQEkXqSZBCBFN5SQUtxJwLdgOE7q63bUZqFAOcqaJhX3grLJgutWAfTHZB3iN4+zyV5qDHbMWoiWYvDEXcaCjixReq11SLuCllcGQzuki5La6kgawUHkgkcCdjoFqz2NbA9Q9kWtrVEpCRqVKMGv3HvfSlfe98Wti3jEOYgEXjEwxVjiToOqQDXstN+u0LRM69aSgEo0o1uGcVQyIkm2hDC/bMmpbbPP7nPCAE6QKqaTO7Z8+Tbt2tRa3u+GO2NjU4yOhHEnHyXOLNaXjDoIbCB8fQraGW7psjJMOn+0E77OQe8Pign7e0NH96xo3u27lfda5yWGv1WPf8/y1+46mWhgcvKppTvGaID/1oRTrWtH0SGN+fZfYnQBK6mBtdQ6q6HJ0zzd5CLXVxse1aMRyvXehayfaWmzHFWxxdTd0G1gFTjxON5bUh7lsGuJgjId6Fx667Z6u66jXYUxVgllDtHboTYVpQ7H2wa3r2APZRh9BtIITc1GnYL0nki2OG/0K77taQgt48XhPaB/IHAxqVOSwhcZiMLVsi+LXKCk7JugcooUnntVIUWGkbky82WUPW6fdAFSdU+RwnuFwPYdkNSauEQFnFbbU4Yg9V+GdblPH+9TqNk43XPKAN54kKzkYbChrzdT0sT6GdSPisA0NUYALgbxZQzJ3RMsqAM0/KMOMqk2BPN4LvlJQqpCGaY+LwaUO6VmSfsnBYM0k3ZCZEoB1HTMvUqbrHutlsvWrutzVjq755T1G3uSw4AnZSJaW3Okvt7euSoUqoyYFE/xW6kDnQrSA3oUjOyvRlysoK8zTx2dUVlM1vQRFZdjkEVUVB/HwIaH2fUs6Kjhqsv0HvTkjs0GJp3CGeZ1yFWUkpmYaVax7CWVuqNYGycNhlKqD7twwnG2cqzpclpB2SWIZJCUnyRIlnk0dMc96uKVpbITfngaqQjArSN95svOa6GKNFCU+SzH3szm5NSyrhEWZsMpjqk2ErDVShfNSP6wZTdY8OpjyQf+So3jJWG9Q4kIfgu8RicOII9E1w6QkNpa6p8kHhrI01KWmLjSS65A+VdJ8c1PfYHs8oYxjEBccRGuUeIZRRpJUrNMYnNpWOHTeFL3Pmprw2QpZbfBZSv5ojHFeqJ1mWSZcLTM2sxQ1N6hSgr6mjv4458nkimeDM+4lM6Kms+Sq7nNVZVyWfeZVyrxIWVcR1glahRPrflLSiyusE5xTVFZT1wpba8pa4WsFtUAb7TSGxivww5qT8YpH/SvuJTOcV1zEA5KoZm0cEGyB2QjxDLK3jv7rguhsgaxzfJayeXLA5ScR5qurE1Z5zGaWoqeGZBWobROP7XuiUcHD8YxngzMepZdEYrmohrwtR7xej3m7HjBfp+SbGFc0vUPaoxJLklYkUU0S1aRxjRK/bcyA0JvQ/vdesE5R1hrrFCKeSbbh2ficT/un3DMz3tkBALVTSKGJFopoAfHc07t09N6WRBfLIK7DjPWTMZefRiw+rTCz3x0RLYWDOZh1UOqqD/mx4GPHsJ9zN5tzFK0AOC0P+HJ5h29nh1xOB9hFhFoHyuomi3AaXGLY9CI2iSXqVaRpRT8pSbQl0pZIWYxyxKomVnZb9Kq9orQaJZ6jZMWT9JJDvaT0mtPygOfzIxZnA3qvNdkbTzp1JFc18eUGNV+DtUFcHwyZfRSx+Ljm46enmAf/WBPNK3RhcbEmP4mpM0PddyQHOY9GM07iJWsX86qY8Mf5MS8uJ+SXKXqpidpev07cqyxIIahK47WiTgyLJGGd1SRpSRpXDJOS1FShtwCIlEXhiRB6uqKnKw6jFZkuWLge3xcTfnP5hO9eHpN9GzF46cnOKuKrAj3bIMtwhuMPhqwfj5j+WcTs05qnf/aGX558jUlP16iiwvUiynHK4oFh+dhjHq/4+O45j/uXAHy7PuLFYsLb6ZDyKkWtFVJ18ro2SGpPs9roqQ5+2C8VfmrYJDHr1DHNatJeSZZU9KKKnqmIdNMZhmdjKjY24jQfc1X2+OPlMYtXI4bPNaPvLNlpgblaI+sciuDi/OGY1Ydjrj4xLJ4FkP/t5Gt+FF9i1HKDT2LKox7zx4bFR47e0zl/fueUh70pzgsvNxO+vjxmejmAucFs1O54rpun3uYPGyKIB6lAVQrWCjdrQCcOSRw6tmgTuOtccLjOC7bQyMqQnGsmp57hq4r0dI2eBf8IQC/FHg5YftDn6mPN5pOcTx+/4eeTl4zNmufFCUbyEp8l1JmiGgi2b0mjmtorTvMxl0XGq9mYxVWGzKNtc8Y+lpaL1wZkN3zt2NQ3hatSwVyF6KtuxvLmyLL22zGTO+J5uRPTvAhHlHGE7yVUxxmLRwnTZwr3yZK/fvItn42+Y6g3vC4nfLW8g/FZSjXpsZlo6gEgntky5d/z+5RFhF1E6IUmbsqG23Cri6WNcffAdisW24atZrBt1lB1W8CCaOWJlw6zdujcoUqLLixS1kheIWUVAoQ4wvdT6mFCNTKsjw2rh0LxoOKDoxl3kwWV13yd3+U/Fnf56t0Jpro3ZH0vpjgU6tSDFappil0r4qmiPwtVtFBNb0occWhG9hG7lhq1A9rN6LbEaLIdaTlXgC58KFxtQnubWVnMukaVNpyiO7drG9AKn6W4XkQ1SigmhnKoKIdCNQynbZJYlkXCv10+oqg/5GLepzzPiC4VZvkwIT8MPQAI6JVGlxDPhOSdJ1mEw1yvQ3+djZrDoFi2bTvbylsH8DbIZsc5nYcyi9mA2TjMxqNLhy4sahMAUjeioQitALHCG4WLNDZRVENDMVKUI6Hug43DyZ3X4AvN5bTPJX3cMiI504zfCsnUYdZ3FHUW4tlwOhxqP3oDugJxHvE+GJLaY5paj9O7Esn7aq0t6DBvqAttgRUN15pGDqkdbbOH1xqXGlyisakO9iMT6p6E7yxIVZsmetUk5bnC5zGqEHpTRfa2iXkXFlOO2DVrNIWlttO6HAjOhAqdLkNm35Ym9BbNblycb/xp2+sg294iZR1SOlRZI4UNXSrtpQLXfGywqQngBpqqp6j6AaDtgY1Cjuo6fURb1agFbXdFungG0dKjioDNuPh6Mui1D5OmoIYSurbKwOEgdh6TB3EO4JrShvWoyjV9R00VULVVrEAEsT742UYUfRT6lVwSxLLuKeqebD82bcA1LULtscT+qfs2Z/dsD5dCz66ghpraKv4/mGN5mUn4dlgAAAAASUVORK5CYII=;" vertex="1" parent="1">
          <mxGeometry x="441" y="360" width="58" height="58" as="geometry" />
        </mxCell>
        <mxCell id="NisTQTtNLf6xnu39tymK-9" value="" style="shape=image;verticalLabelPosition=bottom;labelBackgroundColor=#ffffff;verticalAlign=top;aspect=fixed;imageAspect=0;image=data:image/png,iVBORw0KGgoAAAANSUhEUgAAAEAAAABACAYAAACqaXHeAAAAOXRFWHRTb2Z0d2FyZQBNYXRwbG90bGliIHZlcnNpb24zLjMuMiwgaHR0cHM6Ly9tYXRwbG90bGliLm9yZy8vihELAAAACXBIWXMAAC4jAAAuIwF4pT92AAAV70lEQVR4nJ2byZIkR3KmP7XFPfbMrK4GUABBYfM29znMc8zL8CU5IjM3coRNaQLd2ApVmRmrL2amPJi5h0dkZKHQLlKSEeHuZqa76q9a8i//93+rN5F9qPm53fD3XEbSxfek5nc9/3uu37P2rWeNJP7fz9+w/WWFe3S42gQSwjbM+fm0Li/KZx3GiN444KffvX7HoCQ+b7/rtW/t/znP77Zz3KOjehJcr5anfsF3+wf+6/1DfvIzGcCtA3zOu3/ve5+71q01J8/Zn2rmPwv1o+I+9kv+erznu48PpL8tyovDS1x+f/UQn3huSten1vl7GDAQdf3qp/YRWP1VWP4YqZ8jrxuUXH0WXm5067er+yoT2l57vjzwGxp9tfbveXi61+VX9+pN5TeJu/nbRHt+U6jD86Kg8hnP3yD6Ne0bFvsNRjn4hOP6HCYPz6ggKX+/ONNE+mdN0PH7uLPolQBu2+9nnXH67m8wwsXygCovRfY5G6ucHxNIXlGnYEFFkSRIL5heMHFcOG81GOBNyU5+e83Gb5jOb2qRShZSecdZUYwoIq8c5JVFLja1mgmvFJkHXB3wPiICfW/pG0c4OaQ1mB4klkPEQtvVoW4SUvyHTr9P/ur0/Le48ApnLn3A1IZfuSTJ6B+SU7RWdBbxi57ZvGM9a1n5jtoFQjIc+4ptU3OcV4TekaKgsUhOQJNAFEg3Djk9iwBGyz8Qkzkm5vyQqqC9gc4gvSBhMMvX1cJFldd9wPXP6SyC5JU0T9h1z3LZ8GZ55K5qWPmW2gQA2uRwJo3rhyqMy1qTsEZJCikZogopmWyKt44iYEwa3xVRjIAUqasKXbCcThU9HqLNrqacWQ1MbXWITu72dldX8Q9SFlKvpGWk2rS8vdvz5WLHQ3Vi6dpMqFra6OiSpYuWwc9YUYxJzHygshFnEgYlqCEmQyrCMMUsLxmgF7+bIomBAVENu7bm1HgIgnTZ90gqxE+FOhHsbzNgcI6iJA+pTsgysN6ceLfe8fXymTf+QG0CvVq2YcZzP2fbzdh3NYfOc2orYjQYo3gfsEapbMSgiCiOhLGZkJEB3GbA9WVECcnQBse+qekPFXZncUfJvkYgVopaXmo0Eyf4kvBiP4X+5EEXEb9uuV+f+Hq15evFM/fuyFBMve9W/Hzc8P6wZH+sCa1DG4v0JquhV9pZpJ33tLVjXvXYiYlMz3F91kH66cpkFTh1nv1hRv9c4x8tfivYNks+eUhTMU+Di4JzEs/cvo7pFA9fK7oKLDYNX2z2vFtseTd7ZuVaohoe+wU/nO742/6OD89L+l2NNNkRmThZywAHQ185uqpm6xVxCTHZmRkpjk3AmGwuZw0oa2i2d4CUhBAsce9xj47lY8nvT4oKhDn06/P+t5jgahNwJo62dPGcgVQrrAOb+yPf3D3zzeKZN9WBmek5xopfuxU/HO74cbdm/zyHnceeDDLEfMM56VGgF2wUtH2pj2lIliZ2epE8DT+UzxIF2wizZ2H2qzL/GPH7CEkJK0sjlrAoAlXN1mwGh5gdofPlpKrnU457eUWXkfX9kW/vn/jn1a88+OOF1H88bPiwXdLuauRgMa3BxMsscIjRioySPHN5kswMWeSNRO6yNikm0wtuL/gdVHvFnhISlTgz9AtDvxLCHFKl51zF5/uxAnWCixi65IjBYAKoLZmhU9I8Mt80/OP9E/9j8xPf1I8kNfytveevx3u+3z7wuF0Qdx5pbE5yUiHeTJKTgbdJUZOZfPbM5f5VIjTcGojXiVagmXh7Evweqq3iDwnTJ5I39EtLuxH6FcRZdoDJgdYJswyEpSXMhXgwuFP0tCEzwPcQzURNnFL7wMJ1ADyGJT+1G/7/8xf89LShea6Rk8WEc6xVo+eszVxRlATSVQmrnGuIJGemDaI3hVnD8wlMJ7ijUG1h9qjU24htE2qFsDCZ+I0QFiVyOUXrhF0F1qsTu2VNrA1qwZ1ixSl4UjCYXrK6DAeOwqn1fL+750OzpAmOXz5uiL/WVI+W5ZExzl6jT+OhbxGqk98KrWqLx66U5OQqcSmEB8F0jMTXT4lql7BNQgXi3NBuDN2d0K80q/kk/KlCSNk521Zxx4Q7hIo+mZyODvsNUkxC13g+xBXvVYg7T/XesXgvVFstJgPJZpW/Tl0Hpox+S89/p8SnCsIiE52ZUeL2oCwJpBdcI7gD+J1SbzUT32YXH+aGbmXoNkK/ZEL8kLpC6g3NqcKdBH9I+G2PG/G4QfWnEguCHh29WKQzVM+G+S/C7EPCNSVxcYLaQuwg5YEB1xVtuZ9T1JLBVUJn8xpxptlmqyKAIJi+OLtjtne/U6q94vfZ5tUIsRa6VZZ+vzzb/Vkdi3l1hhCF2QGqbcI9NTgnCW8S4hLq9JIJJYZLNNhGcAfBNprLWgE1Mkr5bMevF2WSNN9PlAxN6JdC+yC0D0q4i1CXBXqD6S2mE/y+OLtnpdon3LEQb+Us+bXQbyDOzw42QwwlBEZByg1/UPw+YA4nnDcRbyPGJZLnHAZHaZaqKuQFUyV0q4nDGlRfwcQzI64v0YINlPwgVkK3Fto30L5N6ENHPe8B6BoPB4PfCvWjZMJ3Cb/PKi8p+4k4N3RrQ3uXPX5YKKm6NL0z84Gyv+lBQlbVogERa1O25Qs4p3w0oJ7sWOrMkPPKjFKVkJnADdh/Snzy0K+ge0iktz13Dwferg4YlMdmzofOIY3gd0L1pNTbhD8kbJsXSJUhLM6SD0tINaPaT4PIgDRJzBwZz1Bb0nqeNaCyEWOUaK9S4uEyShLAZfsaCB+4LFq4q1fvDvjCxPOrhbCK2PuOL99s+dPmI9/Mn5iZnvfdmn/XL/holqMTTRV0a0OYCyqOWEOYZ6LDPKt8clOtlbP2CmPSNJ7TkH3GxiFpgTPoWJVNssyLlHOsCKeXMjGXS1jsFgyntoS4ZaS+a/jqfsefNh/4ot7hJfKhW/GX/Rt+eLwjPldUp4IhLLJXVyvECsJSCcuELiJmFjBWMUAMBg0GekF6k802ngUzaoXkZCyHXXNZDl9I8Dotu/Jsg4N5cZXNpo+rV+I8l9GbuxPvNlu+XT7xx2oHwMd+yV/2b/ju8YHm4wy3tTkncVkDYqWkGuIioctAteiZ1T2VyzVMTEIfLSFYQp//pSZHLunIzlxvnDlpQYWRUgtcETOl7+redZGSve3lsyq5mEqLiF93vLk78PXqma/mO974w0j8d4cH/vp8x+FxjjnYkl+ULM5DnCd0nrCLwGzeMa96KhewIxgieJuILtI5S+8tnXPEkwOx0AFxcuhBS43kPCCpnFHhC719KeBLD/NS+iPxBuIsoetzGf3N8pm39Z6F6WiTG1tyP2w37B8XmJ3DdgWuqnIKm2pFZwkzD1iXPVgXLCGaFxWsqqCAtQnnIloLKWVnMvqGK5/0eZDYxS7X2c3ko8IAjad5wqx7Hu4OvFvveDffsnEnAN53az60C34+rvn1eUW3rbPk20wANhdjYxobhXR0dMbSjRvmf1KA0immMAClYhTxCY2CDrD8VdE1gqIDyPBqI+E1qHlM5gFTHN0i4lY995sj79Zb/lAfmNuOU6r42BXC90sOu1nBD2QsqBj4WJBi6SflMuQQe1EaD+qcE6BQiji1Z88nAyiTyquTXOW2BnwO8SPhxfYHyS8i9X3D202297f1gcoETtHzvlnxw/6Oj9sF/bbGHC2mmSA2hnMpPdQjhSMvfMxQaA0SjXJudOo5SRvWkTDRgKSfMIHPJX4sW8uGRkmzhFv1fHG35582H/iH2RPeRJ7DnMduwY+HDR+fl/TbCnOyWboC6rjwHySQi77Z5B6cC63rTspg3wNvhnWgZIBDJqhI1HMUAG5CYr/7krxOUmHf1/wl/YFtP+PH3Zqn5yX6VOH2hlmT1RsDyWpmwDQITcvoa+KHR14Lw5fHuUCmJOQ02DWKbRUTJwzQ1zz7rZ2vLh0kojkheTrOOXaeLjiO2xnmg6d+NPg9mC6roJYKcFpNqpkkTI5LIGRK1aeuqyA2aIqYrFEmZAa4U0CCvkyErrn6ol93HSqnzyYhtZZjqjmkGXJ0+I+G2YeMH9iulNBWcs0/RZ8EVAR1kHzO+lI14HmvR96LowxObuojTIHEyBmgRHCnhN13SLxiwG/2FIfdpukuw47kZKMz0OYy1u2F2cdczbkmO55kB6fFWJicGaDQQyxpbCx9vVQVM7lCnabgyvksjCcagBW1WvxUrhFsmzD7FlLKDMjdYZ2seoMLg+ObMGWaOg+eeAg5psuQtYTyjs2PJisvVHsEPMt6JmRmSSyMiAIzRT2X0NvE6Q0V6Hh8AyRBk4IMuEZ2gLaJyOEEMebOEPCyPT4tiyfI7quXniU6tL/VQpyDmtwgGQi9RnjHLa/AFDVl6wQmSq5Wrx3k1Xn16vvAFImCCdkHSB/Rvs8MiFOqBilcJRq/69KzhMNCifPJqW4RPk1PE2MVl4meHGMwGXMlCCFD6gK3osW414BZRJCYIITMgBcPfg7Bn9psWKr08adh6GKf6/WGa9CCwoAByECyCSR3BkwzEFO0jUGLL7cYkixTkCATGHMAuJUI3WDChcq+8DQvZ4PyLRklfmt640V0ud7PQjLlhJoXT1Xu7KjRbGZByk7FvKbJ1NRRR8G0uWFqgkJK5OECh+uSo425MSLxyhy4SkmHv2nC/ZKb51h+HYSv6vAJMvE5aceYDErx6JWidUScokHgZM81w2thMmZk2bbk5CdQkjCLWIPrkyUkQ0oGMxBjrkLIlPBwzt2TywNRWilUGVkWUTSVUZV+MqpyIZ1XIs3ktl6qU/5jFTOLVHUgRqE3FQmLmXSzx47UWCcIthXcCWxT1N+AOAuVx/3Pu7/wtn6LqvBfxz+eTzBV+6JuopLTV5dVkSph6khdByofqEq9HqKhC5a29cTGoa1BOlO4Lxfw1HDoM5Wf0A6jWBeZ17ko3gN9qNEyETKab6kLTAB7OjdT/CllEzAGZjXqLO5/zf/Mt/4jSYUPhwUp5dI4JSFFQ+gtGu3Z2ThFq4RZBOpZz7zuWNcdtQ2IKH2y9NFy6j3GKJ1NhMqSekNs7Vkjgozh8lJnuQy5o/QBp1RVZF71uW+SDKHxaGvQyTCHKLn91Qj+ANVO8UfFBCVWQlxWY+hw/+wbvPzKv1fvWNYdMWXp9cESeoN2WXoEAVsmwpY9q2XDZtYycz0zm7OdoAZVIYrBmoQzCfUZcU5eSHUkRSH1NmtUn9c14WxaUkrWaaQZ4W6jeBuZubyftw7jE9HnYasR9SmdpGoHfps7SbZTYpV7CCbUVDObU+EHM2NnTixsHnBKWlS49cSDy5MeoRQsPuNyq2XDw+LE0nfjdEkTszM99Z4uWLrgCCEzRETLxEdEHWgVUc3TYRqztmk0l+Ny1052lqgXHcu6Y+k7kgqNd+xsJJpcOeVqr7TRtrltXu0TtleiF5p74fSlkJwh1h6/TzgvlojwHBY87ef0nSMdHXKyuAJWDL11mUeWi5aHxYm1b3EmcgwV+65m31ac2oq+c8SuQDOl5MUljE9YF7FWsTYWrx3HsTidolLk8RdNGa0SoKp7HpYn3s4PrHxLEx0wR1PWItsI7iSYltxD3CvVIXv9WBmaB+H4ldB83aPW55qgE9w+Nfxn/4b/8/SPhO+WuDYPHtgCvsUqd4TUKlUdWNQdc5dbWPu+5uNpwfYwoztW6ClD0bY4u8FxJW8yWuQtoUo4H7EuYW35V2oRa3ScAdQC1cUkGIG579nUDQuXpb/rZjwf54RthX+yVM/Z3u0p27trFUlntT/9UWjeBdZf7jkc76g/GCQp7vuQ+Nfjn/i3H75k8x+Ca8CERLJCvxKihzRTzKpnOW9Z+J4+lnG404z9fkbae6QthE9zewVNOQ5rzN1ZWqV3llCftcL7WAYncxQZhqUs4G2eL5y7HieJLll2XQZZDr8uqD5Y6o+l3G7ANWksu8PM0N5n4k9fB1Zf7vmHu2f+rdpgguL2EfdDXPN980C/q6i3isSs8nEG3V1uXPKHlrvNkc0s+4nndsbuVNMcK9IhE1+GQydJk15MfY65fC8gFj1ZklOiT3RVwlaJZsKMoUIdNCOqsO8rmt6x288JH2fM3lvqD2VE5qSYPnt6gH5haN5km2++ysR/e//EpmqQXqh2SvWhwf25+5LvDw+Yg8W2uesaFlJeTtg/Nvzhfs+6bkkqbJsZz/sZ/aHK4zGd3ExrL3Kd6echQenzJCetoLYwwymdT+Po3OAbRtwxCNJa3M4wf84jcfW2wFuF8FgJYS40D4bTV0r3Vcf92z1frPbMbM9TO8dvhdmHgH3/hPtz8wW/HpfYVjAx5ThZCXGWHZ91kZjKGGrnOR5rQnGSwyjqVPKvQosTLOECRFFy673Phb4ke+409zlEjq33UtDYJs8CuiZ7eCD3Dr3QL/K8wekLJX3T8NXbLe+WWyob2fc1T808d52fO3S7w/3Srjl1HhJEL2PnNdZ54a7xPPaO1Bu0sZiTwYZhbviME1xA1lcFj04yvbGZmibPc677pcwB2S6nrrbTse1uQjZRE3SEuJPLAgu1EGvoV0L3oIQ3gdWqZVV1JDU8NtlhP+/mrLeKPXRoCHlGSDVjcWO/fZErLxT06Eid4I4Gd5ggPI6xdzfUDCNao3pB3JkJ59p/KGeHJGgAK0wPps2E5/JVR+aM2IEU5+zJhM/zPGCsc7s8LBWc0nWOn7ZrUpLsr3Yet7csfkmY5wOhaXFGlNr3HJeJ7t6OMzYAps3FjDuBO+S/Ekux5C4R3eRkxOx0WpDcQIAGjD7P/2RpZwdWVD+cCR+ywnGAamhtu9znD/PssGOt5Uxl717ojp7u6KG1uGdLvc00zH7t0P0BUsRVJrCseh6XgW5tczNygKK6cshOzilqISDjfpeHu0R75JzOTu+lQfITgmOu0kYzSOf1Bug8FeJSdUaMY3WG0EekyORKK6fZZSTuKFTbnB3aTjFtyFpqLG5uexa+w1aRuNDxPxJQ0lCVIu0qbyKhSLCMwki8BNLHcZmpjRcmjRqQzkSf54pycTJggaloWPLZN6W6EOy57BtcQ2RwHoyI59TYNmBi1uxUWdxige1DBkWdyd4+2AvMIhchBoJTmJ1t1nTFZrtzu2k6AXbBhMEdTCa3si3reR+XVTs5Idn8PVZSiB18zZWkmZjX9Eq59hjmgYZRmeQhFOfbrz1+vUBUcf/6y7d8fF7CjzNW38uFwzqzdPJZJ9IrTLC9jjY8JCMSUkF5S5iaQDYycZLDqF2qTFZvL7kxMnGwyQpMRvLGo7yKKsmE0UVLSxjNZqZo5WA5x73/ZYN59Cx+Nix+TpfE3rquUt1R8rEwoUvYPiF9nuUrA/43zliYbQR1hhRsHtctDLBugNGzI/mkUD5xxhf9h3LFhUdmDmcec9+uelKqXXz54lVt/mKDq02SN6gzSK1I0NKK1lLmTnKB4UAipU9YcocIJimmexlKx72uib91xlt0lMs1ZdzOGf4buiyFmT/RORwAAAAASUVORK5CYII=;" vertex="1" parent="1">
          <mxGeometry x="200" y="360" width="64" height="64" as="geometry" />
        </mxCell>
        <mxCell id="NisTQTtNLf6xnu39tymK-10" value="原图" style="text;html=1;align=center;verticalAlign=middle;resizable=0;points=[];autosize=1;fontSize=10.5;" vertex="1" parent="1">
          <mxGeometry x="92" y="430" width="40" height="20" as="geometry" />
        </mxCell>
        <mxCell id="NisTQTtNLf6xnu39tymK-11" value="PCANet补0" style="text;html=1;align=center;verticalAlign=middle;resizable=0;points=[];autosize=1;fontSize=10.5;" vertex="1" parent="1">
          <mxGeometry x="192" y="430" width="80" height="20" as="geometry" />
        </mxCell>
        <mxCell id="NisTQTtNLf6xnu39tymK-12" value="PCANet未补0" style="text;html=1;align=center;verticalAlign=middle;resizable=0;points=[];autosize=1;fontSize=10.5;" vertex="1" parent="1">
          <mxGeometry x="425" y="430" width="90" height="20" as="geometry" />
        </mxCell>
        <mxCell id="NisTQTtNLf6xnu39tymK-19" value="TPCANet未补0" style="text;html=1;align=center;verticalAlign=middle;resizable=0;points=[];autosize=1;fontSize=10.5;" vertex="1" parent="1">
          <mxGeometry x="540" y="430" width="100" height="20" as="geometry" />
        </mxCell>
        <mxCell id="NisTQTtNLf6xnu39tymK-20" value="TPCANet补0" style="text;html=1;align=center;verticalAlign=middle;resizable=0;points=[];autosize=1;fontSize=10.5;" vertex="1" parent="1">
          <mxGeometry x="310" y="430" width="80" height="20" as="geometry" />
        </mxCell>
        <mxCell id="NisTQTtNLf6xnu39tymK-21" value="" style="shape=image;verticalLabelPosition=bottom;labelBackgroundColor=#ffffff;verticalAlign=top;aspect=fixed;imageAspect=0;image=data:image/png,iVBORw0KGgoAAAANSUhEUgAAADoAAAA6CAYAAADhu0ooAAAAOXRFWHRTb2Z0d2FyZQBNYXRwbG90bGliIHZlcnNpb24zLjMuNCwgaHR0cHM6Ly9tYXRwbG90bGliLm9yZy8QVMy6AAAACXBIWXMAAC4jAAAuIwF4pT92AAAS1ElEQVR4nJ2b2Y8kx3HGf5GZdfUxM8vhklytuEuJlARLFmAb9pvh48H/nQD73fCf4je/WIQhSJZl6yC1FMnZJWfn7quOzPBDZlVX9/SsaCew6Jruqqz8MiK++DIyVz74x58oQmwKwzXxWgU0C8jEU85q3j2+46Oj1/zJ9CU/LL9kbta06rgOE362es7Hl8/53avHhLOK6itD9bVSXXhsHbC13/YdQK0QckN9bFk9tqzfU+r3Gz569jV/+/i3/M3sf3jfLpga4cILv2re42er5/zi5ikvrh6xuKlgkSGNgIJowqAyuo6QHCZ90bcRWLWKZoqZtRzN1zw9vuGj+Tk/nJzxjrslk45Pmnf4+fIZv7h+yidfPCb7Q8H8czj6Q0d5do05vyZcXaNdh3Yd+82KUEwmnDw6wb/3iNsPZ5x9933+5cN3+bfvfsjfP/4Nfz39Nc/dij8rznjsbnk3u+Xj/Dm/yd/h3M4JdxlmbRAvWwyjTwUcIc6Eyu4ANFO09GSzhtPjJe/Pr/loes6z4oIjs+ZVe8zP22f8++UH/ObsXcxnJcdfCEefd5TnG+zFAmk7KHLMt95DnQUR0PR2EQgBaVp0U6OLBeaTFY8ujph98YibLypefPmcf/7eY372/H3+4a1f8b3iFaW0/KA4o53bYaznzAmaIWuDdCMgo0snY2v2IG0EWRzVvH205IOjS55W1zwtrvAYfr15wm+X7/DfF+9w+eUJ5Zlj+qUyed1RXNRI6wknU7ppRjextFODz4XgkksBasB0iq2V/C6Q3TS46xWsa9xXN5z4QLaquLmb8NOr7/HpB6f85Tuf8/3JKx67O95yCz6cvCaoAeC1zPGSYVcJrOwazw3gk1XVKVoF8nnD6dGSb8+veVpdc2zXXHVTzuoTPrl9m88uHtG8nDJ5ZSgvlPImYDrFV47mOKc5tmxOhOZY6KZKyCG40awKSCeYRsgWluLaUb0uqb6qcXc1ZtMxeVUDBW5juVy9zb8uKj59fMpH89c8r15z7FZ8OD2PIWAC52ZOK0Vy412rDkBVQC1oGchmDcezNafViuNsDcDX7Zyz9TFfLo45v5rTfR3JJr8B20BwQju1NHNLM4sA2zn4UgnZAbcBQqaog5CBryRaf1IxOc9wyw4JSn7nUQPBWpZM+Z03LJqC5UnOB9UFj9ySD6eQGY8V5ZX0YO0WLODG5tUsYKqOqmqY5g1OPGufsewKXm+mfHU35/auQq9yikuDW4Lxihpoq9iRL4kgZ9GKandB3uMCAc2V1kJwccLUOKpLwTQhWqtV8luluxLWk4KLbEpmPbnpyMTztltgKsWgGFHOOKKlwKy2YLcWzRTKQFG1TIoGZwKrLmfV5Syagqtlxeq2RJaO7Mbg1tHdgxPClhdo59DOFF8ARncAjds9AjSKL4TmSDGdIMGSrQTjNcZ2AFuDWRnqdcZlNuFz94jKtmSmY243PClvqIOj9pZzbwmdQTYx9ThIcVkGsklDVTRkJtAFQ6uWTee4XlTUdwWytLilwa0E06aB2pFlHHQTCHlCMqDc/bN/YMDZ/yhKyIVmDqYVRAXTyhBnpgG7Ab9yrFzBV3ZGaVssgXfyOyam4Ul5QxMsTWe5ag3BO0wjkXWDU0zZkeceI9B4C94SVLhbldSLCNLUBtMIpksg3W4K7ioIhaJmlMD2TDpO5FvzJiQS//lSaWeCrQVjY3gAmFZxK8EvDV3muNEpL1QIavAzw7FbU5iOt4sli1nBpslYdRUaHC4UCpUnLzty1xEUCJGyN62jXmXI2saZBSQQXdWNBpoG7SvdZdaHQPb4Rs9r+l2JqaeroJ0IWVAkRBe2tZDfgjrDxjl8a7j2U3wwBIRnkysK02JQjvINJ9M1dZ3hG4PTPGALj7XRXQUwogQVNusc3USQ2nuQRNdM6Wtn8D7fjl5l5K4JgQpbedZrh10PH1rIFF8Kbp268OBCvEONEDKhnRm0zbjtDC/Sc4+LBYXtqGzLabViPcu4bizOVB1Z5pE0KgW8Cm3r6NYOaRMiA9KAmsiyA6DQk1KM9fGod8im907VCGiQabssNQgKiQweMiG0ioToTbZVdA3ZncR02AihEe78jN+r0J0YjvINTgJOPLOiYVm1ODEQgtA0W18UUZp1hmzsjqQSTbm2B5oEMz4S0X4bD3rAb/bv2ovnkTD3pdJVklJE5IYxMZlGUBOtjVoWZsJLE2hnlqlrCAiZ9ZRFGyPNdxbVxAmiaBB0HdlqxyIa41PtCEj/vesDjcMs2/cx+jyYcnoCDjoICeNjHGiznSzjE0ABPNha0FvHbV5hTKArDbmJSbTIOtw4TlQBEcLGIrVBwn1rqNOtVQIQtmlih2z2SEdl97ud7/tHtplkeEdXKaaRuDJRjZNhEiHqVlaqRAt3y4xVWWAECtclXIILjd0OQECMIrWN1hTdZUYbXXRIHz4mcjUxfg42OfDdeBL218B7z4Ui5lavkYR6r4mqC3yR3t17Qm1oNo61jQNyNlrV0W0fxiiKxLg0u9MvnSRrKqTZVk2g7d5SYUCw++f+Lfesv+fakCbXJgtmEZRa8Fn0rlAEJAj9clM8hNrSFYbOmoFkI9C+85Dynd8OahAtATREYhjiyIN4uadnH2oHwQ4/3gfZt+AU8UIY9dEvBtRpDKE+vlWgM6gKQQVNL3TR9wETBbg0MTaHMopsZ8pI9PdhEnyagAOMe69qkUAcYuI3tpS6QDFj1800kqLsTY7ESfGdpbVhcFZnNiYFuKJGsBuJoCUVBHpQIeXM8cQHdpZCPYAH4+5NgN/gFCHX7UO9EVw0zI6c7PsKEFpDKw5VwZiAs028UU3MSXaTEnGKxbE4GMaTVM0Yi+4N/mB62Qfcd72je3f73PlOifEoCh7ESBQ0Q3xt79fWEFzAe0HV4AZBkAJPhhpS5Ho1ydr9dUovokC3zQf7wPZVkRxy5f46ycL9FCQSZ1OJedO0W/EQc7miIjF0xnxoFFpBM0MwMXjdsBIhMq2m/NQLbPEgKgSnAwPqUDmMHe675D1LsAtinLLG7d5kJfUhGllfuggYYhghghol9KHWd64CQVCNN4vRtAbpFZHEeBBPZOBBjrHjFkhMQ6Q43g+0sWJ6I+mMwO+zfH/dZ/Je6/b5WqVn/ThWGbnvwC/EBYq1AReSAIjBnTBZEB8DX1LKidZMeXQILNkZnI79eM96YyA7oGT3ft3r86H8K4Fh9TOekEF/i4IXQjCEEHCIDiw7KB5kIBQN0XWCJQqFnpzCGMXewEcpqF9obpdso1x4MI51eH4HrBlZazyDxLHIXnwjAo3BmzghLr5Rx14UAes2Z6kmEnI6ULqMqwIHGHaXfEbAe/fe/rT34GGwahW123DSUf68x9zEMZvaEAwEBdezGKJRyu2Ob+isZ98hQadZHgvx7YP7Ax+54H487z/7AFg1MXziQqIfz0MdxK/jMs4kiz7U9ikwuXj/vZrkLrIP4MF337Py6GOPhXa/UwQMBKuYIMNkD2C571RCjGPTQTCCGzPuoZfdUzo77DtGtX12DPzB/DnGIgeITHZvUgQNoKoxdaRUqI7798fUGftO+txFJt3OjoTdh+6XKUefYyW0/7tsXW8M6E2A35iKkkQNDiTo4Mq94N8tr8aOxovz+667P5h7bDb6PJD7dv12ZOXRD4fwHFzCHSKq5LKDPDUwLKeG+5JX9LXjIDjTJjklCt2BJdcY8P4oe7o/YKHh3rGFHwL1UNt/t97/6eB9/djMgBdn6+SyqVThqwfeaRWsgkvSRATFxBzWHKLeLWt/Y7F/D8Hou2SdvrxzMKuNAA9r1iRdnakZil0qsfJ2rwlgFck9xsUoVy9RJaqB5j7K/VrQoeuh+0Ouv++N/ZIwiQMFxOx57SgVDmvWLKo512vHQTeq3CujaAJqnGKsxxglSOT1sL+dvp83v0H7Ju4fGRSM7wlOo7DvWbt/V8r3+6UfNwjl5NOmhVA8MKCd2UviYdC+36wdIMedazkUb4zA9p+jaBnk4bCG1qEeLWlx4oa1ZerAtEIoDuSy1qBWh/Wd9hJxT6r1gxoG/YZJOGT1Q6sYtaBdLw50+10P0G4B9oW7Pof2+TRZNCkOk7blimj2HqwoSCtoJrG43dd1k0U1U2jljxPNA2D/WNNM4+aXkVEpRWOJpQc6EjzSGqQVpN2+w6EpPlEwaZuui+XEnQG1sl0WSZwmwSDpiI60I8v+H1z5QXBjt3YRiM/S5KdKBy5Aa3Y5RQVTy1Ap6Zd0TlSHap7EUj1hJUMpcagCjmNHFJG4qFUbUCf0PnPI9f6/AMf9DG6ZiBEXMFkYkWEMJWkMbtlX9rd9uOAkLrL7FiIhSRi2SXfKINYGsiwxbxAQG0ugTnc2pL4J476x9Cl7vw2fyZvM6GFlKGLbdaxkjvsUBeeLCMx0QAcWRTeCW8l2K7CXe6kCZ4ziTCBILBCHEPDZLtBv0r5JMVszPchaGgTt0pmitDUSj/IIdsM25aTHXMhAjURC6hTtokJSJ/gcfMVQoJbWELwlBB+JywSCjXVTnweoo1J6Y/tj4PYmQd2ow17PqYBXpDZxJz4IxoNbCtmS7fmKXiFZcN00bpnbOspACYptBF0prhQ0A9+zWieE1kAZCckaBXzcrC09YWMxmzerpIMAH8itGIUsavB+tSR9WkOwazO4v6kFu477pkO5JnUfXLKoL+I+httodGEfb8nv0o6zjS4kCqExhGCwRsnTtpw1Ma+uC4u27rBV5YHrvb/HcatOERuipk7LrWHfp96eDjNdTItuE4/dDRqb7fiduijku2RV22okJ4UsAVUHnUl7IJ3QtZZQxo6cCYjr8LnQTBy+MZh6tK2te5+ye/1G+Zf4QUw6DtAvyYIMZU/TRQLKFmDX6f7Ub8gEX0I3SXXdkMdTIG4NugZbx8OIpks1l7RdoZOYa31jab1lmrcUtqOwMdX4YLhrbNx1a/s88wCIPQvuTIwSXXYUnwPLiqJpT1c0umy2gGyh2DapJiODl/ocNEsL75Ap3QwaHw9KmVZwq4Dz6ZCEbsF2FtQLXWcxohSuw4knSxuuTevYNAa8Pbw5fEAq7oMOjnjAq9zuWEPkBe9jscv0ByZXkN8pbt1PBHRlVHddRTxwmWlURkjsvKugnQluI7gNuJXHbgK2MUhwA1N01tJUjk3nOCogtx5nIqpmamkbh/eCbMzB9eXD+zASl1VVPCdcVs2OQ3Te4Nc50pgYk0vIb5R8EU+WAvjcEGy0ZCgYtlhGR1GUUESgpjHYBkwdcMsuslmrmM5hOkPdGWqbc5uXzIuamas5ztfMXc3ENYgo5zLHS4705w8esuhog0kzJVSe7KjmZL4mT17iVahbx3qdE+4yiktDcSXk10pxG3DrEOtJudCVQjeN1vSFDoU6N07OvQtLkPTPYTrF3dUUXzXYVYHbFCxrg3jHWiZc5C2n5ZKZrXlUrtiEjONsw+9cx0t3RH1XwMbGKgQcBBzytEU/6ZgdbXjv6I7TcklQ4bYp47HVdUF3WVK9slRfK8VNIL+LHucLgy+FZmqoT+Lx2W6qaQM5NrfDehpLD+08IceAZlSquIs12fkCt2jIFhOyRYatHVd6zKc2UJ22PC2u+XZ+yffLl3w0+Zr/nD7l97dvcX49o13k0BhMYyAtuTTTeHR22jKb1Xzr6JYP5hecZktatVy3E87XMy7uprRfVUzOLNMzpXrdkd22aZIsvjTUc0NzLDRH4Cf3j+q5FBo7q46QK+0RaY/UoCZnAriLNeZ6QbnckF9NKa8r3NJxUZ/yH63DPQn81dHv+VHxBT8qzvjT6nM+PX6XF49P+Wz1FndNyaLNaTqHs57SdUyzhsflgifFDU+LK07tgms/4ZfLb/Pp3SmfvTzFfVlw8geYfxHP65tNJKn2pKSdWzbHhvpRsuREd0+wDUBTXtsXwSFTujlsRFBrCa5g4gy5AXOzxL68ZHpbkV/NKK4rbq8e8a+3FS+fHbF6nPMX1Qt+nL/mx/lrrqeOy5MJt6HkLlS0ajEEStMyNTWltJTSsgwFL9rHfHz7HX768hnLz+fMPrMcvfBMXtW4qxU0LVoWdCcl9aOMzaNdkKFfyt0D2nvpngzrwbYzou4tDD7PmZSGssiwr2+RmzvymztOz+fMzo65+6zgk+ff4b+ePeXp00v+7r3f8ueTz/gwO+cH2S3HZkMhC6wYVqHhdWi49BmftI/5Xf0uH18/55cvn8Sz+meGd74IzM425Ge38X9TWIOWBe3jCeu3MzZvxZjspprODW5TzH6TD/7pJ3qwxMg2dsXH3eb8NjJddRGozlvyrxfI5Q262UCWI/Mp7ZMTVk8K7p5als8CPNnw3lu3fPf4NU/K+H9WMvHc+IrPN494uT7mxdUj7s5nFGcZ0zNl8nWgvGzIzpfIuo5WPJrSnUyoTws2b1k2j4R2Bt0sks5Qj35AXv4v7v6Fq/ADPm0AAAAASUVORK5CYII=;" vertex="1" parent="1">
          <mxGeometry x="561" y="200" width="58" height="58" as="geometry" />
        </mxCell>
        <mxCell id="NisTQTtNLf6xnu39tymK-22" value="" style="shape=image;verticalLabelPosition=bottom;labelBackgroundColor=#ffffff;verticalAlign=top;aspect=fixed;imageAspect=0;image=data:image/png,iVBORw0KGgoAAAANSUhEUgAAADoAAAA6CAYAAADhu0ooAAAAOXRFWHRTb2Z0d2FyZQBNYXRwbG90bGliIHZlcnNpb24zLjMuNCwgaHR0cHM6Ly9tYXRwbG90bGliLm9yZy8QVMy6AAAACXBIWXMAAC4jAAAuIwF4pT92AAASDklEQVR4nI2a25LjRnKGv6wDAJJNdk/PUfJqpZVk73ojfOGX9Iv4oXyxsfZ65dVoND194gGnqkpfFECCbPaMKgIBAgQK9VdmZf6ZWfLtf/6HouSmgmo+AyDjH59vIuOP4Xl59lGefIvJ9852rsffOO1uOsRpPydDd5/r/Lc21WEg44d+w+t6+swXvvnkeTg/QU/6zSfHb5lVnp/Rs4P5Ql/nX5Yn0nsC7rTfL03o5PEnEv0soOmsTz56BFDh7OR9SUvkMLKnAD//6rNNmUj0dCCfk8YpuKmqKs+vkVGtRT+/fk/f+xzA36o0Qx9P1+hnAH9WcqfAhGNg4zUnqnk6WfvfZ9b71OhNpPXFpuDGDs8u9v2DZyR1qp5mYnGNZjBToMPgNQqaBKJAAkn5/ETNBTCgomA4b9HPjfkZ8G4/q19aB58zDOPAJlJTBaLJgKIgvWA6wYznDkwAiWAiewmpAbWQLCQPqdD9WZ2iVsE8swxk7OcpGEf6DSDPNXPykjJIyRxAtYKrBVuD3yquBtcotk3YLiFBMUGRdFDFZIVUGGJpCDOhnwlhno84g1gpsVDUj6BPwephbUwm3h2th2es6lEnYwdjG9RQOsE2BlsLfgt+rRRrpVhHiseAW3eYbYvULfQBDQGSgqZJ/waxBrxHqwKdl8SLkm7l6VaWbin0S6FfCGGupFJJXsEOKr43eiegZVyj50z/Keij6+HeCHBn8FvBP0J5r8xuI8Vdh7tvMOstutmidUPqOjQNBskIWItYe+TT1BhEBDYWKTy+KnHzinJZ0V+VtFeO5kroLoX+QohVBoxlL9096L0ug3tiGeGpwTkFrVmSpjHYnVA8CuWtMvuUmP3a4T9tkYcNut2S+pC7cA6Zz5CyhLJAS496i1oLVvKiTiApQR8hRCRESAlpOmxMmC5i2xLTF5hgkCT0KgSBWHJ+3WoG6/ZG5EiaTwV8OgES8jp0teA3ZDV9CNhNB10PziIvrmBeERcFYVnQrVxWu5kQKiH5bHhgMEoBTKe4Blyt+G3C7SJu12OaPGGmDhSPBrUOtYbkhOQgudyXmvO+2h0BOAV7DvCotgkkAWm4dEK4sKibw5sZcWZol5bmWuheQHeVSKtAseiYVx2zoscOmtJFS9s76tbT1x62Drs2+LWjfHAUDwXlOuI2ERPzO7ZVbAOuhlgKpoDoR+t/AkimXPdce/LSuFYH32uyFewQ4kyo3ziSg1hBv0rEFz2r6y0/XN3z3eKWr8t73voHlrZmYVoAenU8xoqHuOB9d8n/NVf8Y3vFh8cl24eK9s5T3hnaB0fxYPG7hO0VNYKoZs3qQQJIFNTpUyHJKTN6zjBNpUkGrx6Ci7Akuxqn2CpSzTreXmz53cU9380/8WP1gW/8J17bLUsJVAJeBDuMJKLsVFkny8dqwd9n1/x1/pa/zN7wv/MXfKyW1POSMLeEueAfLa5WTMzqimTNkjgcSQaHcewhjoGeA3nOzVgFr5giUlY9Ly52vJ2v+f3iju+qG77xt/yTu+PaNixFqcQMoIRelV6V5kSV5hK5truje0YUAW5sopUKNS772TJLEc2kQkdfqmSWZSYI0TMSfc7qnj5jFFskZvOWN8sNP64+8q+L9/ypfM837p5rE6nEEIFG4WNSdsnxqCW7VNKoJ+rB03sJFBIxJHosVpQL23BdbHmcVbTBEYIlRAG1qBVslyWpMhghOwB+xq64I4C/hSQLiFWsi8yKnsui5nWx4bVbszQ1BmWncJuE+1TxMa74Nay4CwvWsaKOnjZ50vAxJ5HSBOa2Y246vEQiwiZWJDUUJlC4gHOR6LPPjAkwgsTBEHpFR6trTwzSWdWdSu1cpC6KGMVYxdqENYmkhk0s+bm/oleLl0ivlvs45y4s+Ngtue9mbEJJFy2qQkJIOgJNeBupbE9lA6UJOBNJaqijZxcK+uE9TOa7yWdbIpGBNmawuDNWd/ASbnSoB0J8AnZCp2RC3FWFtnfcNnMSwq/NkpntAejV0AyDrIPPqpeOSekI1IgiolhRvI0UJmJNpoV9sux6T915YjSgWWLqlSQDu5LhntPBh56nse5w4xlrey7uUyHGDDQmQ917CheOlnhSIURLTEJIBlXJUuE4JBQBEcUMhwwHQEqGLlja1pM6m8dpyITeDH6cA1CmZOEEzkF1R9dyDq/mEanRwXwrSQx9nwcToqHpHWYymwpZTZOQkskMLwnoQW0hS3TUFhk0BUBTfi4Fg/ZDuAdZfY2CFVQn69DoIaJKkxj5KMOwH9/nrJHC3kcZIJHUokkRIxijmEnopkM6UzUH2qNENWUQ4+dUjqWg0eT/0zDg8beQ3ZpVxOpxdgIOKjtq5wknOCEMn8E5sVB5oCZHIiKIkTyJY6rktLsRoOaBH2UzZLgesw5RkPGsHALyIegWlzA+PfHv4wTqYJFzDvbwv5tSugPzOYdTj57JYHMkc3Z+Ris96etJzmnsLgoEQXoz0LkJSJOtqg7StD7hfDzqMyUhYY9C21Pr645AcCzuZ0HDIc8zSuMJUAUjh2jiXL8TSZrWYNucYpEoezKQvCImAxWf8EWg9GG/nqMKfe9ISTNjmI5lMqFPKeAJGX7SPqfen9OI59bTkE+yrWCbAehoTQ2oG3xkkSiqnlnZMfMBI0pSoQ2OlAx9bw9L4HRM+hwFfG6w4/29tp+JFEYgE597BFYnnae8Hk1rMK1gWrLqamY5yUEqIM0SftGznLdclC2lzUD7ZJ/45z24sQ05safG6AuG96gNacjR7x2Bmrrmo4ISe5WV3mBqwdVgG7BtDr7VZLIeSyXME3bVcbXacT3bMXfdXpoxmeyCBre1H8NJrlh6OUMBpwP6EvcdjY3J1PC0H0XOq3ocQRrcTnC7DNTkJEKWpIewULjsebHa8e5izco3eBNpo2MTStroaHpHCGZf6Mqxgg6SHJZFY04Iw3OgzybPOPZV40kPanm26KSCBIPdGdw2p2FsTQ6mBVIhxBL6CyVdBV682PLV8pG31ZqZ7WiTYxsKtn3Bui3oOkeKNnsBGQzXsEQkDume3eckegromQc1yUR6clDNaVJ8VGMF6Q12a/DrDNJvNceW5ARXmEN/qYSXPVcvN/z+8p6v5w8sXUNIhloLmujZdgV1WxB6RwpnDFAaMpR11pjzhOFLllUmoz8xLk+KTWNLA8ha8BvBrzNI2x1AdkuhfaH0r3tevF7z/YtPfDu/5cK1RDVsU8lDX3HfzNi2BX3nSFGOvjeWO7LKDgn05lyYdgryyfUE4JAcftJODIKMH64FvxaKxxFkVtdY5hxtN4C8fvPIP1/f8P38hhd+S58cd3HObTfnU7Pgoa5o2wFkmlTplQwymOyXm0M+yR3XK04Y0nPtuQDgyNXo4cN9Xid+LRQPOYNv22w9QpUz7+0VdC8jy1db/nB1y4+Lj7zyawA2WnHbLfjULLjbzWhaTwz2wIsnxEOGpPo+YZayqzpTNvwCyBPj84QknJAB05o9yPIug3RNfiZU0F0I3RV0ryLVy5rfXT7w9eyBpW1IaniIM35pV3xoltw1s2FdWjQ8Q/6DHCikgViMQM9J73TQp/+d4axHLWXuamuD2xiKR/aSdO0QVM8M7aXQvoTmbaR8s+P313d8s7hj5Rqa5LlNC267Be/rFZ/qOdtmADmWHk+MnkzCs2QFqpyFSEkO9VGGuPAp2GcmQmHPjE5ATi1rcQ/lg1JsErZNJCf0C0NzbahfQ/s2sHiz5bvrW75b3HLlcybwU59B3jQLbgeQT4zPqes2OWuYBHC5hjUExmP08gygfQ/PgJ7GY5Oik9sZ/ENW1epe8ZuE6RPJG/qFYffaUL9V+nc9r98+8OPVDd8vbrh0O5IabvoLbtoLPtRL7nYzds3gRo6MzziGHDyQJkGE0UnsmsjpzlOues7qPud2phHIiaqWd0r5kHC7hIlKLA3NlaV+LdTvlPR1w7dv7vjzi1/4w+wjl7YmqfChv+S2W/CxueBuN2Nbl4TOkoI59tNHk625moaCAeMjvgwsZi3LsmNVNiPQkzdPOzu3FscPDHTO7iaqeq+U64hps2p3S0tzZajfCM3bhH234/vXd/xx9Svfzz5yaXf0arkJS35uL3lfr7ivs+EZretY7zkbBY23jGJcwpeB1aLhd8v7fVL9aUniVFqn1zr5Hc2xqt4r1d2gqkFJTuhWw3p8o7TvelZvNvxwfcMPFzd8VTwwNy27VPKhX/G+ueQfu0tu6zm71mfDoxnAnqBNg+uTiR9TsUURWJYt72Zrfqg+8ufq/3A5H/PMAn3iMjjM7FAfdVuhGECW9ymDnKjq7q1Qv1X0q2NVvbZbgD3Iv9cv+LBbcdfM2LUFIdg9JxkTX6Ij5TwhCUdgE1YUJwmDYobg1h1z0mes7ng/CUSOVfUhq2qxzrVMgDA/gNx9nSi/3vLHN7/y71c/8WP1gZd2Q0T4GFY8xBkf2hU3zQUPbUXTO+KeCExyTQOwI985pZtWURE0mcyJg+emW/A3+4o2+RM/Otb/jwBPCEAaIo+NyVK80+w61nnzhRqhW46qKjTvIvOvNvzp9Qf+bfUzP1YfWJqabSr5JVzyt+YVf9284ufNJY+7irbxpNZCb7LTD4IEMENqZazH7hmmcAjQy4SWEK3SdY61KfmZSx67iv9xL6dh2jOA92EXEATTDHRuA8VG8XVCkhKL7DrqV4b6DbSvA8XLhqt5jTOJj92ST/2COhZ8aJb8slly97AgPBbYtcXVUA3c1HQ502C7TPpNP+5eGYZnIPlhx8pC6C+gXxmCAXVKtDYXlaPloa5wNg5Wd9qOXIkcFn/KnFV6yfuDNG+VCZWBCkKZd4w0L3N1W+ZZje93M+53M/re5mr2xuEeDcWjcLEGv1F8PWzJaRXTJWwbMV1EupCPpoNhPwMiaFWQlnP664rdGw+YIY4V1AupN/TqCD0582/SCWGYBM2noGXI70DO4/SLDLQPkivfJYRFDpjVJ+gMXVPRd4LbGvyjsBiscnkf8I8ddtshTY/0AWLeoKEhQAh5i06MpBDQPkDKEyfOYS4W2KSkmcP2LhebJnGwRkGHsmQ2ZuZUooPvGFVWQaZOWrJqhHkGlqvM+fnkc7YueYY0CXnHynrYsXIbqT51uLsa87hD6yZv6ogRNSMNNZnlABQesRVmvzlKoPBoWZAWFeGypH3haa4MYZF3lu03V8WDgVWTZXgmCzgmX8gFnaQZLJlLasGhmKMcTQKDnzNdDnrz3iOl2Ci2ThAV9ZZ0MUcWM1Qk11CcQa3J/3lDKobdJoWQnBC9kHxOscRyOBdZs+KwqSoVgyaN8vpsSWJsUyAIyjHYkUcec132fHefgZS8W6VfCuadQaLPyjLu95tsm5lqhHolFQm8IkXA+kRR9lRFz9znql1IhrrztJ0j9Q7thkLUNK87ZClVT8M0mRz7NMkBbJ6ahKkivgh4H/E2Yk8ygHEoKkUdKmlAGsqC1kYKFyltftebXBOtXM/MDofpuHAtc9NxYRuu7I6FaZlLi5XEOs34qXvJX+o3/PfmFe/XSza7ir51aDBPeYGeJscmSYY98GnN0SVcGblYNLy62PJ2tua62LJyDXPTYSVhJGFRvESMJLxECgl4iVTS4yVQSU9legryMwUJL8OB4gUKETxCKY5SHHbY8LFLHe/jA14Cu1Rw2y14LCraPheLk5K5MRxIRZIz7mUEPG0DBRtBfrV65F9Wv/Kn2Xu+K254Zx9Zmh4vWVssYIeBejEYDFYEM1gLM3zUih2e/nLrNbLTjpsY+Sms+Kl7yfvukse+oov2kMSe1oPGICD9luTYIFnjchVrXnZclzu+Kh74pvjEt+6Or50wlxleLFET6aSTRCKqEon0RJIqESUBneZzVOgZikYYejXDdh1Lo55GK+7jGz6GJe+7K/5RX/GhXnJfz9g2Q363N+hQctyv1cE+ubMGZbwe2dFQSzHD3oKghnWs+BhWLKQjsaWSGoBG7XA4enV0akmY/TnuATh6tXTDeTza5PPvZGmTo01+ONv9vohNV+a8bufpe5tVdsjW7wvGZnCRNmvkMQU88ZlHa1YhBMuuLfjFrOii5UO74r+Kr1naJm+bUUOrjl0sqGNBHT29GkI6qKc5yUMFzfWTkAxBc9EoJkOXLDEZ+uF6b+DG62hISfbVczGTGtBEE8VkI/j/JC3/tVIJffgAAAAASUVORK5CYII=;" vertex="1" parent="1">
          <mxGeometry x="561" y="280" width="58" height="58" as="geometry" />
        </mxCell>
        <mxCell id="NisTQTtNLf6xnu39tymK-23" value="" style="shape=image;verticalLabelPosition=bottom;labelBackgroundColor=#ffffff;verticalAlign=top;aspect=fixed;imageAspect=0;image=data:image/png,iVBORw0KGgoAAAANSUhEUgAAADoAAAA6CAYAAADhu0ooAAAAOXRFWHRTb2Z0d2FyZQBNYXRwbG90bGliIHZlcnNpb24zLjMuNCwgaHR0cHM6Ly9tYXRwbG90bGliLm9yZy8QVMy6AAAACXBIWXMAAC4jAAAuIwF4pT92AAAVq0lEQVR4nI2bSZMsyY3ff3D3WHOrqrd0s5vsIUXNSDKdZDLd9BGlD6aLDrpouNhQJKdfv6XWXGLzBTp4ZFbW8no6zNIqqsLTw+EA/vgD8JLf/c//oQAIP3vp2XPRl387v47PX3z/+Hnx8CsvlVee6bN36NnYn7ncacDXXvZsHpXXhX6+kOeDnqz5+aL+jUW+mPv5d/+NtQO4V1/2C774RMAn9/Ji3FHM05p+TguvbfzXLOT5d37mcq+a389oTPRMq/Mn3yuYeVXH76f51yR5sTrPdz6nvLLwkzQ/s/JfagXz9dJ0n2n2uIAnfnkuICAJJEr+pMd5VECdkgoFCyqahU6cfh7nfuFzPPv9fEOO7zdPweKrcwDul5jpawKKgvFgvOA6odiDOyiuBxMVNRAqwS8NfglhqcRa0WL+HFf1GnI9eSln1vBoGc8FejHNM4275wNefe05WiawXrCDUBygfFDq20h9EyjuBsxhQHxArUHririumDYl09riF0KshFgK6iA5UDNvnnm8PwcYScwWACbkzZU4W1FSVAS1kApIJcQSUqX5d3d0p9lH5Wd2Rs+ElAhmFIq9UD5Ac5NoPnuqT3vk9oG0P5D6Hg0hf8FYbFPTti2LRYO2NVo6UmlRZ9DCkKzJQlrJHyMvAEmSZkF9woSEBEVigqSoNcTG4deWcWWZNsK0EvxKEfuoOIcB4ivqPAccBQmCHaDcCdWt0l5H6k8j7ssWHvboOCIiSNuiquA9GhOp6+BwgC9ZcLEWYw3YfI+1YA2IQZwFY55Z05kNxoimLCApL1qKArdZYYcFaEUsLaaVF/7qYDYZfWrWJ6AJgvFkLW6hvk3UN4Hqusdse8QHWLbo+yvioiRVbtZ+wnY+m/LuQDp06DCiMaLBn71IQSQLLQbMDCwiWWhr8721TzfACDgHTY02JbFxhMYQa8nma8+QXI9g9BzRjpvpZy1uZy3eRKobj9uNyBTQtsJ/s2a6LOmvstmEJm+c8VAclHK3prpPlPcT9uCxo4cQkRAhJYjpJNwTLYqg1szCGtRasIIaA86QSktoLGFp8a1hWmWTDUsIM+g90agEQV1GydN7FMyU0bR8gPpGaT8HytsB03mwQrhsGa9KureW8UqY1hCbOZQIkPIcxgt2cNjRYUcwXjNaB7CTYoLm8DKDy3k4USM5RFnJGrKQXNZYWEhG84USS0XLhLo5TiVBJpNBaw6Rzo4QT4iX45yZBHc4E/LLLOTg0doxXVT07wr6t4ZpA36ppFJRy2lmMTP6VTm0vLgUTJATmTihq/IKGZnvmeNyregi0KxGNvVE6TL4Dd7RDRXDvoQo+TPL7kwQYoJjpJcAtheKHVT3SrWNuD5PFNY100VJ/9YyXAnTBmI9C3m0iK8x/ZO5PA5JRp/ExSes6Sxe5zH5S+pAi4QtE4WLlC5QmERIhpQMwVuYDOJl3sgs0xMKmJF1jo9bpTgk7JjfHBcF09rRX1mGN4JfK7HKO8zjPr3Q2gvKp3KCgRfPXu7JaR4ALZRUJUwbqOqJ0kUECMnQe0c/FoTBIcGcLMSMguvBpVLBZJM90jiAWAnjxuAXBtSRCvArYVpBaPVRwJhR+Wh25+D2ROajxmcTxMxKOtK4EyGRMy0+cgctlLhI2JVnsRhoq4nCJKIKg3cc+orxUMJoIOSXmAh2gGIHLlYze5g1Eme/6t9BqhJaKpQJVweaduSimrCiRBVG7/DREoIlRiGlpzFQRFEVRBQxijGKiGJtwoiiQAiWaXKkyaKjQSaDGWffBZKdXaONlKuJq/WBy7rHiDJGx26s6MeSqSuht5jJnDZbs44IDTitFIJgUral2Cq6jCwuer7fPPDb1Q2/qe/4dXnLhe0oJODVsY01XaoYtGBMBUMqSAhRDenMH+LMwSyJygRq4zGS8MlxF1p+Gjb8eNjwebuk0xr842alQkl1QhaB5Xrg2/WOd/Wexnr6WPAlLhm9YxwKdMhCSnzc6OTAr5RpDU6NYua8S62idaLd9Py7Nzf8l4u/81/bv/Cfy8/82lVUUgAwqmfQwKiJSRWv2SDibH9xFtSe8ckCpZ7lHxQ+xYY/Tt9gRLkdW1QFfAYRSUJySmoSZuXZrDu+W2/5VbNl4Ub6WDBMDfuppBtK0mAR/5gNobM2q4TWCbsIM2E4h/XZxPKCDV4dkxq65InzwtM8YyWG6swfLeeafHTW8793GnmIjv/n3/LP/Xf83+23/O3ukv6uwRwsxkvWZBspNiPvLvZ8v3zgu+aB1kx0qeTBN1z3Sx4ODb4vshUkOfm/HDGgVOzSc7nuMmF4Erui0PclP27XhGT4NK75P/VvuHQHavEYUUoJFBIpJGBRCgmUEjEk7Ay/cUaf8993qeGDv+RP/Xv+uH3Ph+2a/X0LO4cdTHadRUI2E+8u9/ywvuN3ixvel1sKidyFBQ9jw6duxc2+ZdhX6KxNOSb5T/LmWTEK7uj0mGx/MhpiKrntHHe3S/7ovsG6mAHEKMYknEk4myhtxJlEYSNWMsCYM3M1opg5NvSh4LZvudu2xPuS4t5S7IXFlMeGFqZLRdYT799s+f3mhh+aWy6LAwCfpzU/jRs+HDbcdw3TWKCa160FYJn956jWzJDi4HigxR3t+pzESxQYzNHcCfMnD3g6/mmOd/ZTckUBmTlzZygfhPW95hjdJyQpsTSMGyEVeYGahG1X84f4nj/wnjFYhr7EHwqks9je5LxUoZhRNbk53MljXIcc+ugsqbcvE+8niz27XhXs2UNJZyYjuSJgvGA7oboXqjul2iZcn1ARQiOMa2G8zPmjOkU7R78rGMdMQ4udsNoq5U4puoSZ8panQgi1ITSCbw2hhVgf+XZG7COthbMq4Mm2T4t/KrA8EfZsI/Txy3q+QXFmWXuhus1JenUfsWMkWcGvHNPKMF4K0yaXWSQIbm9ytnSnp5SwvO2RfY/0I8SYU7bCoWWBthVhWeLXBePGMq2FaS2EhRAaJZWgVs/KnV9R2LNcPIcheWXg8yS9F8qtzElBTu/MGNDCEtYFfpEX5Je5/CFK3pitUN8qzU2ivpkorjtke0D7Hp08Gs8CpTGIc5R1RbFoqFct/qpmeFPQXwnTheAXEGt5vdz5vLSiZzUcTkRbnpjpKTU7M9X6es587ibMENDK4peO8dIyXOXMJzaKWs0EfCbhKhBLwS8dKgvsqkJ8RKJCSEiM4EPOaUOEGJFDj/UB0424Q4vravrBzhZzXu48U+FXE5DnXPa8nhQEczTVe2iuE/W1p9jnakK4qBgvC/ork/PX2Vz1iJZkIAmLDEzThWC8QUIxF8P0SYHMToobE7ZPuC5iuwnTe/ABe9fRRMWEGhMsqHkm6FcI+enZa1eSnEQPGTjKe6W+U6r7gB0TsXFMG0d/mbOeaaOEZSJVKVvHXN+NFmL18kXP4+PRNSQJxjvsAK6DYl9TbRPVQ8QdAiTFTIniYIil/vK67osex2zCx/z1WDSr7xLlLoNOrAzjpaN7ZxmvYLpIxDZBMa88Si4Zzbv71bRNzoBOM+NBILaKX80JfADXWcqtpborqHYRM1cwiu4VMHr1Ok+Mz9YiCex4LLko1VYp9llINRlZx43Br3PJIxU55KgHUXNqWRwnP9V1z98748FJs4mzoD+jvc0u4N2xtivE0lLuFeuzsL9M0ONOPl/Esaci4BdCckJ/VYAUOb6tYdok0jJgmoA1OTVLwaBRIJjMZBKPVfjzd55CmOZqQ8oAKHEu18ys7sjRk1O0kbkLkLlv0YHE572X54K8IuwTX0mZmUwbJb3NKRV1zl2Xi4Fvlgcuq46Fm3CSSCp4NQyxYIgFY3D0oeAwFQxTwTQWRG9Qb/ImvLYBz8suswtpEsRkBE+lEBbZpAHsdF5KOY+NKo9h5PwFRwWmxzGxVNIyUm0Gvr3Y8cPqlt+1N/xQ3vDObbGSco6KIaohIiQ1TGrx6hi04C4s+Dyt+Dis+dytuOsaDl1F7B3qzUlYFTKnNaBJXzaVjoqQzIxCk+msWn1KAfUcFF7T7JlGRUFNruHYheft+sA/br7wnxY/8R/qD3xvH2hNIKrgycm4EcWeTZiFFg5acBOXfFxc8OPqkr/1V/xtf8nn3ZJuX5EGB15OSfWp9zS7j8y9GTkS+jkfTSXEBtTJI6l/ocFXhHvyZyHHwLkgEJJhFyqu/ZKNvSCqoZRIRBhSSUSwKFYShQQKIqVEavHUEvje3fPe7vh9+Ykv9Zo/t9/wz+23/KW54ma7YDyU6GiRMOedp5ZhVrWm7Ivnfdjc05lr1JJ4ETqe90RfXOfEPQqxd9ywpJsK/l5f8L/L39C6CSNK0myqAEbmFE8SjfUs3MjSjmxcz6U7sDY9K9tzYTv+ffWJyuQx/1K85WOx4rCr0d6epWIvN//ks6cwJGdc9xXaeq7Rrz5MOQUjWmJv2d2X7GT1ddIBOb+yiriELRJFGVjUE1dNx3eLB76v70/1qW/cA7S5JGNQPgAHrdHeZc2er/GYXByp6azxJKBGvhJezjOXn1v0PFaiQHwM/K9u0PNL8iIGo/Su5bpc8y/tW9arju/XW367uOHbMoPZyg28qQ8cfMk4OvyYO0gSz/j2qTutj6Z9BC0rr3Dd80U+AaKzgcfgbuYJ57Z9fvQICKca7StTnCO8mQQNQpgMt51jt2/4vFny69U9b6pD1qgoi2Kirj1hKGAua8qT3HD2X5uFZP6pgEu1Pi7sqKHzfoh+RcijH6dZm2d9zMesRp8g+WsIf5o2CTIL7L3hSzD0U8HNYsGiyPWWhFC5SF9GQjE3jI7MSXlkWscekJuR1ghO3ZwXzSYoMfPGY8p03KhT610FM3Ei8nbIAVliHpfcnOnXczG8ODafHjeSjBGvuoUkgUlIh4KdCpN3NNWENUpSGH1BSvK45mPN6xheROdaEhiXEwccuOWfilN74LwVABmac6tuDiXMKdIAxT6XRcptTpPMFEGE2Fj80jKucy3Ir4TQnnfbzqRKPLG6M6OBSVB1DN4wlQ5jM33UKKTR8qLWJY+cV0tFqogtIm7Wqvv2f/Wk0pAKQyryQYpYCb4RYiOEmpNmjQfXKdWDUt1FqrsRux1yiSPM0dxZ6ram2dRMm5Lx0jJuhGltci+zZhZaTzH4XNOPJF6QUbJg3jx23uKcoB8tTh/LtWoVLRJSR8raU5UBZyMhWlz5pw9QlWhdkVY1flMxXjhCLafGkASwY9Zi/ZCo7jzufsR0Y27t61nwnjwyeYp9h7suqRc1cV0yXhSMazuXT+QkdKxyEzcDhz4mEMGcmE4OJXJqLkuY8f0sOuS+aUKWgWYxsmpGnElM0XLoHU51PuEBqDOExuIXhtDmzjLyVMjyIWCGCM4QL1uSM6gz84YkzBQxnUfGCRknbD9i7y3F55K2LYnLEr90TEtLaIRQC7F2ma4VoEVuLJ38dQY/tVkwE+Ysxjz+PVmIbcKsc/ti0wxUNtD5ksNQMt42OP9P35NKg19ZxnU2M7/ME0hizuCVcp9wXQKFsCrwi3xuyC/yYjNLAtfn0mT1ECnvZ9PuBmR7wN7vsM5R1CVtWZBqRyodWhpiYbILlTndSzYzmlDlsmiq5rNEM25ombEj1UpqIsV64mpz4G17oDSBna+56xq6LwvqDw734b83uf3eKLFJaDG39ztDsROK2WxNzD3TrA1z2pCwUFI5o1sS7AS2MxR7Q/XgqO/r2dQH5DAgw4TsDqgqcyjOoel48mQ+gqNVQWpLwjrXmsZ1PpCRlrk/G1YJXQbq5cTV6sA37Y7LMrcTvwxLbg4t+9uW8tpSX4OT//bARTNQu4CPlvuu4XDXYHaG4pBN1oR5Z2vzeEiimf3LncVVowSXy5dhCdOF0L9zFDtLta2oHpYU24DdT9m/xwl8yAewQoBpynVbAOewywUSlVQYfJMPW4Wl4q8i1VXP+82e75YPfFtvWdqRMTl+7C/4sF9z92VF8amgvhbKveK+We94Ux9IKnw8rBn6EnvvKO9yecQN87m+dj7espjPLcyZi6THEiVHvymUWORxfgXjldD3Btcb3KGgONQUXaLoEnZImDGHJzNFxOdSJiKkpmS6ahiuHP07Q/etEr8b+e79Pb/fXPNDc8eVO2Ak8RBafpwu+PP9W7583FB+zEIWu4zW7k19oDSR27Hl7tCQ7kvqe0Oxy0RADbl1cJHbBqHJCHeiXzPNO2X56NOTJA7i3LX2K8FEEA92tBhvsROYCeyo+T7ksqYaCLUwbYThrTK986zf7/nHN1/4j6tP/Kq8Z2FGDqnip+mCP+7f84fr92w/rqg+OeqbfAhTUiYv7rLsePAN+6kiBItaxS9zDhSWmYHEcu5pzOX9E6RDLl88F3ZO4V7Uh42SBLBCbGakP3JmAewxvmo+TlBFlouBH5YHfr245/v6nm+KLSvbM6njw3TJh/GCP+/e8tebK8bPLfUnS3376HLJCaEU3N3U8vGw5q5rUAW78ujKMz1boyZIx6MtQXLgPnLLI6c9F/AZxdPzGz1mGLNwc5Av6sCyHbhoBt41e95XO96Xu1NvFqBLFX8d3/Jh3PBTv+HjfsX9tsXfVxRbg/EZI3R17JznlqT72/aSh0ND8BZXRDbLA1dNx7tmz0XRUxnPmApup5Yvw5LbrmHf1fjR5Zb6eDzTM7MWHgVV81Twk2BOwSlSRlwVaGrPphm4qjve1XvelTveFns285mJhOE2LPnk1/w0rPmp23C9X7A/1ITewWgwgyE5GN+kfBbp2EosEqaKuOu7FXG0iEuUlWddD/ywvOOfFh/5h/KaC9PhsdyEJZ/Chmu/4npccjMueJhq9mNFNxb4yREmmyt4p6PlcjLZY7JtnFJWnkU9cdH0bMqeN9WBi6JnY3taO1LMxaEuVXRpxedpxY/DBZ+6FbeHlq6rCEMW8HjmQZ2S2oRZehbLgau256o+cFn2LNyIi7siU64EvsjHWW7Klutyxcb21OJZmJEfilu+L+7wteOwqDikkl1qeAgtD7FhF2q2vqYLBUHtXELJgubySaS0kdIElm7iwnVsXE9rJirjsSQihi6VXPsVd6Hldmq5Hpbc9i0Ph4ZpcI+FsvB4tP2I9Gbpudgc+IdNPhLw2/qGb4p7avE4meZkFYM/FNymJf1UcN0v+cviDd/WW74tt7wtdlzYA2sz8M5t+Z7H9t2EZUgFg86fVJyVNx+P3xzPMxQSsXP6ETEcUsVtXHDtV3weV3zqV9wNDfuhou9L4pix4UToz/4Z4RHQ8iETa05oAIBXh0UfzzBIFHQypN6yfyjYuwX/Wl9SNZ7Noudte+BXzZbv6nt+VdzzzmXBFzKxkIm1Hc8EN6S5hhvn+0ntaSN2sWGXah5Cy11ouR6XXA8LbvuWfV/lQvYs3JN/SDh3h6PfnwoGQpws20PNX9MlO1/z9+qSTTGwcCP/H4vswY7+7fQCAAAAAElFTkSuQmCC;" vertex="1" parent="1">
          <mxGeometry x="561" y="360" width="58" height="58" as="geometry" />
        </mxCell>
        <mxCell id="NisTQTtNLf6xnu39tymK-24" value="" style="shape=image;verticalLabelPosition=bottom;labelBackgroundColor=#ffffff;verticalAlign=top;aspect=fixed;imageAspect=0;image=data:image/png,iVBORw0KGgoAAAANSUhEUgAAAEAAAABACAYAAACqaXHeAAAAOXRFWHRTb2Z0d2FyZQBNYXRwbG90bGliIHZlcnNpb24zLjMuNCwgaHR0cHM6Ly9tYXRwbG90bGliLm9yZy8QVMy6AAAACXBIWXMAAC4jAAAuIwF4pT92AAAVZ0lEQVR4nKWbyXIdSXamv+PuMdyBAMgkM0lWplqmKq261Qtp14/Rr9UP1Ms2PYF6UW0yWUqqKmUxmRxAAneOCHc/vXCP4V4EmJTkZjAAN+J6+PnPPIT8j//5v3T55oB7c4t/8zOIINZytsQwu4wgIkhZwqJGVkvi1RL/pKK7crRPLL4W/AJiIcQCogN9ZDtRkAjiwXiwjeKOUO4i5Z2n2DSYzRHZ7NCmRZsGDQERQVXTHiLzm0+PfXONPrum/XaN239niG7JYlVQPL0CA5jzE+rcpgZi6YiVxa8s7drSPhG6J0K3Br9QYpGIApCgmTBJv8P0AQmU6CCWSiwhOkUtqFVMK9hTSbGrKDZX1HcvKLeRYucxp4DpAmQA9PKc8eHRfWXxy4L22uF2fwmnF5bt3lLsKhDQKb0ztEcnxBJ8DX6t+HWEJx31umFRtTytWnw0HDvHdreg25WYraXoBHcE04LpzgHAQCygQwi1EtaR4rrh2fWe6+pEYQNHX3B3rPm4XeI3Je6+otgJ7pD39Bfk68iAy78RCIXgwvcnvDdoa5B2RjYnAKgoWEUWgWrRcbM+8Gq14fvlHX9Z37I0DZ06DrHknw/f8uP9C7a7BXIyFFtDdQflvWJbxfgLACRJgD0KxguoxS8szkR+e/WR/7p6w0t3T21a7sKKPzXP+ZfDC/64e8a7zRP2+5K4L5AgI9eVgZui/f9gWsF0Sd2cCKjRRKhMvnix1Cq4iF0ElqsT36wOvFpu+GH5mWt7pJDA2+6Gf9m/4A+bZ/zy4Rrztqb+IDx9p9SfPOW2w+5aJCjEOB50grtWBX5V0Dwt2L+s+PD6O/7390/5/etX/PdnP/PfVn/mdfGZ39W/cO0O3BQHfiy+5c/umo1ZEvYuMTJMCJ/SdCHRTiNoj1qcuUlBnUIVKBYdT1YnXqz2/GZ5z/Nqx9K03IcFfzg+58f7F/z54w28rVl8MCzeK9V9oNgFTKdEawhPa9QKiAx6iwgSFfGKaQP25Fm+9RTbgsVtwf5Dxdv3L/n5h2v+9dU3/O3Tn3hV3lFLxw/1J0JG8M/AhiVBHaImScOMJA/MFsU95PUM56tAuey4Xh/5drXjRb3jWbknqvBzc82bww0/3d2w+bCmuHXU74XyXim3ERMUv7L4SgiVEKrsEaaORkAC2DZZ/eIQcfuIbSLVnUeixZ4Mh8OSf9x8zy+vn/C7Zx95vbjn2h1Z24ZXi3uiCiLKvSwJuwKaBIJe2jHJnkh5BICsk4n4SLHouFqdeL7c86zas7Ad+1DxsVnx8+6aD/dr2tua8tZSboRir0iEUArd0tCthO4J+CWEhRJdTFI1ZVAQJBvJYmcp7wzVvVIcIqZT6rskLaZ13DVP+b+Hil+eXvF6fc+31TaDsEn3CNzLgs4U0FgI5xKgJrtLeQwAsl0oE/HrZcNVfWLpWgDu2gWfmiW3hxX32wXd54rys6XYJ+MSraC14heGsIBuBX6pxEoT4XPPc4papXNCKEnSUgvVnWAbRRTcEarPihrDSRa8jYaTd5zWBd8tNqxcAsGIYk3kkyzpKJHGzrpDyACIZBshI/exiqkCVd2xKDuMKG10nJqCXVvx6bDgsK8J24JiY7EHQWL251XaLJTgV5oCoVLBzBB/oZvqlGAVtQY1gopQbrPblBQgFQcIG0NbFWxcjTURZwIv6y1X7ohZRJykQOMTjCD0sUevEwpuOICcH0KqSFl5SucRoAuWLlgOXcHuWHHal+jRYXcG0wiiEO150OgXmfOlPrC+l4Z2AD9fi1XEq0GiICrYU1IrtQyuTE6WrnFsXc1HGyhN4Hm1ozKep+URv7KEaPgcDSEIEs34DJ1IwHSpTaLv6o6y8BQ2ElQIwdJ0jsOppNmXcLKYo8GeBOMTqJLB1eTGCXWKBueCqd4nn/1/sWKp+CWIT5vKJHpMobLgG0vrHJ/NgsIGjCg3xZHKem7KA+3S0nrL1hs0JjszXU6joFHGAxnFlAHnYhJ7bxFRVIXDqaQ9JOKlE0wno5W15zQk4qfh1yXBF356DiOBWChhkUJo06bgBZLXMA3I0dJZJarwDogqxIWwci2FRK7KE6dlQectR29QNdBq0nsBJ5J0U0XQQpE6UJQe5wJRBQOoCq1P4qYnmziSD68mxexnIqyJe2cG70vEX4So/RLNklRlYiNI17tM0IOg1tA5S/CGfRA07/1iscNJYuKyaFnVLV3r8F1xLgF9QIBJYa4tIsYoMRpEErIAbVMQe2sqQJQkNFMRn6j6A9E/kzwdcci680VJcEosBW3zVhmI3oKrs4RlJIaCfTC8UyGq8LQ64EykNIGr+kTjLTtv0KMF3wPQn88p4iLWBSSfpkfTe0NoLXgzECM5gdEewJ6imCNHOxdPT4AYPE7/rMt7J1JmIVZKzPZGYvqueLANuIMkj2EE7YR9XAznXxYtRhQjSl14TqXHu5E7IwA2IibpetelMK3PggfRD4KKoqJIlCT+PSaaKRQh9rteqMWwpiBcGkid/KEZGBVikaQgTGxA782kSzZCBTRCxHIwNZ9MxNeGyiV2FzZQVZ6ujCgGEXA9VyRzLHg7pQhU0MYOcbVMOeMmEhBzPqGM3J8jfrokZ5gXnw1/am+ckzcJdQIekhfo6wjS5zEmRZSmgWgce1cjpKCqMHEAQcqIFgpecKqCcRFjIjHYURRVEIHQGuhk1P3+4CZHi6anUQdwHiX4MiNTkPzPAyDyZ4IMkhRLJbbJHUYYAi81DHFIv790Qjw6mtJhRAku+VBVQVxMqTdZBUx+eOxMvilHh6LQZKt/Ic5qNbm+HN0Jkr5ndB6Ay3T7IvWWB7rw8PupWpSAFj/uo7nMlq5NztkJXeuwNnHfZCkQo8QiosZmGyCauD9JH9Vk9Kec788SBLU61hH6+yMp1Z1bFy5u9v/Lzy63ykY3WsX0ZzMpVlALWsakinkviUJsLb6wWBtH9QVwijpwxiVUohfwMj5Ys7hEecit0OueDKIrUQbD+B9ac0Zy7jabJDSiSBZ/tamGmOIZziSVkCRTdYwRxEQwSnSKMyaiMYWJxAkAkACZ6m2/eUwi2KsKmhKhIVb/GkIvYv9fI3z4ulMiyT5JlphoOQ/GpvsFIQaL94raVC+IMYmS2mwDgjcwrQmKghFMk8Pc3t/na4OexfyUHPEmTzFh5cW/D4C4kKwHSdF0n/6WQsfPYnZ9NgdyjzwrBsF3drRtuQImCi5Gg3YG8SalnCqJYJMyrsHKSu/zLw3CeHidIv81mjAn9nO24JKr5HPqKAUaJdUBZ2yIeoNaJcYkOSn3Sd930ecCYmDw9cn8aTYk2ednsRuNXo88g65JT9GX9HkOnKnlnnOlomfSISH3FeL4HYMSJTHvLL4QoBOiExCTPN6kRuY0AyA+6XESLQbR7w8zAJ9DUzWMbvDy8FPC5qTiMe4+qi5ngUMqnwWG9FgtyS6YUUUk5xg6iEg2Yyari0kVKEfMFvySa5Isq+QI74wOSbJ3hvLUSM4SwUNpmFvTvGIWCB3tj6ZzqySPIJEcOo9n6Wt/kNTYGMXYXHVymrLBlNImfScbleiy5MXs37OlB4b7Zol+cPAZRC45fmm9pxcfSNX4/4C/Zo/UxwBneyfWazBEjUMo3T/X9URo/7tPcCT71F6v4qjvfc9uzn2d1T/kkoCJjZizDZdLe+pmDK8BnSl0yjRw03x+QDshGguFpIg3pGLOmA32oqMXLJ0C0d/jMhi9/g/6dg5Av++owjNgPGYbptcuQOg9E0bHS8KZqTj7DYg3qEBQUlrvk91zQ0coW3siEEDNBVt7IFQGGzCoQEzXEkYPWTmr1j1av+Yu50DIFSwxWecHdZzZr8e5k9zlztzvDOKZkYAHXJhhae8hBiWU8RDTE+hMV+bscHNe4/J5FyCQmDMQ3xv5qU168BwSg3P9UnzvRWQsi+v0yz2aML/hjO4/cHczYAy3foHrZxI0vXHysVrN+i9DsqZWhzBcZ7aQSKoKR1IoH5IHcQM3c7g76hdfFk+9uD6nx4+4xaGSM+cgLm3eIwYz9fY0G+lxmOLyeb3aSuhBSMUUCZyrwIPDP7a+FOVdXj+75yG1c/biq9dE7/teRPJWczdr5qzmypVgBhXI7mCIrIaNU87/RcL685u88ZcCoTnf/1UJw+R7M05kPMuvuNjBaJ/fkABoJc3hNCmfjypE5RyAKXG5hC650qK516/K0DN4sOaCna8VgKlbE86KHmfJ0WUuMrFL6kgNWKNoUGIQTFTcwH1PajqYvJGk2GeWEJtK6MZm99inpWrGosrld76W4MeeOQFhmCbLzxXG6vSD5/Q1y0Jz8JZCYPUCAZym9k7v6tHsLiQ84gUExKZ42tiQa4dCgLGkNieuj0Z6v47J2Tl6l9bnKDn2kKhjTNDfLymy7Ut4gxpMnm/GjC+JlUQGe2C6+dM9aGKInqXK/y5OX3qTL/nzfL2PWXozclYIHVyiPiyUqIwucDCCRcy9+MnJNSEsHij1IaeCEIPQ59ep3jYh4NI9fsk4Xt53QexwrV9TNz0kZzrWAYaBLz0Dsq9f9hVlk3+cuHhWx+sLIFHS7F0sZ7yBNykfUBmBF1JnyWluZ88A8muS8RVOQa1CwdgQ6Tnej9xMASCddWjmkgIh2ySjzxAIuQR/b1x6gvqpzsuxFvGppa4KJleBFQbvwGUf4T/h7h9832ratv+djTIuQmceTKFIN5kryPUDCYn7anN7PPZhZL441SnbghYypr+Ta8MErWgKHI2iLkIzNlFHdP6ThPf7iI6VqsxxcRGxybX1hCZJFezRDEztz97nBNH1kWARiaVJRZHJvKAoeQgiNRHODiWKMRGb22o6ye6i1cdn9C7Xo5HjzDJM4uj+gIkxAzMm5X3TmPOR3P4RuaGSSmIktxbL1IDsm44mD3KaBkyVurNMa/5RRhBsHBoPMWY1CBeUPObyvkY9esZeurIc56OaepjejAa8kzR228jF/emnZ+iQC2iRRlq0EUx2hTarQz+JERYxJ01Jz2M0aC7LSAbDGCEUWR8v3dt/AISzpqnrzf65kdVooDOD8RWfolp3kCG8H4rNuaAbs2EfkyGraRQlT3L3nR7xYE/kWX9Bq+RKNKRmqhaprWkkhcaqQqwCobEPBpL+PYSfEZ/dmThNwVZvhyaNCNOY4XPTCfY0NX7jo2LOGnsv4qY+XIs0q68nQRqQoJisT/aYR+Qt4DII3iRPIIrrO7A5LghVgOB+PTn6NeIzAWPuYcbaRQ+EH4mVkIapTJt6B9PUuk+Z1THYOTd9iNo8hVElKbAeTMytMBHUpcpxyDV1vBC8JZYekTSdKaIElfRSQmuQzswHQhcucm4+oO/m9mP6QLL69ISlgEVyW78fjnAHwTacRZXpZYz0ozJ6S3cuSnksrc4z9Y1gGk2GNmgCQQQVQ1zEBEZnCDEdwIpi86yeqrD3JpXT+5bVF9yh6CMioYAFcZNE34yVBFWZiH4i3p2S6va6H3PgFMpk55K0SAZgeFBG26XR1hQspKEk04CNIDFbMSN0RpIkRCGEFBIXNuBMxGdAus7SdAaN5ssEfuHzYXCznEx49AMd0RA6hs6WPaZha9vk4EwELRMAYTHOKk9d9OywtDolVOllJ9MKttX8k4BJ+XgiMhjoqjSNuSpbrMRhIqNbGLy3hFCkMZtfA+ASDMswrV5WfiAcIARD2yTrbxvBHdOrM+6ogz1IgxOTl7VysHfWG3xwmF5n8piq8WkC3HhwpwxEJ5hgkGDoguBNwbEILMuORd1R246la6lsms66Z0k4uOSq+s7MYzahD6gsaB0oVi3rZTMY2RCFLlh8Zwl7h9tYiq1Q7MDtE5NUkp8P2Z6FWlM9IBuPsQcyHZQUnYRTWQpq6CY9OAlQHCPVvSZQ2jwuGx0nU7EpPOuyoS49K9fgo2XpWt66wCe7ojsWw7jdozbBKVpEpA6s1g03yyPrsgHg0JUcu4KmKejuK4rPluqz4HaJ87bV9DJGCX4haUx/pQmAPp+5UMWHRdGp93FpThcYRtZEDcUupldhDkJxMJyOhlNbsI1r3olSW8/zase63PH94jOvFxv+bfmUt9sr7nc13aGEThBvhjkfLZKlNwvPctlyszzycrXhujjRqeHgS+6bmu2hov1UU32w1B+FcqMUh3ToUCR998sJ8ZfvKEhuqmRJdyKaqrOPRGix1MHv6tBpNZTbgDsEbBMp9ha3N9hTwZ2/ogsWZwK/XX/k+/ITf1He8leLD7xZ3/CuueLDcc3RFxy7Ah8MxkRKF6id57o88bQ68LzcsbYNh1jyh/03vN1f8f7jFXyoWL0f30eybQpquqXB10K3Tu8tdisl1nqeyk9AGIal9dI6z2RgWih5Yh01adggWqjuBXcIVJ873NFSbS3FznHYXPEP+5LblyuaZ46/Xrzjr6r3/JfyI/tVyTYuOMSSQ6jo1GIlUkigMh21eArxnLTgfXvFP22+48ePzzm8X1G/dSx/UerPgWIfMT6JvF9YupXQXuWXNpdKWGiuWcwzdl4F5lZWi14d1PSvwRpiIVT3QrnxuL3H7TrKTUF9azn+suDNy9f86eVznr/Y8DffvOW3yw+8Lj/zQ3HLlTlRS0rVTlpwF5fchSU/t0/5ubnhx80L/nT7lObjguqD4+YD1J8i9aeA6WK27kJznd5Y7YkPiyT29GI/U5cYUgn5GgAuQTDpt7r0FpivDb4ukk3Yesq7hmJrWL6zNG8cp2clu+cv+D8vn/H336Q3QV+ut3xT7XniTlTGs/E1t82K29OKD9s1+7sF7kNB/VFYf9b07vAmYNqI7SLd0uFXhuaJGQlfJmMXHSlqnCZeXwi73atv76idx8g4Gg+c/T23Tt5xaEq2h4rP+wK7sRSbgmKbkifbpiJLLFIXxu0M3lTcBuHUOW7rJeuipbCBJjjuTzX7U8lxWyNbh+mStHVroVsJh28NoYZQQvdE8U8Csm6oFh3LuqEuPKUNZ2fsp8Qv1+1+yW5f0x0L3N89/4kf6k985+65sYdE/PRVTsBM+k3Ta0EN21jzya9509zw5nTDz7trbndLjvsqubw8eqcmi2UwHA8VXefYFRXWREI0+JCCJlNEwlVHuxba7yS9w1B76robPMO39Y7vyg3fFfcsTcPKpADscvXnvrz2++MP/L/dK/64+Qb314v3/E39E78rNnzv1l/k+twKekdEuY8ntlF5Fxb8sXvOT90zfmmueddccdcuuDstaLyj9elFphiFpk0aaG3yAqu6pbSBynmuyyNPyyPPyj2vynu+L2/5jfvMS3vgiRHWUlDJlzXYPvLa/2/s77m2ByoT+P9MwBnezAcuTAAAAABJRU5ErkJggg==;" vertex="1" parent="1">
          <mxGeometry x="318" y="200" width="64" height="64" as="geometry" />
        </mxCell>
        <mxCell id="NisTQTtNLf6xnu39tymK-25" value="" style="shape=image;verticalLabelPosition=bottom;labelBackgroundColor=#ffffff;verticalAlign=top;aspect=fixed;imageAspect=0;image=data:image/png,iVBORw0KGgoAAAANSUhEUgAAAEAAAABACAYAAACqaXHeAAAAOXRFWHRTb2Z0d2FyZQBNYXRwbG90bGliIHZlcnNpb24zLjMuNCwgaHR0cHM6Ly9tYXRwbG90bGliLm9yZy8QVMy6AAAACXBIWXMAAC4jAAAuIwF4pT92AAARzUlEQVR4nK2baY7kOnKAvyAp5VJ7d489GGMAA/4xh/AlfC5fcA5geGAb43G/7qrMlERG+AdJialSLe/ZBARlKsUl9jXln//lX+34lzP+L/9N/Pe/MA8RftMQt/3c9N33xcnmcwDKb1LP5N7YY/X78v712nJ7i365Y/p6JLz8vSf1Rw63Hd3TPbyx9q8a7yHP7OPf1+uUu80AfbBfff+NLbT3xINnuguEn/8I57/z/Pyjp3veLWu8NfsTw9rzvAXrav15v/W+zfx5XdnY552xhkU0z9UghPiHkUkFRodMkg9QVv4tSLgG/hMLbO31DhJe7fHedm9s7wbBTRkRwax58f9A9fYQ8wE/SaJXB/9g2rt4/QwMsuwRXk36xKE/A9e7FP1w8uu9NoH+LQRbiVHAJO/SsP5681+1/pqbbPX816wr7+iG3zpW64X/jzW3gP60/ngPGZ/lol9LqGatawTUU5ushHljz/Xh1pSu97XGbuSvfb5J6dYivoEAE95GzqyLtibmNa8R0Grk9/j0g0NaBbJc+fvqFCaIgkuA5s9SEdm+WtdoPzv7HNWtOUd7zuaVQLOprDd/b+H2jC3g7Q4tdSuQSZBENkNRcJH8vdxb8TFXLg8ayr3LdwtlP9ccYAMpb+nO+mpYgJfX2P/ksBVbY9nGSgV6Aj9m2+sv4AfDD+BHxU3gouGSzQiYl/HZWdEgpF5IO0h7Ie2E1IP2oJ1hXjDHwm11iGXcrMRwxQGtFfj1wLerXVF4lAzkBcLZCCejOxvhpIRzwl8SMiVkUkT12gWuwzksOLTz6M6T9p54dEwHIR6FeMhX2hVEBK51zOxCF2RsHH/RAfah3tsetrC4i+AHyUC/QPds9M9K96x0p4g/ReQ8IVOElBDNQJuTfNh6zcFLQkbBiWDBETpP2Ae6vSfeesYbx3QrTDdSOAMsWBaRcjakqoBGETRitiBANlh5BejWECtUj+AvQvcC3U9j98PofyS6HxP+ZcKNEVRBDbzDdgH1Husc1nksCOrdleYWNSRqvquBGm7MiHPJcJPHRY8ksjtvWURMDHErXWoFCVcOSUWAlAjtrSDGeI2YhvKi4CbBj5XlIZwzq7uoEByp69FdIB088eCIe0fcV/YVNLBEeVaUYrS85mCEwfAXK3ojh9ZuUDonmHNFWUqmvmfWCa/0whX1IFxrCa4o8O6QBglF6c0c5iHuHeY6eOzQTpiOwngnTLcw3RnpYOghQa9IUMQZGJgKFh1MDhkc/iyEiyOcili9GN3J8IMiKQPqouFHIY3gOtAkmDdwxWRunN0KvV97gluAb4mGLYtAPogGiDeQdoJopkbqId4Y8dbQu4n+duTueOFuN3LsRvZ+ovcJADXhkjrOseN57HkZek6nHZeXDvfiCc9CV65wEsKlWI5CDBdtVsKvfAlbADcyw5v8P7jCGcNC2hvpAKMrSqgzbKf4Y+RwHPh2uPC0P/PYn7nvLvQusnMRj+KKXKoJk3nOqedH3PF9PPK3/ZHv+wPnfc+469Dek3ZCtxPSCfxQiOHApJjdcpkWSBtsrP2xKyvwPqRsikeWPcsA94o7RPp95PYw8Hg489Cfeegu3ISBg5/oZKF2wpFwWYGVoSYEl7gN49X2IsZJIApF5h0assVxsSChOkdVLMtZ7UqzvuUHfAb4tQtclUwo1L6ZuLu58O32hd/tn/nSn7gJwwz0oIEfac+ggVEDQwpEc2izvxMjSOaKaFkrdj7Rh8jUe8a9Q5OQkiGaodFYdJBkJFCdog9geh0LzOj+ABn1HSnUD4b0ib6PHHcjN2Hk4CecKIMGXnTHS+r5Oe04xZ5z7BiTZ0qepILVGESMzivBKZ1POLEsFsln5DhDvKJlT+0BE1xj3bS6za1n+CoO2fIDPjsaP3/2xUtwYiaMMfBz2hHNEeSGaI4hBc5Tx2nsGGMgRodqXsBMZpw6McQZ3iveZy7wTjETojpidFgRlxojWDCULPtQxCDYHEe8Al6b3IfWWKDByixD73HBGrMGFh3TGPhpcB47vMsnUhNScvNlqVB8zZ8mqGRERpcR4SQfSgQ0Zda3ySFJZitkPh+gcpH5rIRZA99Euu31igOukNBS/L1hAhGSeXRyjAWAGTkmoJKpp8th6u8tYhGbPdLUAqACSZDJQZTZfVFPLiHUWKJGkDVk/kC5hy0ArxOb2xNn/1oNQfL+KlgycHatVyvLWfO5PJfGAtiWR9q+pzmErk6XueLsmFyH5M3+1RLUF7LOlxnJb+qA91JaLXNkmTTEZPYJUHm9QAP0DNAqApUKfH2mBbCaLClud02KVJdXzJZgcoX42YC1zwuHiMl1MLQJZTsqVq1BQhNkSFEsBZpM0fm9awRUTliLaetaSyoA6zU+Z3/fG6wiv6sET1WYqxjn2hOU6jHIcoAthLS4acVDig2+SvRVHLR8eH2QrRxgTYtJlCVLpC1Si5Krch4MvF0vXgFPq0PL9udXHPBhPmDr9yYo2qLqjGS3Mb9h+Qq8m3J0KXFBiklVblnUZuC7BpMKpCKCdo24VtxadzlcyeZnAf4N413E1gM2obUbKwcU0XCQCtW1y643veKC5thfwZJbnCrb5rI5N1nu4d3TvcE2r5BVzXpVua84gNeIXK2RZZ5C/Qx89fFx2dxZyNGlHhTZJ1yfcE5nPyHpB5rbFp1Sr/c9wdYh+sCetsmHjIyNCetCaMuSlfVL4dKNjX9f3Nu0N/SoyCERdhEfFJHsBJnawvaNWpAN1nc1G/0hAj4D+Ap4tnL2K3N3NbUAn7NJOZHqxswNkNPg2kE6GPFG4SbSH0e6LiFiqDpiFFQdFqv8F+CrxreF5d2YxcuP7yDgHeJtj/c4ZUMxtvtIlCWRes7pr5rk0CBoB/EA8daw28TuOHLYTTinqDqSQYqeNDqIi5uMGOaWGAFlTsvP++jKDL433nWMihKTamBbRNgbcy2zor8I/gzhlA/lYv459ZB2OcM03Sl6H9nfDRx2I31IqAkxlThjcrm/ITaudhOnSMlY11R9OBv+8hkR+Az7s3K5G5P2JvUts7gfF+DDxZACvHY5uzvdwfig6GPkcH/h9jDQ+4QB0xSYomcaAzb6Yv5o/AEprM9Spyisn4sytgqGfq25a6uaG2K/rGtzRqa6tev6QbisKL/PydPxQdGniZuHC3eHC/sQMRMuMTBMHeMY0MHn4CjJNbILkhe/Il80PgC8qg6zKJBPUv9V1LRlOqvvrIJLGfic5bUsj1MOXnL5q2SO7w19iBzuBh6OZ47dBMB56jiPHeMQSIPP2ePi/FxlqLXxJmPetzWpzldX+K3QdA3MerQBwRVClrktk1Q59JcF+O6UWRFAeyHtyWx/b8SHSHczcrMf6X2W+SEGTmPHZeiIo4fBZ7lPS4R4VYitlzFnrc1lTogFuMUR+kjJbSLhGh8zAtrnJahxI4RzBr57sayIRmbKTzcwPgjDoxEfE939yM1hpA+RpI6LOi5jx+nSMw0BG/zszMyUX91n0Mqr+OU8XtY6wBafexPo9763zLAGvpi5cIbuOdcLs8xnM5V2uWAyPsDwZKTHSH8/cHu8sO+yYjhPHZcpMFw64hCw0WWqJ3mbeCX2MIFUAqYFMdlJkLRVG3wL4PXYEpfWArQsPxdKbS5m5OqRMDwIwxOMXxR7nLi5v/BwPLOvlI+B89gV4AvbpxLtbYXTkPMSNdcoNucP59xlcFjIyvHaCnzk7Lw3qrxvsfzPXM4KQy5ypk6YblwG/guMXxPuaeTh7sTD4cIhTLPMz8BfwtzLODs7bzlsNSZpahbsEr5XQhcZDjvi0eNPrimOrisGLdDNRm/2ALHB8j+XWp6LWdPHg2O6EYZHYXwyxi+J8DByf3fisQAf1XGacmnsMnSk0TeOzgL867D7miAVeDlEdseJu+OFh/2Fv+5u+Lk/EPtu3SPEh6z/lomUdK3lu2fLMn/ORUwNGfhZ3r8o6Smyvx94uDlz0490LjElz/PU83zZcW5lvgY51cU1uGryXJ07p8wMguI75bAbedqf+d3hGcjZ6mdbW4G32Hy9eOv6WgP8eQF+lveW5R+F4YsxflHc08hTw/JOjCEFTlPHz8uOy7nPwE+u2HhpxNQW4E2utP7Vecv7IoY0VHPkeoNz9rou0JqPzQXbUUPLwvJV2XUnK66mkXrHeCsMT8LlqzF9Sey/nvl698K3wwv7kB2c52mX7fzQc7l0xMnn6K7KO1wTyVYJU2sOXZKzZgaa44XL2PGL3xPN8f285+W8Iw5+VRxtZX1F7TXws7xXLf/TcnfIWYu8C9Mxs/zwVOz718jh6cy3uxce92f2Rd6fpx3fLwd+eTkwnDvs7JHJlbRY8ehSQXjx+ReglwPbnDEStDPE5eYpHT0XeqbJ8yPsGS4degrI4Jq6wBsKcDPKrWw/gRtqR0jx6iyHsXEvDPeO8RHGByM+JNwhImK8jB3nqWOMnmEMjOcOewn4F09/zkkRP9VWutJFFpvPyRa/xVG6yHIMkZunCkI8EMHIVSV1nskZDB53cbhxnRbfSnu1tr3KfvWz0+Jjm6vJCyF1+SDjPUy3RtoXd/ccOJ0DpyRL98dJuDmViPCcRcdPhqtXzH1CLhpu0txZpgapmLnOkw6B8T4w3HtAcoG0p3SQSAYrlTS9gBsy8BI30uJXIrAVzrYBBzmwSPu8UUySg40O4j5nccyXKGz0m4qye1HCWfGXNDdASVRIltvn5ruCKlLuABY87HoA/M7jYpb5mUtVkNS4tyLgbMk2X2WFVxwwi/1KAbXP1Bu2lxnbNYObOzoz8EvPYAa8/2nlSnTPpXVujBnoWt5Z/UXGgoPOg0ihiYAXtM/9g/HoGW89020OqKyWxwvn1r8r5RRZ4z6/MoPtqJklZ5jKogusLOQovrYtemhtky3LbXWMwilnYvxooOS2uGOAfShrSc77B0G95K6vwPxZy2cNlAxxTplpKC20ISO+ttXO5pprq9Zauw8doZyTr3Y3h5lW36uuZi14rE2q5uaFRMaaBiEdYHj0iPoF0bUfeC55ldA1NMDUekBQCAZdrgkg5JJ77SyLMqfGrgqm1SdodNp2h8iGQzFLiebszlypqb1BXfa4cMxl8bpMKoi4stNzpcgQbzifHRVxive5QaJ3indK8ErvU26TcYldiLmzzOW08SUFfhkPfD8f+PGyZzx12OCRsfgQK1govgOlOPK5DpFC3ZkbKFTqFfZK2Ef2h5F9F+lDpHM5X1+7v5zY4n1J7gEKLhGcln4gpSt9QctnpZPcJtPeO0n4ooEv2vE/8UhwSlTHZQrEyaPRgc8l+yt/wRbl59I6HG6xRDOpZe1KRFeA3yndceTh9sLX4wtfdifuugsHP83tb05s/uxFMyIKAK4sXL/X4UTRqsU2RjLHYIFf4oG/jUe+Dweehx3T5LE5OcorT7GW5CUtXLCYwbf+zLhWjkXu8YbrE7td5HY38Lg78233zFN3YicRL0oqQOhGhJXMMSGk0iWWWLrF6veoHkVIJqg5ojkm9URzXGLHS+x5HnPgdDn3pNFjg0Oim7PEc4psHTgVQn4oAhttNlcmU1UYk+d52tG7SDRPX1K8UT2TOUYNJJMZoBZQbYBTE5I6lNwUVZujUnmeVEoxJPv3MXpSzG05NjVZogp4NW7eZhFeTMJcGCkviuV6foOpV1hruUIFHT2D6/mbOk5Dz1+7G/rS3pYR4IjqmJIjJo/a0hIHXEVoQK7xGbnMZcydZGq5v8hq2auWv6uCrfWAVR/B1doVTmcgDpuyFxsevz3ThaUnrz1gLba6ElK6ElZ6sSut3LuYP/tIaOQ5t766K8qryYyg2hC5HjOHNHMqp2xxkJlcvdvC0CK7KuC/no48n/ZM547wp2//xe/3P/jWPfPgz68mugLQrMjQosyUXhJOyp3lDotiW/TAtVJbv7c1fGG/VNivXStV/YEjWf6ulltv60gFEb5Bskf58+UP/Pnn7/m3n4+Ef9h/50/H/+Cf+v/kj+HHvHFdxmf3Hj9/l+U38r85fDmgw5XfXfku+I2/06fmr/T6RhbGUQ/fzk/zfMVQlGTljjGZzlKQzJoZNM9h7yaSZfH8X9k6XoZQdoioAAAAAElFTkSuQmCC;" vertex="1" parent="1">
          <mxGeometry x="318" y="280" width="64" height="64" as="geometry" />
        </mxCell>
        <mxCell id="NisTQTtNLf6xnu39tymK-26" value="" style="shape=image;verticalLabelPosition=bottom;labelBackgroundColor=#ffffff;verticalAlign=top;aspect=fixed;imageAspect=0;image=data:image/png,iVBORw0KGgoAAAANSUhEUgAAAEAAAABACAYAAACqaXHeAAAAOXRFWHRTb2Z0d2FyZQBNYXRwbG90bGliIHZlcnNpb24zLjMuNCwgaHR0cHM6Ly9tYXRwbG90bGliLm9yZy8QVMy6AAAACXBIWXMAAC4jAAAuIwF4pT92AAAWqUlEQVR4nJ2b2ZIjO5KeP3cgNi6ZVdWnu2ckmcZmLvQWegO9mN5ubmU2dxpNT58+pyozucQGwHUBRDDIzDpLhxmNTDICgO/uv3vK//xf/9vav/a4//xG+I//5Hdfln7bfaIfP2P2+/cEEPn7ngPc8xPy+RPxhyf89QdP8jvaxuOPu9++yW85+Peef3w2/UYm6N9P9N32tSfsasKxwl/+izB+8Vz+7Kgubb7jYR8rhMhHRG+/+o3nswfGfLju771+aQm5/10MTCB5wQ9/TkgEnQWdpBzwl1b6jdfDph8uI49fbC77le3s/Wcp798/f77cJEgAjeC3aywPyq8I5Nc2WBZ8t44JiOXzvtOyh71/J/F/7+XXc31wmLsD/cbr7v6POGWCYO/OLb8mcXhP+IMmvTvqVgu/s7ZfiZePb7JfUuXtRuU9LesId2RKOaGkzXoPWmLvTOOD6x3nfuWZx98f9vOIZW/9S5s+/rbl6sL9jQpLAImSiV1+U0jOMF/+LoyVLVPsYf3HY3xk47JZ7+HZD7VX7jXeY3Lb/Lfa34arxazRkB2pG8FfwfWGHw2JYAqxFkInhB2EHaTGSA7MQfIfnPaRIFsi0e2sd8f8FcKXcz5e/m7Rx8U+YsQDt90k6AS+h+psNK+J5jXiTzOunyEkULCmIu4888EzHRyhE2KdQ5E5MFfeF/PRh/3tdk6J+aUBJBqSbqHNFMyXtavMXKsgeeMjc/GIYSI5Z3m094/sbZF6zMS7HuqT0bwa7ddA/XVA33rkOmDzDCHkR9Xh6oq6qdl1Dan1pNpnwr0WBgimkonQzJC77YupSDIkGhryu0TLyZUTYuOY9455L/l1EIIAjvdalRkALNzeMOCdc9pIXgO4QfBXqF+N9iXRfp3w33r0PECMIILUNVQVxIilhI0jDAO8gqrDOc3+x7nynv+25fvltb1UcuZo+SUxrZ+t8vh9i35qgYrkhdC9F6psaLzlAYtkCxMeHQ0UtZsENyzqbjQvkfp1wl0mJCTSrsVaT2w9qc4i1JjQMaL9jFxHZJhgnrGYcl0wzw+iVlBBtgzQDVOcPtwvmHdQV6TWExsl1kJsshmYh+/5NU8SKDb0LhZvnJyE4uAuZMJfE/VrwF9nZI6kriJ+6ZiePeOTY95DbLI6awDfG9XFqC6J6hRxfUDniIQEIeV0OKU7idtCnEjR0mwuaDEZKWZTKbFxhE4JnTDvhLAT5j2kutj/uuADA3QGSTk1lCCYt+yAFh5YSZNHqE/QvCTab5HqdcaNERMIx4bpk2d4dkxPwnyA1ECqyo4JNEheZ1bc6NG5zk4sFJOaiz0vji7lGmGpGxanaCo5emh2nLGCuESXFlKdQ21yWaIrbfFG0xIGTcDrLMWjCjJDVFaHIamEtgGqhfiXTLxOkVQ75mPF+MkxfBLmJ7kdYvErljU6VUaqNhq21bYEkjR79w0Dlnvu4vzmb3NGqiF0CdsHtImIy0xPQbHRIVeHTwLL2rBGDTHwOaRkJkjK2mBFZSSCFrWvT0Z9SbghZzdxXzEfPMNnx/i8kfpWgzaJy+pUF8K3CZQD1O69/sZZvUvNyxc5hzCsSuAMcYaKYUtuEwWdCx2xmHoEN7F+782RPahISYm3xEuO7xfD9wmd8m+xdYSDyyr/XGytKWpXOHw7MXdJ1mOtsAr2kUGbzyv9m2eTzxqVWoM6oT7lrUyIQbHBoYMiIROOZaL9kJM0N5ZqMFWWvS2GmGRppftUNlUwHZTQKVhOLsI+Ex7brIqw4fI23/9OMnWX969qbXcSz2my3KfIkomPLcR9hC7i6oSUKjMV4mVw6CQ3dS+S91ejOhtVb+hs+NQZMpPjq9hdLpBqmCoYPwuptpJVGalJ0G42NiEFwaJClPx6lOYdA8o+asW7l7gbBYIgBZvITjM7Mig2X0FsjLSPuEOgbmZEjBiVefLZ7gfFDbL6lMVnJJ8jk4QsJKfgrUqYlmzIikOM+VCxhbAz7BBojiNfDj2f2p4vzZW9n1BJJFP6WDElxxQ9wZSQlFgcQdoY8PJZxfCScJpQMZIJfah4GxpOl5b5XJPMo2Gj8sXhxV3C9pHmMLJrJ7xLhKhcY40FRSZFR83PbkwxVZYTox34nTD32T941CAJprkqXJyMqWVvvg/sP/f84/Mb/3L8iX9qv/JDdaKVCYDBamZz6yuZMm+8WdzEVFdsSjEqDTiMIVV8Czv+MjwDz/RjzWyyhkhMsr3XEPcJDjO7w8ixG/GaiCYMsyfMHhs1a07kzueYZumnOhG7xDzorYah2NhqaxvbNc2KsVwhZSLHVJEeUtRKItUm2LoN+yP3mdvy22AV59jw1/HIX65P/O10oH9t0ZPD9YJEwZwROyPuE+5pYr8bee4GKheZo+My1gx9Tbx6ZFR0Lk5vY4VWwnDcJfQwkxpHmhWZBE8UJNzCYLbbbKMSgVG5nhv+X3rmNDb8e/OJzs94jasqqxiVRhTDa8SJoRhaJJ6KFmz/7mPFt6njx+uRr+cd/alBTp7qkqWYTdCIh4Q8TRyPA192PYd6xEvKJjO3XPqa+VIhveKG+1zio8zPtjFVwWfiBdIDgFEyQDk5Uq8MvqL3O/7qiuNSAzVEc/wVNVQTqoYIqN73C3Ianx1mCMo0VNjF498c1Vk4XnOYAggdzEeIh4R+Hnk+XvnUDeyriWTCaW54G1pO14YwVBCy/8rRSG7p+3IEyRquo5Lw2U/MOfm71QLb0LU8t9Td0zYVuy26cnUT0pY94+YeWz4vZXQvHC5Qv+X6wA8ph9dKmA5CqmRdJPael7jn5WVPCgqjQ/vs5d0gtIuj1E1iVDLZ5G5HlQQ6CDq4kgjlaODXIuh7iNBHhH7w2+2mh89LQZeyU/O9UJ1zGV1fEm60FTGa9sJ0zJ7aHLhB4aroXOGvufyuzkZ1zUzTuaS9VWZaaHMqHlvJeUKVQ7m5vMfitiTeQqF/PP87Irb0buL6dwHMJY+QTRqQMniy4AfNi1GfIhoMUyHslHmnayEV6wyl+Ut55s1oXuMNabqMyDBnHEAVvMMql0vhzjPvPfNBmQ4ZFAk7yVVhddOO5dwfM+C3MGP56XvJzrJPAU+qSwFPvuUyWqeIVUrYOeauIDcFKxTLafjyTPOaaF4C1euIXgqeEOIKhCAZO1CnuMpTdTVx3zA/VaU8F+ZjxiRja3ea7pcsST4w8w+J3xC8Fit3FN/uW1X+BM2L0X6L1KcZmRLmldA5xqdSQh9LWq2lMo1AYm1hhZ3DpMF1FRLTCosREpJSwRUyU2SY8SGhQ8Bfa9xYMU55n2kDCWdY/FFkHxD64bVhzlJbr38Xx+mvUJ2M9iUjR/6SPVY4VkxHx/hc1H5Ploze1jUHscv2PR8FDYpEdwtzKWesGgydwU2GG3O16oaAjgEJCXeeaMzQUCExAwmxLWCpLn0Ble/b8u+5itRdUd/qZLmMPkV0SsQuA5bjk+Yq8pBT7RUnKIVLVIP6/fKPzjoXObpGKze6jF1c64w8nRO+j4jlwqfqjVRl/xILKu0fpbkl5o4Z37tvcziJBSwtIa45Jfwl4aZEqpXpqAyflemTMB+sYHa3pEsWNdpGpo/236iwqUFhYNhnDz/Oghsd1VmpT47qYqWoMnxvpdLNVdLNBL6TOX33ejxc2gCmF6O+GP6aiTcnhE5zSb0vYKVnTbbWJsdjGv7Rnhvm5Nzl3iGZZsaaF5LP4TFWOXRqMDQaMuTSH1k6Q1tCtqr/6BO21yPQUWoJ0xyHBwfjkwfJJeh8gPlghF3CGsuSW2qQBZFaMIjvCaI4a7vbt9S7m86Rqd2QqY1390NJiILhpiwEfxfcvxfbt999cLi1M+OyGk7PuXpLjZHahLSRqptpm5naR6RIKyYhREdMSoxKDEqYHTYpzBnNWV+/xBhuEQlYq1sTCmaYmQsFfE2AWUarl2c2TPwuwXew+ZLlFTU0AWuM0BnpEKmOE58OPT/srnxurxz9SKWRaEIyXbGBhDAnRzJhSo7z3HCeGk5DQz9UzH0Fg0NHRWbJ4OZyhBV4tXXqRh7ebQVCKH1KWc3HRG4msKbE3IqhD7n7weeb2kHqEv4w8+npyj8cTvxj98of6zOtzsSCFSQTVGzFByDjBsmEMXnOseF17vg27Pja73i7tEyXGukdMmak6F0Okrm5qWvk5kg1a0JMsmaCGpYwuKzyEF6+pwUflphqpZ9XzpGEcfZc5ppX3wFQSWI2JSRHQkq5fF9GVxJpNNBo4MkP/Kk58bLr+HF35MfuwNu5I54rrC943wI/LA6zOM9MuN2FTdOspVrnzxoyIWsxtC0f7Zfs3e5NZVsTSCKXnFLxNiuXa8N/VM/4jd2bCWaCSGaA04R3idpFGh/o/MzOT7RupnMzBz/hdm/ULvKjj7z4jtE3pKtDh1LKPyZtRYO3wx+5OyxYgcqsTJx9WAt8OLXBx/Z1u7G0q1MuOREHArPAQ+fvtkiRmHnLvYgqoU2kbgOHbuRT1/O5udK6madqgD04TXwVGGhIyaHjDfzcnuXu/EI2A80IuMQbk9Za4LuRZ0PsLw5HLcyJfBhE3qfWDyITMHWYVky18VPX8fPuQLcf+bzveWoGVIzaRdp6Zm4dcVIs2ArHr8tu95IbE0zJAE6JCPfl8HcIfJT6yo3NDbe+3YbjW6ZsExg+2Gdzv5bxGp0yEnW9eoa+5u3QsG8yECtieB+JdcImwSZBF3t/YICtfcTiE5b+Z1pMoCQMqZxsPdty2DXjWgj5mPiFo+8KyoUhGy17HFV5l2OVmkKSoLMjBuE0K0NXUVU34FV8wmrFZsOWDR6zyuWcDkwyXCclzOkseBNDyjSG+dxdkQKTaSkythnaghRbKQF1zod1E7ndVBINEzCXgYjQLn36e4bdachH2re0tHolmWcOSqgjohlbtFlXPHNNjcu6EiUTvpzZlexTy2SuZZp8/bPLoy4juOEhB9+q7Yq53e7RQBmKKr3/a8L3CSkhJtXKvM+v6SC3OqDeIDMLIz5KvwtzNID0SoqCTUrSfLPE3EV6jF4CKwy2dLPMW2YCRhItTAK/+6tQnYzmLSM1qcpDB6nKxUSetFja3rIyRQL4IffZmrdI9RZw1wkZIxKzmppzNK0n7iumY8V01Iz57RfsbokADxq7VeEi2aVznWbJiDSsKfIN0pfbsJTLTE5NwuoEdcqt8yTYLEjSjApXZ6N9ibQ/jvifTlB5UlORdrn9zcERa1klowF0MnwP9blMiVwCOgQkxtvgczIkzsgc0OuEf/U0XZkUOzqmvWa8rjAjNRkLXIYb7uYLYiGWbJYWpQxusOYBdw62dI7jLmFdRNuIqpGikCaHuyr+nDELn1Va1pyamIrKC6nOIyehIDMmGXlZiK/OETcnUCEe6lyCuluI0SnixohMAZkCfpzxb0r11dN2GcAMO8e8U2KTzSPWRfuqZX5wYybcfNDCmNVaF9/kct4fD7mNVjUB54wYlDR63Kun+So0L4a/gh8/C4hirqVpfSE6S2c6ZEQ1zxCw+onqmjKWD8w7T2w1z+V0smqLxNyDr64ZEapO2UR0COhlQC/gvaOuCqJbO6xSkldSpWstbw6SkxU6zz5EVl+0+iWffUtscxtNDzNtN6FqzLNjvla4bxXtT0L3twy0utHw/T8kxs/C9U8OP7g8YNjkFrS5rMpuyhC1BsPNhsaCxXcFzj4IocwKpMrKjEGOEHmcTqnPnvpUU78F/GVGrxMyBmQOGbJaHUAp+t1mGMo5UucJh4wlzntl3uUZhaWDHXaG7SJuP3PoJro655/9VDH1Ffrmab4Jzbc81ledIxINn36YSEAwwaLg2oi6iCUl9B598/ir4vs8DaqhjL02SujKgFK7aUAsMd8b0ZUqrMvzQ0PvqK5Kda6ozy3+UqbFhoBOAeYAKeXZvynj/gKgio4NWNaGPH2mhBam50R8ivjDzGE/sG8mumomJOW1b7meG+RbTfOzUr9mjVwnXWrFqzfUxbVr0jYzBvTXBsbsLOq3DHAuXZzQ5oZD7HL3ZZ3Ds02ZqiXXdxDdMmsA85MU6EzxvcMPNb5P+MHQKXd7dMrSWcboTITU+owmPzmGz8rwA4w/RPQPI1+OV77seva+tOyj52XseH3bwU8NzU9K85KhOiwjVKl2xErwTTutKE1MitPEMFWEPjcu65Pgr1n1kUz80r7ajscs8NZ21mcNbZu0NKoRawg7YYp5DkCDQ6dl4Npun4Pdhkea3DwZn2H6kohfZo6fr/z5eOa57qk1MiXHt3HHT+c9p5cd+rf65vD67Jhjk8N7bpmD/7TvqV12p0PwmfjZ5ZzZZTgJsjPMDUyKIyrEb3JvK8MWSzzKGZ59/H8TRUOiK92axZMvNckyL6w5pFkTkTZS7yY+73KleKwGWhcIprxMHa9jy9fTnuGlxf+cbb5+NaprZmZ2rEBFSZIEX7uI10Q/V1zHmr6vMwxlQtxH4v794fPwYfm/mzKFdWtF31Kaxxnj5bvVTKyoSiF+KY1TbViTkC5SNYFjO7FvJg71yKHKkyEAU3R8HXe8ji2nvqW/1qRzlVvul6xd5oV5l1Hg5LLT3NY2vp8rkkkm/lqTrj5LUQ3dB+o20DXZqzoxYrn3OtTMoyf2Lvfby1ATy+TpUhbLIlm7zSIvUnaLJCynq5VBE/FNpO0y0ft6Yl9N7PyEl5TPGmpep5a3oeHSN0zXeh2L82OOPslncDaH0VIV+kRqEq5XXC+4XvAv544YHGF00Dtk1jy02CV8HXne9/xpf+YPzYW9m5hNuYSGt7nlNDVcppp+qhhHT5g8NhdEd/4OmruUzW4BQQxtA1UdaZuZrp7pqpnOz9Qa8RpXaZ9TBkxf+zwZEoZqJXz5T7AFnY5tInWG7QJVG2jbvHbtIj8XM3FvDj+emjyaNmkeLLSlgMgQ9XWqOFUNrZupC17XNTNf6gth5xijZ0yea6gYYkUfKqboGGbPHB0paWnilgxRDOcSTixDYT7QFiis1oAvk2PZJ1WcppY+VFymin6sGYeK1Od5IJkEN9/qgdUXOUidwXHmcBz4w/7Kl/bCcz1Qa+Df/B/59yRMqcHL4KA0M5exNEWgV1KqOE2O/trwdbfj2I48NQOHauToRzo3c6wGvmxy0tlcGaZSpuRXyDshKxqc9yjvkmeJnBhzckzJcQ01p6nhPDZcx4pxqImDgymPwbn5VqLfTaWuvsQwZ2Vc56Z+0SSDsgWTRMGz1vtyV0+7kPtrdnKY95yahrcm8Zcu0HYTx27kuRl4bnqOfmTvxxXR3em0zv9FNj2A8veWQX2sGOaGPlSrpK9DwzR6UiFaJ8Ut/4i1LZ0fS8i1bhBkEtLVc04d0+T5Vnc3EzjvmPoKmRTv/9Tj/W3iM3vn93FLNeFconKRrgo8NQOf6p4fmjN/qk/84E988WeedGCnIzX3Y3NbDRms4mI1p9jxEnf8FI58m3e8zDu+TR2nXct1rvL8X+kcPZrR984pBfVxmlbEuXKRSpf3SN9UuT4Iiv/nP37lj92ZH5ozBzfeTXYuKgr3Q45OUsHwZ1qZ+eSufHJXvrgzn3TiKMZOHTupUQS3+c/xaInRBkY7c7HEa3L8nDq+xgNvseWUOq6pZkxVbpYUscY7pOaXr+WsH02rqhj/Vv+R/+s/8ZMc8P9t/8L/2P+Vf25+5L/6b99f9FdaxyqJmtz8OJEYYuQkPbUIFYKK4BZiMCKGA44aqeTCJx0yAEN+ba9k+u67ZfhyO5D5W69/rf+Jf/X/nf8jxv8H27Hcd6G90hsAAAAASUVORK5CYII=;" vertex="1" parent="1">
          <mxGeometry x="318" y="360" width="64" height="64" as="geometry" />
        </mxCell>
      </root>
    </mxGraphModel>
  </diagram>
</mxfile>
